<?xml version="1.0" encoding="UTF-8" standalone="no"?>
<!DOCTYPE svg PUBLIC "-//W3C//DTD SVG 1.1//EN" "http://www.w3.org/Graphics/SVG/1.1/DTD/svg11.dtd">
<svg version="1.1" xmlns="http://www.w3.org/2000/svg" xmlns:xlink="http://www.w3.org/1999/xlink" preserveAspectRatio="xMidYMid meet" viewBox="0 0 640 640" width="640" height="640"><defs><path d="M67.7 201.01C67.7 202.51 67.7 210.01 67.7 223.41C28.65 294.11 7 333.41 2.65 341.26C1.6 343.21 1 345.41 1 347.66C1 348.46 1 349.21 1 349.96C1.65 371.42 19.55 388.32 41 387.67C50.7 388.22 60 391.72 67.7 397.67C67.7 402.02 67.7 436.67 67.7 441.02C67.65 442.02 67.65 443.07 67.7 444.07C68.55 472.67 92.4 495.22 121 494.37C129 494.37 193 494.37 201 494.37C201.75 494.37 202.55 494.37 203.3 494.37C224.75 493.72 241.65 475.82 241 454.37C241 449.02 241 422.37 241 374.37C238.33 374.37 217.02 374.37 214.35 374.37C214.35 422.37 214.35 449.02 214.35 454.37C214.4 455.17 214.4 455.97 214.35 456.72C213.7 463.47 207.7 468.37 201 467.67C193 467.67 129 467.67 121 467.67C119.95 467.77 118.9 467.77 117.8 467.67C103.95 466.82 93.45 454.87 94.35 441.02C94.35 436.07 94.35 396.27 94.35 391.32C94.35 387.52 92.7 383.87 89.85 381.32C76.5 369.01 59.2 361.81 41 361.01C40.95 361.01 40.9 361.01 40.85 361.06C34.4 361.71 28.65 357.06 27.95 350.61C34.45 338.91 86.2 245.01 92.7 233.31C93.8 231.31 94.35 229.11 94.35 226.86C94.35 224.26 94.35 203.61 94.35 201.01C94.45 105.36 172 27.81 267.7 27.71C273 27.71 315.55 27.71 320.85 27.71C321.65 27.61 322.5 27.61 323.3 27.66C330.05 28.31 335 34.31 334.35 41.01C334.35 45.46 334.35 67.71 334.35 107.71C337.02 107.71 358.34 107.71 361 107.71C361 67.71 361 45.46 361 41.01C361.05 40.26 361.05 39.51 361 38.76C360.4 17.31 342.45 0.41 321 1.01C310.35 1.01 273 1.01 267.7 1.01C157.25 1.16 67.8 90.61 67.7 201.01Z" id="b3pxonairI"></path><path d="M241 521.02C241 537.02 241 545.92 241 547.67C241 547.67 241 547.67 241 547.67C225 547.67 216.1 547.67 214.35 547.67C214.35 547.67 214.35 547.67 214.35 547.67C214.35 531.67 214.35 522.82 214.35 521.02C214.35 521.02 214.35 521.02 214.35 521.02C230.35 521.02 239.25 521.02 241 521.02C241 521.02 241 521.02 241 521.02Z" id="e1Pfai5lje"></path><path d="M401 427.67C489 427.67 537.9 427.67 547.65 427.67C548.45 427.62 549.25 427.62 550.05 427.67C556.75 428.37 561.65 434.32 561 441.02C561 443.52 561 463.72 561 466.22C559.1 474.17 546.25 521.02 507.65 521.02C500.3 521.02 494.35 526.97 494.35 534.37C494.35 539.67 494.35 566.37 494.35 614.37C477.46 614.37 393.01 614.37 241 614.37L241 574.37C225.01 574.37 216.13 574.37 214.35 574.37C214.35 606.37 214.35 624.12 214.35 627.67C214.35 635.07 220.3 641.02 227.7 641.02C246.35 641.02 339.65 641.02 507.65 641.02C507.65 641.02 507.65 641.02 507.65 641.02C515.05 641.02 521 635.07 521 627.67C521 619.57 521 554.62 521 546.52C562.7 538.62 582.55 494.67 587.4 470.37C587.6 469.47 587.65 468.57 587.65 467.67C587.65 465.02 587.65 443.67 587.65 441.02C587.7 440.27 587.7 439.52 587.65 438.77C587.05 417.27 569.15 400.42 547.65 401.02C528.1 401.02 479.25 401.02 401 401.02C401 406.35 401 425 401 427.67Z" id="a6YNM8wJUz"></path><path d="M307.65 267.71C307.65 283.66 307.65 292.56 307.65 294.36C307.65 294.36 307.65 294.36 307.65 294.36C291.7 294.36 282.8 294.36 281 294.36C281 294.36 281 294.36 281 294.36C281 278.36 281 269.46 281 267.71C281 267.71 281 267.71 281 267.71C297 267.71 305.9 267.71 307.65 267.71C307.65 267.71 307.65 267.71 307.65 267.71Z" id="aY9jjbVpU"></path><path d="M589.2 149.36C591.6 147.01 610.6 127.96 613 125.61C618.2 120.41 618.2 111.96 613 106.76C609.25 102.96 579.05 72.81 575.3 69.01C570.05 63.81 561.65 63.81 556.45 69.01C554.05 71.41 535 90.41 532.65 92.81C528.85 91.01 524.95 89.41 521 87.96C521 84.61 521 57.71 521 54.36C521 47.01 515.05 41.01 507.65 41.01C502.35 41.01 459.65 41.01 454.35 41.01C446.95 41.01 441 47.01 441 54.36C441 57.71 441 84.61 441 87.96C433.75 90.56 426.75 93.81 420.15 97.71C421.5 100.01 432.3 118.41 433.65 120.71C441.15 116.26 449.25 112.91 457.65 110.76C463.55 109.26 467.65 103.91 467.65 97.86C467.65 95.86 467.65 85.81 467.65 67.71C470.32 67.71 491.68 67.71 494.35 67.71C494.35 85.81 494.35 95.86 494.35 97.86C494.35 103.91 498.45 109.26 504.3 110.76C512.75 112.96 520.8 116.31 528.3 120.71C533.55 123.81 540.2 122.96 544.5 118.66C545.95 117.21 553.05 110.11 565.85 97.31C567.74 99.2 582.82 114.28 584.7 116.16C571.9 128.96 564.8 136.06 563.4 137.46C559.1 141.76 558.25 148.46 561.3 153.71C565.75 161.16 569.1 169.26 571.3 177.71C572.8 183.56 578.1 187.66 584.15 187.71C586.2 187.71 596.25 187.71 614.35 187.71C614.35 190.38 614.35 211.7 614.35 214.36C596.25 214.36 586.2 214.36 584.2 214.36C578.15 214.36 572.85 218.46 571.3 224.36C569.1 232.76 565.75 240.86 561.35 248.36C558.25 253.56 559.1 260.26 563.4 264.56C564.85 265.96 571.95 273.11 584.75 285.91C582.87 287.8 567.79 302.88 565.9 304.76C553.1 291.96 546 284.81 544.55 283.41C540.25 279.11 533.6 278.26 528.35 281.36C520.85 285.76 512.75 289.11 504.35 291.31C498.45 292.81 494.35 298.11 494.35 304.21C494.35 306.21 494.35 316.26 494.35 334.36C491.69 334.36 470.37 334.36 467.7 334.36C467.7 316.26 467.7 306.21 467.7 304.21C467.7 298.11 463.55 292.81 457.7 291.31C449.25 289.11 441.2 285.76 433.7 281.36C428.45 278.26 421.75 279.11 417.45 283.41C416.05 284.86 408.95 291.96 396.15 304.76C394.27 302.88 379.19 287.8 377.3 285.91C390.1 273.11 397.2 266.01 398.6 264.56C402.95 260.26 403.8 253.61 400.7 248.36C396.25 240.86 392.9 232.76 390.75 224.36C389.2 218.46 383.9 214.36 377.85 214.36C374.95 214.36 360.45 214.36 334.35 214.36C334.35 217.03 334.35 238.35 334.35 241.01C354.5 241.01 365.7 241.01 367.95 241.01C369.35 244.96 371 248.86 372.8 252.66C370.4 255.06 351.4 274.06 349 276.46C343.8 281.66 343.8 290.11 349 295.31C352.8 299.06 382.95 329.26 386.75 333.01C391.95 338.21 400.35 338.21 405.6 333.01C407.95 330.66 427 311.61 429.35 309.21C433.15 311.06 437.05 312.66 441 314.06C441 317.41 441 344.31 441 347.66C441 355.06 446.95 361.01 454.35 361.01C457.9 361.01 475.65 361.01 507.65 361.01C507.65 361.01 507.65 361.01 507.65 361.01C515.05 361.01 521 355.06 521 347.66C521 344.31 521 317.41 521 314.06C524.95 312.66 528.85 311.06 532.65 309.26C535 311.61 554.05 330.66 556.45 333.01C561.65 338.21 570.05 338.21 575.3 333.01C579.05 329.26 609.25 299.06 613 295.31C618.2 290.11 618.2 281.66 613 276.46C610.6 274.06 591.6 255.06 589.2 252.66C591 248.86 592.65 244.96 594.05 241.01C597.4 241.01 624.3 241.01 627.65 241.01C635.05 241.01 641 235.06 641 227.66C641 222.36 641 179.71 641 174.36C641 167.01 635.05 161.01 627.65 161.01C620.95 161.01 597.4 161.01 594.05 161.01C592.65 157.06 591.05 153.16 589.2 149.36Z" id="f1AN8f9oAt"></path><path d="M307.65 214.36C307.65 230.36 307.65 239.26 307.65 241.01C307.65 241.01 307.65 241.01 307.65 241.01C291.7 241.01 282.8 241.01 281 241.01C281 241.01 281 241.01 281 241.01C281 225.01 281 216.11 281 214.36C281 214.36 281 214.36 281 214.36C297 214.36 305.9 214.36 307.65 214.36C307.65 214.36 307.65 214.36 307.65 214.36Z" id="b1k2sDCJMD"></path><path d="M494.15 149.31L500.3 151.26L506.1 153.96L511.45 157.26L516.4 161.16L520.9 165.61L524.8 170.56L528.1 175.96L530.75 181.76L532.7 187.91L533.9 194.31L534.35 201.01L533.9 207.71L532.7 214.16L530.75 220.31L528.1 226.11L524.8 231.51L520.9 236.46L516.4 240.91L511.45 244.81L506.05 248.11L500.3 250.76L494.15 252.71L487.7 253.96L481 254.36L474.3 253.96L467.85 252.71L461.75 250.76L455.95 248.11L450.55 244.81L445.6 240.91L441.15 236.46L437.25 231.51L433.9 226.11L431.25 220.31L429.3 214.16L428.1 207.71L427.65 201.01L428.1 194.31L429.3 187.91L431.25 181.76L433.9 175.96L437.25 170.56L441.15 165.61L445.6 161.16L450.55 157.26L455.95 153.96L461.75 151.26L467.85 149.31L474.3 148.11L481 147.71L487.7 148.11L494.15 149.31ZM467.55 178.01L462.15 182.16L458 187.56L455.3 193.91L454.35 201.01L455.3 208.11L458 214.46L462.15 219.86L467.55 224.06L473.9 226.71L481 227.71L488.1 226.71L494.45 224.06L499.85 219.86L504.05 214.46L506.7 208.11L507.65 201.01L506.7 193.91L504.05 187.56L499.85 182.16L494.45 178.01L488.1 175.31L481 174.36L473.9 175.31L467.55 178.01Z" id="k2DIMLViG0"></path><path d="M360.3 96.41L366.05 98.81L371.3 102.06L375.95 106.06L379.95 110.71L383.2 115.96L385.65 121.71L387.15 127.86L387.65 134.36L387.15 140.86L385.65 147.01L383.2 152.76L379.95 157.96L375.95 162.66L371.3 166.66L366.05 169.91L360.3 172.31L354.15 173.81L347.65 174.36L341.2 173.81L335.05 172.31L329.3 169.91L324.05 166.66L319.4 162.66L315.4 157.96L312.15 152.76L309.7 147.01L308.2 140.86L307.7 134.36L308.2 127.86L309.7 121.71L312.15 115.96L315.4 110.71L319.4 106.06L324.05 102.06L329.3 98.81L335.05 96.41L341.2 94.86L347.65 94.36L354.15 94.86L360.3 96.41ZM338.25 124.91L335.4 129.16L334.35 134.36L335.4 139.56L338.25 143.76L342.5 146.66L347.65 147.71L352.85 146.66L357.1 143.76L359.95 139.56L361 134.36L359.95 129.16L357.1 124.91L352.85 122.06L347.65 121.01L342.5 122.06L338.25 124.91Z" id="axLsuFdgV"></path><path d="M161 227.71L161 214.36C145.01 214.36 136.13 214.36 134.35 214.36C134.35 222.36 134.35 226.81 134.35 227.71C134.35 228.06 134.35 228.41 134.35 228.81C134.65 243.21 146.6 254.66 161 254.36C165 254.36 197 254.36 201 254.36C201.4 254.36 201.75 254.36 202.1 254.36C216.55 254.06 228 242.11 227.7 227.71C227.7 226.81 227.7 222.36 227.7 214.36C225.92 214.36 217.02 214.36 201 214.36L201 227.71L161 227.71Z" id="a3wutPx1f8"></path><path d="M240.3 309.71L246.05 312.16L251.3 315.41L255.95 319.41L259.95 324.06L263.2 329.31L265.65 335.06L267.15 341.21L267.7 347.66L267.15 354.16L265.65 360.31L263.2 366.06L259.95 371.32L255.95 375.97L251.3 379.97L246.05 383.22L240.3 385.67L234.15 387.17L227.7 387.67L221.2 387.17L215.05 385.67L209.3 383.22L204.05 379.97L199.4 375.97L195.4 371.32L192.15 366.06L189.7 360.31L188.2 354.16L187.7 347.66L188.2 341.21L189.7 335.06L192.15 329.31L195.4 324.06L199.4 319.41L204.05 315.41L209.3 312.16L215.05 309.71L221.2 308.21L227.7 307.66L234.15 308.21L240.3 309.71ZM218.25 338.26L215.4 342.51L214.35 347.66L215.4 352.86L218.25 357.11L222.5 359.96L227.7 361.01L232.85 359.96L237.1 357.11L239.95 352.86L241 347.66L239.95 342.51L237.1 338.26L232.85 335.41L227.7 334.36L222.5 335.41L218.25 338.26Z" id="b1VkJB6dP7"></path><path d="M387 376.42L392.7 378.82L397.95 382.07L402.6 386.07L406.6 390.72L409.85 395.97L412.3 401.72L413.8 407.87L414.35 414.37L413.8 420.87L412.3 427.02L409.85 432.72L406.6 437.97L402.6 442.62L397.95 446.62L392.7 449.87L387 452.32L380.85 453.82L374.35 454.37L367.85 453.82L361.7 452.32L355.95 449.87L350.7 446.62L346.05 442.62L342.05 437.97L338.8 432.72L336.4 427.02L334.85 420.87L334.35 414.37L334.85 407.87L336.4 401.72L338.8 395.97L342.05 390.72L346.05 386.07L350.7 382.07L355.95 378.82L361.7 376.42L367.85 374.87L374.35 374.37L380.85 374.87L387 376.42ZM364.9 404.92L362.05 409.17L361 414.37L362.05 419.57L364.9 423.77L369.15 426.62L374.35 427.67L379.55 426.62L383.75 423.77L386.65 419.57L387.65 414.37L386.65 409.17L383.75 404.92L379.55 402.07L374.35 401.02L369.15 402.07L364.9 404.92Z" id="eaLH2ftTd"></path></defs><g><g><g><g><use xlink:href="#b3pxonairI" opacity="1" fill="#0b71f3" fill-opacity="1"></use><g><use xlink:href="#b3pxonairI" opacity="1" fill-opacity="0" stroke="#000000" stroke-width="1" stroke-opacity="0"></use></g></g><g><use xlink:href="#e1Pfai5lje" opacity="1" fill="#0b71f3" fill-opacity="1"></use><g><use xlink:href="#e1Pfai5lje" opacity="1" fill-opacity="0" stroke="#000000" stroke-width="1" stroke-opacity="0"></use></g></g><g><use xlink:href="#a6YNM8wJUz" opacity="1" fill="#0b71f3" fill-opacity="1"></use><g><use xlink:href="#a6YNM8wJUz" opacity="1" fill-opacity="0" stroke="#000000" stroke-width="1" stroke-opacity="0"></use></g></g><g><use xlink:href="#aY9jjbVpU" opacity="1" fill="#0b71f3" fill-opacity="1"></use><g><use xlink:href="#aY9jjbVpU" opacity="1" fill-opacity="0" stroke="#000000" stroke-width="1" stroke-opacity="0"></use></g></g><g><use xlink:href="#f1AN8f9oAt" opacity="1" fill="#0b71f3" fill-opacity="1"></use><g><use xlink:href="#f1AN8f9oAt" opacity="1" fill-opacity="0" stroke="#000000" stroke-width="1" stroke-opacity="0"></use></g></g><g><use xlink:href="#b1k2sDCJMD" opacity="1" fill="#0b71f3" fill-opacity="1"></use><g><use xlink:href="#b1k2sDCJMD" opacity="1" fill-opacity="0" stroke="#000000" stroke-width="1" stroke-opacity="0"></use></g></g><g><use xlink:href="#k2DIMLViG0" opacity="1" fill="#0b71f3" fill-opacity="1"></use><g><use xlink:href="#k2DIMLViG0" opacity="1" fill-opacity="0" stroke="#000000" stroke-width="1" stroke-opacity="0"></use></g></g><g><use xlink:href="#axLsuFdgV" opacity="1" fill="#0b71f3" fill-opacity="1"></use><g><use xlink:href="#axLsuFdgV" opacity="1" fill-opacity="0" stroke="#000000" stroke-width="1" stroke-opacity="0"></use></g></g><g><use xlink:href="#a3wutPx1f8" opacity="1" fill="#0b71f3" fill-opacity="1"></use><g><use xlink:href="#a3wutPx1f8" opacity="1" fill-opacity="0" stroke="#000000" stroke-width="1" stroke-opacity="0"></use></g></g><g><use xlink:href="#b1VkJB6dP7" opacity="1" fill="#0b71f3" fill-opacity="1"></use><g><use xlink:href="#b1VkJB6dP7" opacity="1" fill-opacity="0" stroke="#000000" stroke-width="1" stroke-opacity="0"></use></g></g><g><use xlink:href="#eaLH2ftTd" opacity="1" fill="#0b71f3" fill-opacity="1"></use><g><use xlink:href="#eaLH2ftTd" opacity="1" fill-opacity="0" stroke="#000000" stroke-width="1" stroke-opacity="0"></use></g></g></g></g></g></svg>