<?xml version="1.0" encoding="UTF-8" standalone="no"?>
<!DOCTYPE svg PUBLIC "-//W3C//DTD SVG 1.1//EN" "http://www.w3.org/Graphics/SVG/1.1/DTD/svg11.dtd">
<svg version="1.1" xmlns="http://www.w3.org/2000/svg" xmlns:xlink="http://www.w3.org/1999/xlink" preserveAspectRatio="xMidYMid meet" viewBox="0 0 640 640" width="640" height="640"><defs><path d="M319.75 33.2L322.85 33.35L325.95 33.55L332.15 34.05L338.25 34.75L341.3 35.15L344.35 35.6L347.35 36.1L353.35 37.2L356.3 37.8L359.3 38.45L362.2 39.15L365.15 39.9L368.05 40.65L370.95 41.45L373.85 42.3L379.55 44.1L382.4 45.05L385.2 46.05L388.05 47.1L390.8 48.15L393.6 49.25L396.3 50.4L399.05 51.55L401.75 52.75L404.45 54L407.15 55.3L412.45 57.9L417.65 60.7L422.75 63.6L425.3 65.1L425.95 65.1L426.15 65.05L426.85 65.05L426.95 65L427.65 65L427.65 66.55L432.4 69.6L437.1 72.7L441.65 75.95L446.15 79.3L450.6 82.8L454.9 86.35L459.15 90.05L463.3 93.8L467.35 97.7L471.3 101.65L475.15 105.75L478.85 109.9L482.5 114.15L486.05 118.5L489.5 122.95L492.8 127.5L496 132.1L499.1 136.8L502.1 141.55L504.95 146.4L507.7 151.35L510.3 156.35L512.8 161.45L515.2 166.6L517.4 171.8L519.55 177.1L521.5 182.45L523.35 187.85L525.05 193.3L526.65 198.85L528.1 204.45L529.35 210.1L530.5 215.8L531.5 221.55L532.35 227.35L533.05 233.2L533.6 239.1L534 245L534.25 251L534.35 257L534.35 267.65L534.3 269.55L534.2 271.45L534.05 273.25L533.55 276.85L533.2 278.55L532.8 280.25L532.35 281.9L531.85 283.5L531.25 285.1L530.6 286.65L529.95 288.15L529.2 289.6L528.4 291L527.55 292.4L526.65 293.7L525.7 295L524.7 296.25L523.65 297.4L522.55 298.55L521.45 299.65L520.25 300.7L519 301.7L517.7 302.65L516.4 303.55L515 304.4L513.6 305.2L512.15 305.95L510.65 306.65L507.55 307.85L505.95 308.35L504.3 308.8L502.6 309.2L500.85 309.55L499.1 309.85L497.3 310.05L495.45 310.2L493.6 310.3L491.7 310.35L437.4 310.6L437.05 312.6L436.6 314.55L436.1 316.5L435.55 318.4L434.95 320.3L434.25 322.2L433.55 324.05L432.75 325.85L431.9 327.65L431 329.4L430.1 331.1L429.1 332.8L428.05 334.45L426.95 336.1L425.8 337.65L423.4 340.75L420.8 343.65L419.4 345.05L418 346.4L416.55 347.7L413.55 350.2L412 351.35L410.4 352.45L408.75 353.55L407.1 354.6L405.4 355.55L403.65 356.5L401.9 357.35L400.1 358.2L398.25 358.95L396.4 359.65L394.55 360.3L392.6 360.9L390.7 361.45L388.75 361.95L384.75 362.75L384.6 365.85L384.35 368.9L384.05 371.8L383.7 374.65L383.3 377.4L382.85 380.1L382.35 382.65L381.75 385.15L381.1 387.55L380.4 389.85L379.6 392.05L378.75 394.2L377.85 396.3L376.85 398.3L375.8 400.2L374.65 402.05L373.45 403.8L372.2 405.5L370.85 407.1L369.4 408.65L367.9 410.15L366.3 411.55L364.65 412.9L362.9 414.2L361.05 415.45L359.1 416.6L357.1 417.75L355 418.8L352.8 419.8L350.55 420.75L348.15 421.6L345.7 422.45L343.15 423.25L340.5 424L337.75 424.7L334.9 425.35L331.95 425.95L328.9 426.55L325.75 427.05L322.5 427.55L319.75 428L317 428.55L314.25 429.2L311.6 429.95L308.95 430.8L306.4 431.7L303.85 432.75L301.35 433.85L298.9 435.05L296.5 436.3L294.2 437.65L291.9 439.1L289.65 440.6L287.5 442.2L285.35 443.85L283.3 445.6L281.35 447.4L279.4 449.25L277.55 451.2L275.75 453.2L274.05 455.25L272.4 457.35L270.8 459.5L269.3 461.75L267.9 464L266.55 466.35L265.25 468.7L264.1 471.15L263 473.6L262 476.1L261.05 478.65L260.25 481.25L259.5 483.9L258.85 486.55L258.3 489.25L257.8 491.95L257.45 494.7L257.2 497.5L257.05 500.25L257 503.1L257 566.75L256.9 567.65L256.85 568.05L256.8 568.5L256.6 569.3L256.15 570.5L256 570.85L255.8 571.25L255.2 572.3L254.95 572.65L254.45 573.25L254.15 573.6L253.3 574.45L252.95 574.7L252.65 574.95L252.3 575.2L251.25 575.8L250.85 576L250.5 576.15L249.3 576.6L248.5 576.8L248.05 576.85L247.65 576.9L246.75 577L192.55 577L192.1 576.95L191.7 576.9L191.25 576.85L190.85 576.8L190.05 576.6L188.45 576L187.05 575.2L186.35 574.7L186.05 574.45L185.45 573.85L185.15 573.6L184.9 573.25L184.4 572.65L184.15 572.3L183.95 571.95L183.7 571.6L183.5 571.25L183.35 570.85L183.15 570.5L183 570.1L182.9 569.7L182.75 569.3L182.55 568.5L182.45 568.05L182.4 567.65L182.35 567.2L182.35 383.8L140.75 412.5L139.65 413.2L138.55 413.95L137.45 414.65L136.35 415.3L135.25 416L134.1 416.65L132.95 417.25L131.8 417.9L130.65 418.5L129.5 419.05L128.3 419.6L127.15 420.15L125.95 420.7L124.75 421.2L123.55 421.65L122.35 422.15L121.15 422.6L119.95 423L118.7 423.45L117.5 423.8L116.25 424.2L113.75 424.9L110 425.8L108.7 426.05L107.45 426.3L104.85 426.7L103.6 426.9L99.7 427.35L97.1 427.55L95.8 427.6L94.45 427.65L93.15 427.7L91.8 427.7L88.75 427.65L85.75 427.45L82.7 427.2L79.75 426.85L76.8 426.35L73.85 425.8L71 425.1L68.1 424.35L65.3 423.45L62.5 422.5L59.8 421.45L57.1 420.3L54.45 419.1L51.85 417.75L49.3 416.35L46.75 414.85L44.3 413.3L41.95 411.65L39.6 409.9L37.3 408.1L35.1 406.25L32.95 404.3L30.85 402.25L28.85 400.15L26.9 398L25 395.75L23.2 393.45L21.5 391.1L19.85 388.7L18.25 386.2L16.8 383.65L15.4 381.1L14.05 378.45L12.85 375.75L11.7 372.95L10.65 370.15L9.7 367.3L8.85 364.4L8.1 361.5L7.45 358.5L2.6 334.4L2.45 333.45L2.25 332.5L2.1 331.6L1.95 330.65L1.85 329.7L1.7 328.75L1.6 327.75L1.4 325.85L1.35 324.9L1.25 323.95L1.2 322.95L1.15 322L1.15 321.05L1.1 320.05L1.1 318.15L1.15 317.15L1.15 316.2L1.2 315.2L1.25 314.25L1.3 313.25L1.35 312.3L1.45 311.3L1.65 309.4L1.75 308.4L1.85 307.45L2 306.45L2.15 305.5L2.3 304.5L2.5 303.55L2.65 302.55L2.85 301.6L3.05 300.6L3.45 298.7L3.7 297.7L4.2 295.8L4.05 295.35L3.75 294.55L3.6 294.1L3.45 293.7L3.35 293.25L3.05 292.45L2.95 292L2.85 291.6L2.7 291.15L2.6 290.75L2.4 289.85L2.3 289.45L2.1 288.55L2 288.15L1.8 287.25L1.75 286.8L1.65 286.4L1.55 285.5L1.45 285.05L1.4 284.6L1.35 284.2L1.15 282.4L1.15 281.95L1.1 281.5L1.1 281.05L1.05 280.6L1.05 280.15L1 279.7L1 246.35L5.8 235.8L10.6 225.55L15.5 215.55L20.35 205.8L25.25 196.35L30.2 187.15L34.15 180.05L32.7 184.05L31.1 188.95L29.6 193.9L28.25 198.95L27.05 204L25.95 209.15L25 214.35L24.2 219.55L23.55 224.85L23 230.15L22.65 235.5L22.4 240.9L22.35 246.35L22.35 255.5L23.9 254.4L25.45 253.35L26.95 252.3L29.85 250.2L31.2 249.1L32.55 248.05L33.85 247L36.35 244.9L38.65 242.8L39.75 241.8L41.85 239.7L42.8 238.65L43.75 237.65L44.65 236.6L45.5 235.55L46.35 234.55L47.1 233.5L47.85 232.5L48.55 231.45L49.2 230.45L49.85 229.4L50.95 227.4L51.45 226.35L52.35 224.35L52.7 223.35L53.05 222.3L53.35 221.3L53.85 219.3L54.15 217.3L54.25 216.3L54.3 215.3L54.35 214.35L75.65 214.35L75.6 216.7L75.5 219.05L75.3 221.35L75 223.65L74.6 225.9L74.15 228.15L73.65 230.35L73 232.55L72.35 234.7L71.6 236.8L70.75 238.9L69.85 240.95L68.9 242.95L67.85 244.9L66.75 246.85L65.6 248.75L63.1 252.35L61.75 254.1L60.35 255.8L58.85 257.45L57.35 259.05L55.8 260.6L54.15 262.1L52.5 263.55L49 266.25L47.2 267.5L45.3 268.7L43.4 269.8L41.45 270.9L39.5 271.9L37.45 272.85L35.4 273.7L33.3 274.5L31.15 275.2L29 275.85L26.8 276.45L24.6 276.95L22.35 277.35L22.35 279.6L22.45 280.9L22.5 281.5L22.7 282.8L22.9 284L23.05 284.65L23.5 286.45L24.1 288.25L24.35 288.8L24.55 289.4L24.8 289.95L25.1 290.55L25.35 291.1L26.25 292.75L26.55 293.25L26.9 293.8L27.25 294.3L27.6 294.85L28 295.35L28.35 295.85L28.75 296.3L29.15 296.8L29.6 297.3L30 297.75L31.35 299.1L31.85 299.5L32.35 299.95L32.8 300.35L33.35 300.75L33.85 301.15L34.35 301.5L34.9 301.85L35.4 302.2L36.5 302.9L38.15 303.8L38.75 304.05L39.3 304.3L39.9 304.55L40.45 304.8L42.25 305.4L42.8 305.6L43.45 305.75L44.65 306.05L45.25 306.15L45.85 306.3L46.5 306.4L47.1 306.45L47.7 306.55L48.35 306.6L48.95 306.65L49.6 306.65L50.2 306.7L51.5 306.7L52.1 306.65L52.75 306.6L53.35 306.55L54 306.5L54.65 306.4L55.25 306.3L55.9 306.2L56.5 306.1L96.5 297.65L98.9 297.15L100.1 296.95L101.25 296.7L103.65 296.3L104.85 296.05L107.25 295.65L108.45 295.5L110.85 295.1L114.45 294.65L115.7 294.5L119.3 294.05L120.5 293.95L121.7 293.8L124.1 293.6L125.35 293.5L128.95 293.2L130.15 293.15L131.35 293.05L132.6 293L137.4 292.8L138.65 292.75L141.05 292.65L143.45 292.65L144.7 292.6L146.2 290.8L146.4 290.45L146.65 290.15L146.85 289.8L147.05 289.5L147.65 288.45L147.85 288.15L148.05 287.8L148.35 287.1L148.55 286.75L148.7 286.35L149 285.65L149.1 285.3L149.25 284.9L149.35 284.55L149.5 284.15L149.6 283.8L149.7 283.4L149.8 283.05L149.85 282.65L149.95 282.25L150 281.9L150.1 281.5L150.25 280.3L150.25 279.9L150.3 279.55L150.3 279.15L150.35 278.75L150.35 267.65L150.3 266.8L150.25 265.9L150.05 264.2L149.9 263.35L149.5 261.75L149.25 260.95L148.65 259.35L147.95 257.85L147.15 256.45L146.7 255.75L146.2 255.05L145.7 254.4L145.2 253.8L144.65 253.2L144.05 252.6L143.5 252L142.85 251.45L142.25 250.95L141.6 250.45L140.9 250L140.25 249.55L139.5 249.1L138.8 248.7L137.3 248L136.5 247.7L135.75 247.4L134.95 247.15L134.1 246.95L133.3 246.75L132.45 246.6L130.75 246.4L129.9 246.35L129 246.35L127.25 246.3L125.5 246.2L123.8 246L122.1 245.75L120.4 245.45L118.75 245.1L117.15 244.65L115.5 244.15L113.95 243.6L112.4 242.95L110.9 242.3L109.4 241.55L107.95 240.75L106.55 239.95L105.15 239.05L103.8 238.1L102.5 237.1L101.25 236.05L100 234.95L97.7 232.65L96.6 231.4L95.55 230.15L94.55 228.85L93.65 227.5L92.75 226.1L91.9 224.7L91.1 223.25L90.35 221.75L89.7 220.25L89.05 218.7L88.5 217.15L88 215.55L87.55 213.9L87.2 212.25L86.9 210.6L86.65 208.9L86.45 207.15L86.35 205.4L86.35 191.25L86.45 189.5L86.65 187.8L86.9 186.1L87.2 184.4L87.55 182.75L88 181.15L88.5 179.55L89.05 177.95L89.7 176.4L90.35 174.9L91.1 173.4L91.9 171.95L92.75 170.55L93.65 169.15L94.55 167.8L95.55 166.5L96.6 165.25L97.7 164L100 161.7L101.25 160.6L102.5 159.55L103.8 158.6L105.15 157.65L106.55 156.75L107.95 155.9L109.4 155.1L110.9 154.35L112.4 153.7L113.95 153.05L115.5 152.5L117.15 152L118.75 151.6L120.4 151.2L122.1 150.9L123.8 150.65L125.5 150.45L127.25 150.35L182.35 150.35L182.35 171.65L129 171.65L128.1 171.7L126.4 171.8L124.7 172.1L123.9 172.3L123.05 172.5L122.25 172.75L121.5 173.05L120.7 173.35L119.2 174.05L118.5 174.45L117.75 174.85L117.1 175.3L116.4 175.8L115.1 176.8L113.9 177.9L112.8 179.1L111.8 180.4L111.3 181.1L110.85 181.75L110.45 182.5L110.05 183.2L109.35 184.7L109.05 185.5L108.75 186.25L108.5 187.05L108.3 187.9L108.1 188.7L107.8 190.4L107.7 192.1L107.65 193L107.65 203.65L107.7 204.55L107.8 206.25L108.1 207.95L108.3 208.8L108.5 209.6L108.75 210.4L109.05 211.2L109.35 211.95L110.05 213.45L110.45 214.2L110.85 214.9L111.3 215.6L112.8 217.55L113.9 218.75L115.1 219.85L115.75 220.4L116.4 220.9L117.1 221.35L117.75 221.8L118.5 222.2L119.2 222.6L119.95 223L120.7 223.3L121.5 223.65L122.25 223.9L123.05 224.15L123.9 224.4L124.7 224.55L126.4 224.85L127.25 224.95L128.1 225L129 225L130.75 225.05L132.5 225.15L134.2 225.3L135.9 225.55L137.6 225.85L139.25 226.25L140.85 226.7L142.45 227.2L144.05 227.75L145.6 228.35L148.6 229.75L150.05 230.55L151.45 231.4L152.85 232.3L154.2 233.25L155.5 234.25L156.75 235.3L157.95 236.35L159.15 237.5L160.3 238.7L161.4 239.9L162.45 241.2L163.4 242.5L164.35 243.85L165.25 245.2L166.1 246.6L166.9 248.05L167.65 249.55L168.3 251.05L168.95 252.6L169.5 254.2L170 255.8L170.8 259.1L171.1 260.75L171.35 262.45L171.5 264.15L171.65 265.9L171.65 279.9L171.6 280.3L171.6 280.7L171.55 281.1L171.55 281.5L171.5 281.85L171.35 283.05L171.3 283.4L171.15 284.6L171.05 284.95L170.95 285.75L170.85 286.1L170.8 286.5L170.7 286.9L170.6 287.25L170.5 287.65L170.4 288L170.35 288.4L170.25 288.75L170.1 289.15L170 289.5L169.9 289.9L169.8 290.25L169.7 290.65L169.55 291L169.45 291.35L169.3 291.75L169.2 292.1L169.05 292.45L168.95 292.85L168.65 293.55L170.35 293.7L172.1 293.9L173.8 294.05L178.9 294.65L180.6 294.9L182.3 295.1L184 295.35L185.7 295.65L187.4 295.9L189.1 296.2L190.8 296.45L192.5 296.8L194.2 297.1L195.85 297.4L199.25 298.1L200.9 298.5L202.6 298.85L204.25 299.25L205.95 299.65L209.25 300.45L210.95 300.9L215.9 302.25L222.5 304.25L224.15 304.8L225.75 305.3L227.4 305.85L229.05 306.45L230.65 307L232.3 307.6L235.5 308.8L235.4 307.1L235.25 305.4L235.05 303.75L234.75 302.1L234.4 300.5L234 298.9L233.5 297.3L233 295.75L232.4 294.25L231.75 292.75L231.05 291.3L230.3 289.85L229.5 288.45L228.65 287.1L227.75 285.75L226.8 284.45L225.8 283.2L224.8 282L223.7 280.8L221.4 278.6L220.2 277.55L218.95 276.55L216.35 274.65L215 273.8L213.6 273L212.15 272.25L210.7 271.55L209.25 270.9L207.7 270.3L206.15 269.75L204.6 269.25L203 268.85L201.4 268.5L199.75 268.2L198.1 267.95L196.4 267.8L194.7 267.7L193 267.65L182.35 267.65L182.35 246.35L193 246.35L195.65 246.4L198.25 246.55L200.8 246.8L203.35 247.15L205.9 247.65L208.35 248.2L210.8 248.85L213.2 249.6L215.55 250.45L217.9 251.35L220.15 252.4L222.4 253.5L224.55 254.65L226.7 255.95L228.75 257.3L230.75 258.7L232.75 260.2L234.65 261.75L236.45 263.4L238.25 265.1L239.95 266.85L241.55 268.7L243.15 270.6L244.65 272.55L246.05 274.55L247.4 276.65L248.65 278.75L249.85 280.95L250.95 283.15L251.95 285.45L252.9 287.75L253.75 290.1L254.5 292.55L255.15 294.95L255.7 297.45L256.15 299.95L256.5 302.5L256.8 305.1L256.95 307.7L257 310.35L257 318.1L257.05 318.1L257.15 318.15L257.2 318.2L257.5 318.35L257.6 318.35L257.65 318.4L257.7 318.4L260.05 319.6L262.45 320.7L264.8 321.8L267.2 322.9L269.6 323.95L272.05 324.95L274.45 325.95L279.35 327.85L281.8 328.75L284.3 329.65L286.8 330.5L289.25 331.3L291.75 332.1L294.3 332.85L296.8 333.6L299.35 334.3L301.85 335L304.4 335.6L306.95 336.25L309.55 336.85L312.1 337.4L314.65 337.9L319.85 338.9L322.4 339.35L325 339.75L332.8 340.8L335.4 341.1L338.05 341.35L340.65 341.6L343.25 341.8L345.9 341.95L348.5 342.1L351.15 342.2L356.35 342.3L359 342.35L363.65 342.35L363.65 341.45L363.6 341.05L363.5 340.6L363.45 340.2L363.35 339.75L363.25 339.35L363.1 338.95L363 338.55L362.8 338.2L362.65 337.8L362.45 337.45L362.25 337.05L361.85 336.35L361.6 336.05L361.35 335.7L361.1 335.4L360.8 335.1L360.55 334.8L360.25 334.5L359.95 334.25L359.6 333.95L359.3 333.75L358.6 333.25L357.55 332.65L356.35 332.2L354.75 331.8L353.85 331.7L353.45 331.65L319.7 331.65L317.1 331.45L315.8 331.25L313.3 330.75L310.9 330.05L309.7 329.6L308.55 329.15L307.4 328.65L306.3 328.1L305.2 327.5L303.1 326.2L302.1 325.5L301.15 324.75L299.25 323.15L298.4 322.3L296.7 320.5L295.95 319.55L294.45 317.55L293.15 315.45L292.55 314.35L292 313.25L291.5 312.1L291.05 310.95L290.25 308.55L289.95 307.35L289.65 306.1L289.4 304.85L289.25 303.55L289.1 302.3L289 301L289 257L310.35 257L310.35 300.55L310.4 300.95L310.45 301.4L310.65 302.2L310.75 302.65L310.85 303.05L311 303.45L311.15 303.8L311.35 304.2L311.5 304.55L311.7 304.9L311.95 305.3L312.15 305.6L312.65 306.3L313.15 306.9L313.75 307.5L314.35 308L315.4 308.75L316.1 309.15L316.45 309.3L316.85 309.5L317.65 309.8L319.25 310.2L319.7 310.25L320.1 310.3L320.55 310.3L321 310.35L354.3 310.35L356.8 310.55L358.05 310.75L359.25 310.95L360.45 311.2L361.65 311.55L362.8 311.9L365.1 312.7L367.3 313.7L369.4 314.9L371.4 316.2L372.35 316.9L373.3 317.65L374.2 318.45L375.05 319.25L375.9 320.1L376.7 320.95L377.5 321.85L378.25 322.8L378.95 323.75L379.65 324.75L380.25 325.75L381.45 327.85L382.45 330.05L382.9 331.2L383.3 332.35L383.65 333.5L384.25 335.9L384.45 337.15L384.65 338.35L384.75 339.6L384.85 340.9L386.2 340.5L387.6 340.1L388.9 339.65L390.25 339.15L391.5 338.6L392.8 338L394.05 337.4L396.45 336L397.65 335.25L398.8 334.5L399.9 333.7L401 332.85L402.1 331.95L403.1 331.05L404.1 330.1L405.1 329.1L406.05 328.1L406.95 327.1L407.85 326L408.65 324.9L409.5 323.8L410.25 322.65L411 321.45L411.7 320.25L412.35 319.05L412.95 317.8L413.55 316.5L414.55 313.9L415 312.55L415.8 309.85L416.1 308.45L416.35 307.05L416.6 305.6L416.9 302.7L416.95 301.25L417 299.75L416.95 298L416.85 296.3L416.7 294.6L416.45 292.9L416.15 291.25L415.75 289.6L415.35 288L414.85 286.4L414.3 284.85L413.65 283.3L413 281.8L412.3 280.3L411.5 278.9L410.65 277.45L408.85 274.75L407.85 273.45L406.8 272.2L405.75 271L404.6 269.8L403.45 268.65L402.25 267.6L401 266.55L399.7 265.55L398.35 264.6L397 263.7L395.6 262.85L394.15 262.05L392.7 261.3L391.2 260.65L389.65 260L388.1 259.45L386.5 258.95L384.9 258.5L383.25 258.1L381.6 257.8L379.95 257.55L378.25 257.35L376.5 257.25L374.75 257.2L352.9 257L353.1 235.65L374.95 235.85L377.3 235.9L379.6 236.05L381.9 236.3L384.2 236.6L386.45 237L388.65 237.45L390.85 238L393 238.6L395.15 239.3L397.25 240.05L399.3 240.9L401.35 241.8L403.3 242.8L405.3 243.85L407.2 244.95L409.05 246.1L410.9 247.35L412.65 248.65L414.4 250L416.1 251.4L417.7 252.85L419.3 254.35L420.85 255.95L422.3 257.55L423.75 259.25L425.1 260.95L426.45 262.7L427.7 264.55L428.85 266.4L430 268.3L431.05 270.2L432.05 272.2L432.95 274.2L433.85 276.25L435.35 280.45L436 282.6L436.55 284.8L437.05 287L437.45 289.25L491.65 289L492.65 289L493.65 288.95L495.55 288.75L496.45 288.65L497.35 288.5L498.25 288.3L499.1 288.1L499.9 287.85L500.7 287.55L501.5 287.3L503 286.6L503.7 286.25L504.35 285.8L505.05 285.4L505.65 284.95L506.85 283.95L507.95 282.85L508.95 281.65L509.4 281.05L509.8 280.35L510.2 279.7L510.6 279L510.95 278.25L511.25 277.5L511.85 275.9L512.1 275.1L512.3 274.25L512.5 273.35L512.65 272.5L512.95 269.65L513 268.65L513 267.65L512.95 265.9L512.85 264.15L512.7 262.45L512.45 260.75L512.15 259.1L511.75 257.45L511.3 255.8L510.8 254.2L510.25 252.6L509.65 251.05L508.25 248.05L507.45 246.6L506.6 245.2L505.7 243.85L504.75 242.5L503.75 241.2L502.7 239.9L500.5 237.5L499.3 236.35L498.1 235.3L496.8 234.25L495.5 233.25L494.15 232.3L492.8 231.4L491.35 230.55L489.9 229.75L488.45 229.05L486.9 228.35L485.4 227.75L483.8 227.2L482.2 226.7L480.55 226.25L478.9 225.85L477.25 225.55L475.55 225.3L473.8 225.15L472.1 225.05L467.7 224.95L465.1 224.8L462.5 224.5L459.95 224.15L457.45 223.7L454.95 223.15L452.5 222.5L450.1 221.75L447.75 220.9L445.45 219.95L443.15 218.95L440.95 217.85L438.75 216.65L436.65 215.4L434.55 214.05L432.55 212.65L430.6 211.15L428.7 209.6L426.85 207.95L425.1 206.25L423.4 204.45L421.75 202.65L420.2 200.75L418.7 198.75L417.25 196.75L415.95 194.7L414.65 192.55L413.5 190.4L412.4 188.15L411.35 185.9L410.45 183.55L409.6 181.2L408.85 178.8L408.2 176.35L407.65 173.9L407.15 171.35L406.8 168.8L406.55 166.25L406.4 163.65L406.35 161L406.35 118.35L427.65 118.35L427.65 161L427.7 162.75L427.8 164.5L428.2 167.9L428.55 169.6L428.9 171.25L429.35 172.85L429.85 174.45L430.4 176.05L431 177.6L431.7 179.1L432.45 180.6L433.2 182.05L434.05 183.45L434.95 184.85L435.9 186.2L436.9 187.5L437.95 188.75L440.15 191.15L441.35 192.3L442.55 193.4L443.85 194.45L445.15 195.4L446.5 196.35L447.85 197.25L449.3 198.1L450.75 198.9L452.2 199.65L455.3 200.95L456.85 201.5L458.45 202L461.75 202.8L463.4 203.1L465.1 203.35L466.85 203.5L468.55 203.65L470.35 203.65L471.4 203.7L472.5 203.7L473.55 203.75L474.65 203.8L475.7 203.9L476.8 204L477.85 204.1L481 204.55L482 204.75L483.05 204.95L484.05 205.15L485.1 205.4L487.1 205.9L490.1 206.8L492 207.5L493 207.85L493.95 208.25L494.9 208.6L495.85 209L496.75 209.45L497.7 209.9L498.6 210.3L499.5 210.8L500.4 211.25L503.1 212.75L506.5 214.95L507.3 215.55L508.15 216.15L508.95 216.75L508.1 212.7L507.15 208.7L506.1 204.7L505 200.75L503.85 196.8L502.6 192.95L501.25 189.05L499.85 185.25L498.35 181.45L496.8 177.75L495.15 174L493.45 170.35L491.7 166.7L489.85 163.15L487.95 159.6L485.95 156.1L483.9 152.65L481.8 149.2L479.65 145.85L477.4 142.5L475.1 139.25L472.7 136L470.3 132.85L467.8 129.7L465.25 126.65L462.65 123.6L459.95 120.6L457.25 117.7L454.45 114.85L451.6 112L448.75 109.25L445.8 106.55L442.8 103.9L439.75 101.3L436.65 98.8L433.5 96.3L430.3 93.9L427.05 91.55L423.75 89.3L420.4 87.05L418.45 87.35L416.55 87.75L414.65 88.2L412.8 88.7L410.95 89.25L409.15 89.9L407.4 90.6L405.65 91.35L403.95 92.15L402.25 93L400.6 93.95L399 94.9L397.45 95.95L395.9 97.05L394.4 98.2L392.95 99.4L391.55 100.6L390.2 101.9L388.9 103.25L387.65 104.6L386.4 106.05L385.25 107.5L384.15 109L383.05 110.55L382.05 112.15L381.1 113.75L380.2 115.4L379.4 117.1L378.6 118.85L377.9 120.6L377.2 122.4L376.65 124.2L376.1 126.05L375.65 127.95L375.25 129.85L374.9 131.75L374.65 133.7L374.5 135.65L374.35 137.65L374.35 161L353 161L353 139.65L353.05 137.5L353.1 135.3L353.5 131L353.75 128.9L354.1 126.8L354.5 124.7L354.95 122.65L355.45 120.65L356.05 118.6L356.65 116.6L357.3 114.65L358.05 112.7L358.8 110.8L359.65 108.9L361.45 105.2L362.45 103.4L363.45 101.65L364.55 99.9L365.65 98.2L366.8 96.5L368.05 94.85L369.3 93.25L370.6 91.65L371.9 90.15L374.7 87.15L376.15 85.75L377.65 84.35L379.2 83L380.75 81.7L382.35 80.45L385.65 78.05L387.35 76.9L390.85 74.8L392.65 73.8L394.5 72.85L388.65 70.3L384.75 68.7L382.75 67.9L378.75 66.4L374.75 65L372.7 64.3L370.65 63.65L368.65 63.05L366.55 62.4L364.5 61.85L362.45 61.25L358.25 60.15L356.15 59.65L354.05 59.2L351.95 58.7L349.8 58.3L347.7 57.85L345.55 57.45L339.1 56.4L336.9 56.1L334.75 55.85L332.55 55.55L325.95 54.95L323.75 54.8L321.5 54.65L319.3 54.55L317.05 54.45L314.8 54.4L312.6 54.35L250.7 54.35L250.5 54.65L250.3 54.9L249.5 56.1L249.35 56.35L249.15 56.65L249 56.95L248.8 57.2L248.5 57.8L248.35 58.05L248.2 58.35L248.05 58.6L247.95 58.9L247.8 59.15L247.7 59.45L247.55 59.7L247.45 60L247.25 60.5L247.15 60.8L246.95 61.3L246.9 61.55L246.8 61.8L246.75 62.1L246.65 62.35L246.45 63.35L246.45 63.55L246.35 64.05L246.35 76.5L246.4 77.35L246.5 78.2L246.65 79.05L246.8 79.85L247.05 80.65L247.25 81.45L247.85 83.05L248.2 83.8L249 85.3L249.9 86.7L250.9 88.1L251.45 88.75L252.05 89.4L252.65 90L253.3 90.6L254.6 91.7L255.3 92.25L256 92.75L256.75 93.25L258.25 94.15L259.05 94.55L260.65 95.25L261.5 95.6L262.35 95.85L263.2 96.15L264.05 96.35L264.95 96.55L266.75 96.85L267.65 96.95L268.55 97L273 97L274.95 97.05L276.95 97.15L278.85 97.35L280.75 97.65L282.65 98L284.5 98.4L286.35 98.9L288.15 99.45L289.9 100.1L291.65 100.8L293.35 101.55L295.05 102.35L296.65 103.25L298.25 104.2L299.8 105.2L301.35 106.25L302.8 107.4L304.2 108.55L305.6 109.8L306.9 111.05L308.2 112.4L309.45 113.8L310.6 115.2L311.7 116.65L312.8 118.2L313.8 119.75L314.75 121.35L315.65 122.95L316.45 124.65L317.2 126.35L317.9 128.05L318.55 129.85L319.1 131.65L319.6 133.5L320 135.35L320.35 137.2L320.65 139.15L320.85 141.05L320.95 143L321 145L320.95 147L320.85 148.95L320.65 150.85L320.35 152.8L320 154.65L319.6 156.5L319.1 158.35L318.55 160.15L317.9 161.95L317.2 163.65L316.45 165.35L315.65 167.05L314.75 168.65L313.8 170.25L312.8 171.8L311.7 173.35L310.6 174.8L309.45 176.2L308.2 177.6L306.9 178.95L305.6 180.2L304.2 181.45L302.8 182.6L301.35 183.75L299.8 184.8L298.25 185.8L296.65 186.75L295.05 187.65L293.35 188.45L291.65 189.2L289.9 189.9L288.15 190.55L286.35 191.1L284.5 191.6L282.65 192L280.75 192.35L278.85 192.65L276.95 192.85L274.95 192.95L273 193L214.35 193L214.35 171.65L274.1 171.65L275.2 171.6L277.3 171.3L279.4 170.9L281.4 170.3L282.4 169.95L284.3 169.15L285.25 168.7L286.15 168.2L287.05 167.65L287.9 167.1L288.75 166.5L289.55 165.9L290.35 165.25L291.85 163.85L293.25 162.35L293.9 161.55L294.5 160.75L295.1 159.9L295.65 159.05L296.2 158.15L296.7 157.25L297.15 156.3L297.95 154.4L298.3 153.4L298.9 151.4L299.3 149.3L299.45 148.25L299.55 147.2L299.65 146.1L299.65 143.9L299.55 142.8L299.45 141.75L299.3 140.7L298.9 138.6L298.3 136.6L297.95 135.6L297.15 133.7L296.7 132.75L296.2 131.85L295.65 130.95L295.1 130.1L294.5 129.25L293.9 128.45L293.25 127.65L291.85 126.15L290.35 124.75L289.55 124.1L288.75 123.5L287.9 122.9L287.05 122.35L286.15 121.8L285.25 121.3L284.3 120.85L282.4 120.05L281.4 119.7L279.4 119.1L277.3 118.7L275.2 118.4L274.1 118.35L269.45 118.35L267.65 118.3L265.9 118.2L264.1 118L262.35 117.75L260.65 117.45L258.95 117.05L257.25 116.6L255.6 116.1L253.95 115.55L252.35 114.9L250.8 114.25L249.25 113.5L247.7 112.7L246.25 111.85L244.8 110.95L243.4 110L240.7 107.9L239.45 106.8L238.2 105.65L237 104.5L235.85 103.25L234.75 102L233.7 100.7L232.7 99.35L231.75 97.95L230.9 96.55L230.05 95.1L229.25 93.6L228.55 92.1L227.9 90.55L227.3 89L226.3 85.8L225.9 84.15L225.6 82.5L225.35 80.8L225.15 79.1L225.05 77.4L225 75.65L225 63.95L225.05 63.65L225.05 63.15L225.1 62.85L225.1 62.6L225.15 62.35L225.15 62.05L225.25 61.55L225.25 61.25L225.35 60.75L225.4 60.45L225.5 59.95L225.55 59.65L225.65 59.15L225.7 58.85L225.75 58.6L225.85 58.35L225.9 58.05L225.95 57.8L226.05 57.55L226.1 57.25L226.15 57L226.25 56.75L226.3 56.45L226.4 56.2L226.45 55.95L226.55 55.65L226.65 55.4L226.7 55.15L226.8 54.85L227 54.35L210.5 54.35L208.6 54.4L206.7 54.5L204.8 54.55L202.9 54.7L201 54.8L197.2 55.1L195.35 55.3L193.45 55.5L189.75 55.9L187.9 56.15L182.35 57.05L180.55 57.35L178.7 57.7L175.1 58.4L173.25 58.8L171.45 59.2L169.7 59.65L166.1 60.55L164.35 61L162.55 61.5L160.8 62L159.05 62.55L157.3 63.05L155.55 63.65L153.8 64.2L150.4 65.4L148.65 66L143.55 67.95L141.9 68.65L142.3 69.4L142.75 70.15L144.25 72.4L145.35 73.8L145.9 74.45L146.5 75.15L148.4 77.05L149.1 77.65L149.75 78.25L151.15 79.35L151.9 79.9L154.15 81.4L155.75 82.3L156.55 82.7L157.4 83.1L158.2 83.5L159.05 83.85L159.9 84.15L160.75 84.5L161.65 84.75L162.5 85.05L163.4 85.25L164.3 85.5L165.2 85.7L166.1 85.85L167.05 86L168.85 86.2L169.8 86.3L170.75 86.3L171.65 86.35L182.35 86.35L182.3 107.7L171.65 107.65L170.1 107.65L168.55 107.6L165.45 107.3L163.9 107.1L162.4 106.85L160.85 106.6L159.35 106.25L157.9 105.9L156.4 105.5L154.95 105.05L153.5 104.55L152.1 104.05L150.7 103.5L149.3 102.9L147.95 102.25L146.55 101.6L145.25 100.9L143.95 100.15L142.65 99.35L141.4 98.55L138.9 96.85L137.7 95.95L135.4 94.05L133.2 92.05L132.15 91L131.1 89.9L130.1 88.8L128.2 86.5L127.3 85.3L125.6 82.9L124.8 81.6L124 80.35L123.3 79.05L122.6 77.7L118.15 80.2L113.8 82.85L109.5 85.55L105.3 88.4L101.15 91.35L97.1 94.4L93.15 97.55L89.25 100.8L86.85 102.95L91.55 97.55L96.85 91.8L102.2 86.35L107.55 81.15L112.9 76.2L118.3 71.55L123.75 67.15L129.2 63L134.65 59.15L140.2 55.55L145.75 52.2L151.3 49.15L156.9 46.35L162.5 43.8L168.15 41.55L173.85 39.55L179.55 37.8L185.25 36.35L191 35.15L196.8 34.2L202.6 33.55L208.45 33.15L214.35 33L313.5 33L316.6 33.1L319.75 33.2ZM235.65 555.65L235.65 503.1L235.8 497.75L236.25 492.5L236.95 487.3L237.95 482.15L239.2 477.15L240.75 472.2L242.5 467.4L244.55 462.7L246.8 458.1L249.25 453.65L251.95 449.35L254.9 445.15L258 441.15L261.35 437.3L264.85 433.65L268.6 430.2L272.45 426.9L276.5 423.8L280.75 420.9L285.1 418.25L289.65 415.85L294.3 413.65L299.1 411.65L304.05 409.95L309.05 408.5L314.25 407.35L319.5 406.45L323.05 405.9L326.45 405.35L329.65 404.7L332.7 404.05L335.55 403.35L338.2 402.6L340.7 401.8L343.05 400.9L345.25 399.95L347.3 398.9L349.2 397.8L350.95 396.6L352.55 395.3L354 393.9L355.35 392.35L356.6 390.75L357.7 389L358.7 387.1L359.6 385.1L360.4 383L361.05 380.7L361.65 378.25L362.15 375.7L362.6 372.95L362.95 370L363.2 366.95L363.4 363.65L354.75 363.65L346.25 363.35L337.75 362.75L333.5 362.35L329.3 361.85L325.05 361.3L320.85 360.7L316.65 360L312.5 359.25L308.3 358.4L304.15 357.5L300 356.5L295.9 355.45L291.75 354.35L287.7 353.15L283.6 351.9L279.55 350.55L275.55 349.15L271.55 347.7L267.6 346.2L263.65 344.6L259.75 342.9L255.85 341.15L252 339.35L248.2 337.5L246.6 336.7L241.8 334.45L240.2 333.75L238.6 333L236.95 332.3L235.35 331.65L233.7 330.95L232.1 330.3L230.45 329.65L228.8 329.05L227.15 328.4L223.85 327.2L222.2 326.65L220.5 326.05L218.85 325.5L217.15 325L215.5 324.45L213.8 323.95L212.15 323.45L208.75 322.45L203.65 321.1L203.65 555.65L235.65 555.65ZM141.6 313.9L135.3 314.1L129 314.5L125.9 314.8L122.75 315.1L119.6 315.45L116.5 315.85L113.35 316.3L110.25 316.8L107.1 317.3L104 317.9L100.9 318.55L60.9 326.95L59.35 327.25L57.8 327.5L56.25 327.7L54.7 327.85L53.15 327.95L51.6 328L48.5 328L46.95 327.9L45.45 327.75L43.9 327.55L40.9 327.05L39.4 326.7L36.4 325.9L34.95 325.45L32.05 324.35L30.65 323.75L29.25 323.1L27.85 322.4L25.15 320.9L23.8 320.05L22.5 319.2L22.5 319.6L22.55 320.05L22.55 321.35L22.6 321.75L22.6 322.2L22.65 322.6L22.65 323.05L22.7 323.5L22.7 323.9L22.75 324.35L22.8 324.75L22.8 325.2L22.85 325.6L22.9 326.05L23 326.85L23.05 327.3L23.1 327.7L23.2 328.15L23.3 328.95L23.4 329.4L23.45 329.8L23.55 330.2L25.95 342.35L104.7 342.35L104.7 363.65L31.1 363.65L32.25 366.55L33.5 369.35L34.85 372.05L36.35 374.7L38 377.25L39.7 379.75L41.55 382.15L43.5 384.45L45.55 386.65L47.65 388.75L49.9 390.75L52.2 392.65L54.65 394.45L57.1 396.15L59.7 397.7L62.3 399.15L65.05 400.45L67.8 401.65L70.65 402.75L73.55 403.7L76.45 404.5L79.45 405.15L82.5 405.65L85.6 406.05L88.7 406.3L91.85 406.35L93.4 406.35L94.95 406.3L97.95 406.1L99.45 405.9L100.95 405.75L102.4 405.5L103.9 405.25L106.8 404.65L111.15 403.45L112.55 403L114 402.5L115.4 401.95L116.75 401.4L118.15 400.8L119.5 400.2L120.85 399.55L122.2 398.85L126.1 396.6L127.4 395.75L128.65 394.9L182.35 357.9L182.35 353L139.65 353L139.65 331.65L182.35 331.65L182.35 316.65L179.25 316.2L176.1 315.75L173 315.4L169.85 315.05L166.75 314.75L160.45 314.25L157.3 314.1L154.2 313.95L147.9 313.85L144.75 313.85L141.6 313.9Z" id="c3Osieq6o"></path><path d="M319.75 33.2L322.85 33.35L325.95 33.55L332.15 34.05L338.25 34.75L341.3 35.15L344.35 35.6L347.35 36.1L353.35 37.2L356.3 37.8L359.3 38.45L362.2 39.15L365.15 39.9L368.05 40.65L370.95 41.45L373.85 42.3L379.55 44.1L382.4 45.05L385.2 46.05L388.05 47.1L390.8 48.15L393.6 49.25L396.3 50.4L399.05 51.55L401.75 52.75L404.45 54L407.15 55.3L412.45 57.9L417.65 60.7L422.75 63.6L425.3 65.1L425.95 65.1L426.15 65.05L426.85 65.05L426.95 65L427.65 65L427.65 66.55L432.4 69.6L437.1 72.7L441.65 75.95L446.15 79.3L450.6 82.8L454.9 86.35L459.15 90.05L463.3 93.8L467.35 97.7L471.3 101.65L475.15 105.75L478.85 109.9L482.5 114.15L486.05 118.5L489.5 122.95L492.8 127.5L496 132.1L499.1 136.8L502.1 141.55L504.95 146.4L507.7 151.35L510.3 156.35L512.8 161.45L515.2 166.6L517.4 171.8L519.55 177.1L521.5 182.45L523.35 187.85L525.05 193.3L526.65 198.85L528.1 204.45L529.35 210.1L530.5 215.8L531.5 221.55L532.35 227.35L533.05 233.2L533.6 239.1L534 245L534.25 251L534.35 257L534.35 267.65L534.3 269.55L534.2 271.45L534.05 273.25L533.55 276.85L533.2 278.55L532.8 280.25L532.35 281.9L531.85 283.5L531.25 285.1L530.6 286.65L529.95 288.15L529.2 289.6L528.4 291L527.55 292.4L526.65 293.7L525.7 295L524.7 296.25L523.65 297.4L522.55 298.55L521.45 299.65L520.25 300.7L519 301.7L517.7 302.65L516.4 303.55L515 304.4L513.6 305.2L512.15 305.95L510.65 306.65L507.55 307.85L505.95 308.35L504.3 308.8L502.6 309.2L500.85 309.55L499.1 309.85L497.3 310.05L495.45 310.2L493.6 310.3L491.7 310.35L437.4 310.6L437.05 312.6L436.6 314.55L436.1 316.5L435.55 318.4L434.95 320.3L434.25 322.2L433.55 324.05L432.75 325.85L431.9 327.65L431 329.4L430.1 331.1L429.1 332.8L428.05 334.45L426.95 336.1L425.8 337.65L423.4 340.75L420.8 343.65L419.4 345.05L418 346.4L416.55 347.7L413.55 350.2L412 351.35L410.4 352.45L408.75 353.55L407.1 354.6L405.4 355.55L403.65 356.5L401.9 357.35L400.1 358.2L398.25 358.95L396.4 359.65L394.55 360.3L392.6 360.9L390.7 361.45L388.75 361.95L384.75 362.75L384.6 365.85L384.35 368.9L384.05 371.8L383.7 374.65L383.3 377.4L382.85 380.1L382.35 382.65L381.75 385.15L381.1 387.55L380.4 389.85L379.6 392.05L378.75 394.2L377.85 396.3L376.85 398.3L375.8 400.2L374.65 402.05L373.45 403.8L372.2 405.5L370.85 407.1L369.4 408.65L367.9 410.15L366.3 411.55L364.65 412.9L362.9 414.2L361.05 415.45L359.1 416.6L357.1 417.75L355 418.8L352.8 419.8L350.55 420.75L348.15 421.6L345.7 422.45L343.15 423.25L340.5 424L337.75 424.7L334.9 425.35L331.95 425.95L328.9 426.55L325.75 427.05L322.5 427.55L319.75 428L317 428.55L314.25 429.2L311.6 429.95L308.95 430.8L306.4 431.7L303.85 432.75L301.35 433.85L298.9 435.05L296.5 436.3L294.2 437.65L291.9 439.1L289.65 440.6L287.5 442.2L285.35 443.85L283.3 445.6L281.35 447.4L279.4 449.25L277.55 451.2L275.75 453.2L274.05 455.25L272.4 457.35L270.8 459.5L269.3 461.75L267.9 464L266.55 466.35L265.25 468.7L264.1 471.15L263 473.6L262 476.1L261.05 478.65L260.25 481.25L259.5 483.9L258.85 486.55L258.3 489.25L257.8 491.95L257.45 494.7L257.2 497.5L257.05 500.25L257 503.1L257 566.75L256.9 567.65L256.85 568.05L256.8 568.5L256.6 569.3L256.15 570.5L256 570.85L255.8 571.25L255.2 572.3L254.95 572.65L254.45 573.25L254.15 573.6L253.3 574.45L252.95 574.7L252.65 574.95L252.3 575.2L251.25 575.8L250.85 576L250.5 576.15L249.3 576.6L248.5 576.8L248.05 576.85L247.65 576.9L246.75 577L192.55 577L192.1 576.95L191.7 576.9L191.25 576.85L190.85 576.8L190.05 576.6L188.45 576L187.05 575.2L186.35 574.7L186.05 574.45L185.45 573.85L185.15 573.6L184.9 573.25L184.4 572.65L184.15 572.3L183.95 571.95L183.7 571.6L183.5 571.25L183.35 570.85L183.15 570.5L183 570.1L182.9 569.7L182.75 569.3L182.55 568.5L182.45 568.05L182.4 567.65L182.35 567.2L182.35 383.8L140.75 412.5L139.65 413.2L138.55 413.95L137.45 414.65L136.35 415.3L135.25 416L134.1 416.65L132.95 417.25L131.8 417.9L130.65 418.5L129.5 419.05L128.3 419.6L127.15 420.15L125.95 420.7L124.75 421.2L123.55 421.65L122.35 422.15L121.15 422.6L119.95 423L118.7 423.45L117.5 423.8L116.25 424.2L113.75 424.9L110 425.8L108.7 426.05L107.45 426.3L104.85 426.7L103.6 426.9L99.7 427.35L97.1 427.55L95.8 427.6L94.45 427.65L93.15 427.7L91.8 427.7L88.75 427.65L85.75 427.45L82.7 427.2L79.75 426.85L76.8 426.35L73.85 425.8L71 425.1L68.1 424.35L65.3 423.45L62.5 422.5L59.8 421.45L57.1 420.3L54.45 419.1L51.85 417.75L49.3 416.35L46.75 414.85L44.3 413.3L41.95 411.65L39.6 409.9L37.3 408.1L35.1 406.25L32.95 404.3L30.85 402.25L28.85 400.15L26.9 398L25 395.75L23.2 393.45L21.5 391.1L19.85 388.7L18.25 386.2L16.8 383.65L15.4 381.1L14.05 378.45L12.85 375.75L11.7 372.95L10.65 370.15L9.7 367.3L8.85 364.4L8.1 361.5L7.45 358.5L2.6 334.4L2.45 333.45L2.25 332.5L2.1 331.6L1.95 330.65L1.85 329.7L1.7 328.75L1.6 327.75L1.4 325.85L1.35 324.9L1.25 323.95L1.2 322.95L1.15 322L1.15 321.05L1.1 320.05L1.1 318.15L1.15 317.15L1.15 316.2L1.2 315.2L1.25 314.25L1.3 313.25L1.35 312.3L1.45 311.3L1.65 309.4L1.75 308.4L1.85 307.45L2 306.45L2.15 305.5L2.3 304.5L2.5 303.55L2.65 302.55L2.85 301.6L3.05 300.6L3.45 298.7L3.7 297.7L4.2 295.8L4.05 295.35L3.75 294.55L3.6 294.1L3.45 293.7L3.35 293.25L3.05 292.45L2.95 292L2.85 291.6L2.7 291.15L2.6 290.75L2.4 289.85L2.3 289.45L2.1 288.55L2 288.15L1.8 287.25L1.75 286.8L1.65 286.4L1.55 285.5L1.45 285.05L1.4 284.6L1.35 284.2L1.15 282.4L1.15 281.95L1.1 281.5L1.1 281.05L1.05 280.6L1.05 280.15L1 279.7L1 246.35L5.8 235.8L10.6 225.55L15.5 215.55L20.35 205.8L25.25 196.35L30.2 187.15L34.15 180.05L32.7 184.05L31.1 188.95L29.6 193.9L28.25 198.95L27.05 204L25.95 209.15L25 214.35L24.2 219.55L23.55 224.85L23 230.15L22.65 235.5L22.4 240.9L22.35 246.35L22.35 255.5L23.9 254.4L25.45 253.35L26.95 252.3L29.85 250.2L31.2 249.1L32.55 248.05L33.85 247L36.35 244.9L38.65 242.8L39.75 241.8L41.85 239.7L42.8 238.65L43.75 237.65L44.65 236.6L45.5 235.55L46.35 234.55L47.1 233.5L47.85 232.5L48.55 231.45L49.2 230.45L49.85 229.4L50.95 227.4L51.45 226.35L52.35 224.35L52.7 223.35L53.05 222.3L53.35 221.3L53.85 219.3L54.15 217.3L54.25 216.3L54.3 215.3L54.35 214.35L75.65 214.35L75.6 216.7L75.5 219.05L75.3 221.35L75 223.65L74.6 225.9L74.15 228.15L73.65 230.35L73 232.55L72.35 234.7L71.6 236.8L70.75 238.9L69.85 240.95L68.9 242.95L67.85 244.9L66.75 246.85L65.6 248.75L63.1 252.35L61.75 254.1L60.35 255.8L58.85 257.45L57.35 259.05L55.8 260.6L54.15 262.1L52.5 263.55L49 266.25L47.2 267.5L45.3 268.7L43.4 269.8L41.45 270.9L39.5 271.9L37.45 272.85L35.4 273.7L33.3 274.5L31.15 275.2L29 275.85L26.8 276.45L24.6 276.95L22.35 277.35L22.35 279.6L22.45 280.9L22.5 281.5L22.7 282.8L22.9 284L23.05 284.65L23.5 286.45L24.1 288.25L24.35 288.8L24.55 289.4L24.8 289.95L25.1 290.55L25.35 291.1L26.25 292.75L26.55 293.25L26.9 293.8L27.25 294.3L27.6 294.85L28 295.35L28.35 295.85L28.75 296.3L29.15 296.8L29.6 297.3L30 297.75L31.35 299.1L31.85 299.5L32.35 299.95L32.8 300.35L33.35 300.75L33.85 301.15L34.35 301.5L34.9 301.85L35.4 302.2L36.5 302.9L38.15 303.8L38.75 304.05L39.3 304.3L39.9 304.55L40.45 304.8L42.25 305.4L42.8 305.6L43.45 305.75L44.65 306.05L45.25 306.15L45.85 306.3L46.5 306.4L47.1 306.45L47.7 306.55L48.35 306.6L48.95 306.65L49.6 306.65L50.2 306.7L51.5 306.7L52.1 306.65L52.75 306.6L53.35 306.55L54 306.5L54.65 306.4L55.25 306.3L55.9 306.2L56.5 306.1L96.5 297.65L98.9 297.15L100.1 296.95L101.25 296.7L103.65 296.3L104.85 296.05L107.25 295.65L108.45 295.5L110.85 295.1L114.45 294.65L115.7 294.5L119.3 294.05L120.5 293.95L121.7 293.8L124.1 293.6L125.35 293.5L128.95 293.2L130.15 293.15L131.35 293.05L132.6 293L137.4 292.8L138.65 292.75L141.05 292.65L143.45 292.65L144.7 292.6L146.2 290.8L146.4 290.45L146.65 290.15L146.85 289.8L147.05 289.5L147.65 288.45L147.85 288.15L148.05 287.8L148.35 287.1L148.55 286.75L148.7 286.35L149 285.65L149.1 285.3L149.25 284.9L149.35 284.55L149.5 284.15L149.6 283.8L149.7 283.4L149.8 283.05L149.85 282.65L149.95 282.25L150 281.9L150.1 281.5L150.25 280.3L150.25 279.9L150.3 279.55L150.3 279.15L150.35 278.75L150.35 267.65L150.3 266.8L150.25 265.9L150.05 264.2L149.9 263.35L149.5 261.75L149.25 260.95L148.65 259.35L147.95 257.85L147.15 256.45L146.7 255.75L146.2 255.05L145.7 254.4L145.2 253.8L144.65 253.2L144.05 252.6L143.5 252L142.85 251.45L142.25 250.95L141.6 250.45L140.9 250L140.25 249.55L139.5 249.1L138.8 248.7L137.3 248L136.5 247.7L135.75 247.4L134.95 247.15L134.1 246.95L133.3 246.75L132.45 246.6L130.75 246.4L129.9 246.35L129 246.35L127.25 246.3L125.5 246.2L123.8 246L122.1 245.75L120.4 245.45L118.75 245.1L117.15 244.65L115.5 244.15L113.95 243.6L112.4 242.95L110.9 242.3L109.4 241.55L107.95 240.75L106.55 239.95L105.15 239.05L103.8 238.1L102.5 237.1L101.25 236.05L100 234.95L97.7 232.65L96.6 231.4L95.55 230.15L94.55 228.85L93.65 227.5L92.75 226.1L91.9 224.7L91.1 223.25L90.35 221.75L89.7 220.25L89.05 218.7L88.5 217.15L88 215.55L87.55 213.9L87.2 212.25L86.9 210.6L86.65 208.9L86.45 207.15L86.35 205.4L86.35 191.25L86.45 189.5L86.65 187.8L86.9 186.1L87.2 184.4L87.55 182.75L88 181.15L88.5 179.55L89.05 177.95L89.7 176.4L90.35 174.9L91.1 173.4L91.9 171.95L92.75 170.55L93.65 169.15L94.55 167.8L95.55 166.5L96.6 165.25L97.7 164L100 161.7L101.25 160.6L102.5 159.55L103.8 158.6L105.15 157.65L106.55 156.75L107.95 155.9L109.4 155.1L110.9 154.35L112.4 153.7L113.95 153.05L115.5 152.5L117.15 152L118.75 151.6L120.4 151.2L122.1 150.9L123.8 150.65L125.5 150.45L127.25 150.35L182.35 150.35L182.35 171.65L129 171.65L128.1 171.7L126.4 171.8L124.7 172.1L123.9 172.3L123.05 172.5L122.25 172.75L121.5 173.05L120.7 173.35L119.2 174.05L118.5 174.45L117.75 174.85L117.1 175.3L116.4 175.8L115.1 176.8L113.9 177.9L112.8 179.1L111.8 180.4L111.3 181.1L110.85 181.75L110.45 182.5L110.05 183.2L109.35 184.7L109.05 185.5L108.75 186.25L108.5 187.05L108.3 187.9L108.1 188.7L107.8 190.4L107.7 192.1L107.65 193L107.65 203.65L107.7 204.55L107.8 206.25L108.1 207.95L108.3 208.8L108.5 209.6L108.75 210.4L109.05 211.2L109.35 211.95L110.05 213.45L110.45 214.2L110.85 214.9L111.3 215.6L112.8 217.55L113.9 218.75L115.1 219.85L115.75 220.4L116.4 220.9L117.1 221.35L117.75 221.8L118.5 222.2L119.2 222.6L119.95 223L120.7 223.3L121.5 223.65L122.25 223.9L123.05 224.15L123.9 224.4L124.7 224.55L126.4 224.85L127.25 224.95L128.1 225L129 225L130.75 225.05L132.5 225.15L134.2 225.3L135.9 225.55L137.6 225.85L139.25 226.25L140.85 226.7L142.45 227.2L144.05 227.75L145.6 228.35L148.6 229.75L150.05 230.55L151.45 231.4L152.85 232.3L154.2 233.25L155.5 234.25L156.75 235.3L157.95 236.35L159.15 237.5L160.3 238.7L161.4 239.9L162.45 241.2L163.4 242.5L164.35 243.85L165.25 245.2L166.1 246.6L166.9 248.05L167.65 249.55L168.3 251.05L168.95 252.6L169.5 254.2L170 255.8L170.8 259.1L171.1 260.75L171.35 262.45L171.5 264.15L171.65 265.9L171.65 279.9L171.6 280.3L171.6 280.7L171.55 281.1L171.55 281.5L171.5 281.85L171.35 283.05L171.3 283.4L171.15 284.6L171.05 284.95L170.95 285.75L170.85 286.1L170.8 286.5L170.7 286.9L170.6 287.25L170.5 287.65L170.4 288L170.35 288.4L170.25 288.75L170.1 289.15L170 289.5L169.9 289.9L169.8 290.25L169.7 290.65L169.55 291L169.45 291.35L169.3 291.75L169.2 292.1L169.05 292.45L168.95 292.85L168.65 293.55L170.35 293.7L172.1 293.9L173.8 294.05L178.9 294.65L180.6 294.9L182.3 295.1L184 295.35L185.7 295.65L187.4 295.9L189.1 296.2L190.8 296.45L192.5 296.8L194.2 297.1L195.85 297.4L199.25 298.1L200.9 298.5L202.6 298.85L204.25 299.25L205.95 299.65L209.25 300.45L210.95 300.9L215.9 302.25L222.5 304.25L224.15 304.8L225.75 305.3L227.4 305.85L229.05 306.45L230.65 307L232.3 307.6L235.5 308.8L235.4 307.1L235.25 305.4L235.05 303.75L234.75 302.1L234.4 300.5L234 298.9L233.5 297.3L233 295.75L232.4 294.25L231.75 292.75L231.05 291.3L230.3 289.85L229.5 288.45L228.65 287.1L227.75 285.75L226.8 284.45L225.8 283.2L224.8 282L223.7 280.8L221.4 278.6L220.2 277.55L218.95 276.55L216.35 274.65L215 273.8L213.6 273L212.15 272.25L210.7 271.55L209.25 270.9L207.7 270.3L206.15 269.75L204.6 269.25L203 268.85L201.4 268.5L199.75 268.2L198.1 267.95L196.4 267.8L194.7 267.7L193 267.65L182.35 267.65L182.35 246.35L193 246.35L195.65 246.4L198.25 246.55L200.8 246.8L203.35 247.15L205.9 247.65L208.35 248.2L210.8 248.85L213.2 249.6L215.55 250.45L217.9 251.35L220.15 252.4L222.4 253.5L224.55 254.65L226.7 255.95L228.75 257.3L230.75 258.7L232.75 260.2L234.65 261.75L236.45 263.4L238.25 265.1L239.95 266.85L241.55 268.7L243.15 270.6L244.65 272.55L246.05 274.55L247.4 276.65L248.65 278.75L249.85 280.95L250.95 283.15L251.95 285.45L252.9 287.75L253.75 290.1L254.5 292.55L255.15 294.95L255.7 297.45L256.15 299.95L256.5 302.5L256.8 305.1L256.95 307.7L257 310.35L257 318.1L257.05 318.1L257.15 318.15L257.2 318.2L257.5 318.35L257.6 318.35L257.65 318.4L257.7 318.4L260.05 319.6L262.45 320.7L264.8 321.8L267.2 322.9L269.6 323.95L272.05 324.95L274.45 325.95L279.35 327.85L281.8 328.75L284.3 329.65L286.8 330.5L289.25 331.3L291.75 332.1L294.3 332.85L296.8 333.6L299.35 334.3L301.85 335L304.4 335.6L306.95 336.25L309.55 336.85L312.1 337.4L314.65 337.9L319.85 338.9L322.4 339.35L325 339.75L332.8 340.8L335.4 341.1L338.05 341.35L340.65 341.6L343.25 341.8L345.9 341.95L348.5 342.1L351.15 342.2L356.35 342.3L359 342.35L363.65 342.35L363.65 341.45L363.6 341.05L363.5 340.6L363.45 340.2L363.35 339.75L363.25 339.35L363.1 338.95L363 338.55L362.8 338.2L362.65 337.8L362.45 337.45L362.25 337.05L361.85 336.35L361.6 336.05L361.35 335.7L361.1 335.4L360.8 335.1L360.55 334.8L360.25 334.5L359.95 334.25L359.6 333.95L359.3 333.75L358.6 333.25L357.55 332.65L356.35 332.2L354.75 331.8L353.85 331.7L353.45 331.65L319.7 331.65L317.1 331.45L315.8 331.25L313.3 330.75L310.9 330.05L309.7 329.6L308.55 329.15L307.4 328.65L306.3 328.1L305.2 327.5L303.1 326.2L302.1 325.5L301.15 324.75L299.25 323.15L298.4 322.3L296.7 320.5L295.95 319.55L294.45 317.55L293.15 315.45L292.55 314.35L292 313.25L291.5 312.1L291.05 310.95L290.25 308.55L289.95 307.35L289.65 306.1L289.4 304.85L289.25 303.55L289.1 302.3L289 301L289 257L310.35 257L310.35 300.55L310.4 300.95L310.45 301.4L310.65 302.2L310.75 302.65L310.85 303.05L311 303.45L311.15 303.8L311.35 304.2L311.5 304.55L311.7 304.9L311.95 305.3L312.15 305.6L312.65 306.3L313.15 306.9L313.75 307.5L314.35 308L315.4 308.75L316.1 309.15L316.45 309.3L316.85 309.5L317.65 309.8L319.25 310.2L319.7 310.25L320.1 310.3L320.55 310.3L321 310.35L354.3 310.35L356.8 310.55L358.05 310.75L359.25 310.95L360.45 311.2L361.65 311.55L362.8 311.9L365.1 312.7L367.3 313.7L369.4 314.9L371.4 316.2L372.35 316.9L373.3 317.65L374.2 318.45L375.05 319.25L375.9 320.1L376.7 320.95L377.5 321.85L378.25 322.8L378.95 323.75L379.65 324.75L380.25 325.75L381.45 327.85L382.45 330.05L382.9 331.2L383.3 332.35L383.65 333.5L384.25 335.9L384.45 337.15L384.65 338.35L384.75 339.6L384.85 340.9L386.2 340.5L387.6 340.1L388.9 339.65L390.25 339.15L391.5 338.6L392.8 338L394.05 337.4L396.45 336L397.65 335.25L398.8 334.5L399.9 333.7L401 332.85L402.1 331.95L403.1 331.05L404.1 330.1L405.1 329.1L406.05 328.1L406.95 327.1L407.85 326L408.65 324.9L409.5 323.8L410.25 322.65L411 321.45L411.7 320.25L412.35 319.05L412.95 317.8L413.55 316.5L414.55 313.9L415 312.55L415.8 309.85L416.1 308.45L416.35 307.05L416.6 305.6L416.9 302.7L416.95 301.25L417 299.75L416.95 298L416.85 296.3L416.7 294.6L416.45 292.9L416.15 291.25L415.75 289.6L415.35 288L414.85 286.4L414.3 284.85L413.65 283.3L413 281.8L412.3 280.3L411.5 278.9L410.65 277.45L408.85 274.75L407.85 273.45L406.8 272.2L405.75 271L404.6 269.8L403.45 268.65L402.25 267.6L401 266.55L399.7 265.55L398.35 264.6L397 263.7L395.6 262.85L394.15 262.05L392.7 261.3L391.2 260.65L389.65 260L388.1 259.45L386.5 258.95L384.9 258.5L383.25 258.1L381.6 257.8L379.95 257.55L378.25 257.35L376.5 257.25L374.75 257.2L352.9 257L353.1 235.65L374.95 235.85L377.3 235.9L379.6 236.05L381.9 236.3L384.2 236.6L386.45 237L388.65 237.45L390.85 238L393 238.6L395.15 239.3L397.25 240.05L399.3 240.9L401.35 241.8L403.3 242.8L405.3 243.85L407.2 244.95L409.05 246.1L410.9 247.35L412.65 248.65L414.4 250L416.1 251.4L417.7 252.85L419.3 254.35L420.85 255.95L422.3 257.55L423.75 259.25L425.1 260.95L426.45 262.7L427.7 264.55L428.85 266.4L430 268.3L431.05 270.2L432.05 272.2L432.95 274.2L433.85 276.25L435.35 280.45L436 282.6L436.55 284.8L437.05 287L437.45 289.25L491.65 289L492.65 289L493.65 288.95L495.55 288.75L496.45 288.65L497.35 288.5L498.25 288.3L499.1 288.1L499.9 287.85L500.7 287.55L501.5 287.3L503 286.6L503.7 286.25L504.35 285.8L505.05 285.4L505.65 284.95L506.85 283.95L507.95 282.85L508.95 281.65L509.4 281.05L509.8 280.35L510.2 279.7L510.6 279L510.95 278.25L511.25 277.5L511.85 275.9L512.1 275.1L512.3 274.25L512.5 273.35L512.65 272.5L512.95 269.65L513 268.65L513 267.65L512.95 265.9L512.85 264.15L512.7 262.45L512.45 260.75L512.15 259.1L511.75 257.45L511.3 255.8L510.8 254.2L510.25 252.6L509.65 251.05L508.25 248.05L507.45 246.6L506.6 245.2L505.7 243.85L504.75 242.5L503.75 241.2L502.7 239.9L500.5 237.5L499.3 236.35L498.1 235.3L496.8 234.25L495.5 233.25L494.15 232.3L492.8 231.4L491.35 230.55L489.9 229.75L488.45 229.05L486.9 228.35L485.4 227.75L483.8 227.2L482.2 226.7L480.55 226.25L478.9 225.85L477.25 225.55L475.55 225.3L473.8 225.15L472.1 225.05L467.7 224.95L465.1 224.8L462.5 224.5L459.95 224.15L457.45 223.7L454.95 223.15L452.5 222.5L450.1 221.75L447.75 220.9L445.45 219.95L443.15 218.95L440.95 217.85L438.75 216.65L436.65 215.4L434.55 214.05L432.55 212.65L430.6 211.15L428.7 209.6L426.85 207.95L425.1 206.25L423.4 204.45L421.75 202.65L420.2 200.75L418.7 198.75L417.25 196.75L415.95 194.7L414.65 192.55L413.5 190.4L412.4 188.15L411.35 185.9L410.45 183.55L409.6 181.2L408.85 178.8L408.2 176.35L407.65 173.9L407.15 171.35L406.8 168.8L406.55 166.25L406.4 163.65L406.35 161L406.35 118.35L427.65 118.35L427.65 161L427.7 162.75L427.8 164.5L428.2 167.9L428.55 169.6L428.9 171.25L429.35 172.85L429.85 174.45L430.4 176.05L431 177.6L431.7 179.1L432.45 180.6L433.2 182.05L434.05 183.45L434.95 184.85L435.9 186.2L436.9 187.5L437.95 188.75L440.15 191.15L441.35 192.3L442.55 193.4L443.85 194.45L445.15 195.4L446.5 196.35L447.85 197.25L449.3 198.1L450.75 198.9L452.2 199.65L455.3 200.95L456.85 201.5L458.45 202L461.75 202.8L463.4 203.1L465.1 203.35L466.85 203.5L468.55 203.65L470.35 203.65L471.4 203.7L472.5 203.7L473.55 203.75L474.65 203.8L475.7 203.9L476.8 204L477.85 204.1L481 204.55L482 204.75L483.05 204.95L484.05 205.15L485.1 205.4L487.1 205.9L490.1 206.8L492 207.5L493 207.85L493.95 208.25L494.9 208.6L495.85 209L496.75 209.45L497.7 209.9L498.6 210.3L499.5 210.8L500.4 211.25L503.1 212.75L506.5 214.95L507.3 215.55L508.15 216.15L508.95 216.75L508.1 212.7L507.15 208.7L506.1 204.7L505 200.75L503.85 196.8L502.6 192.95L501.25 189.05L499.85 185.25L498.35 181.45L496.8 177.75L495.15 174L493.45 170.35L491.7 166.7L489.85 163.15L487.95 159.6L485.95 156.1L483.9 152.65L481.8 149.2L479.65 145.85L477.4 142.5L475.1 139.25L472.7 136L470.3 132.85L467.8 129.7L465.25 126.65L462.65 123.6L459.95 120.6L457.25 117.7L454.45 114.85L451.6 112L448.75 109.25L445.8 106.55L442.8 103.9L439.75 101.3L436.65 98.8L433.5 96.3L430.3 93.9L427.05 91.55L423.75 89.3L420.4 87.05L418.45 87.35L416.55 87.75L414.65 88.2L412.8 88.7L410.95 89.25L409.15 89.9L407.4 90.6L405.65 91.35L403.95 92.15L402.25 93L400.6 93.95L399 94.9L397.45 95.95L395.9 97.05L394.4 98.2L392.95 99.4L391.55 100.6L390.2 101.9L388.9 103.25L387.65 104.6L386.4 106.05L385.25 107.5L384.15 109L383.05 110.55L382.05 112.15L381.1 113.75L380.2 115.4L379.4 117.1L378.6 118.85L377.9 120.6L377.2 122.4L376.65 124.2L376.1 126.05L375.65 127.95L375.25 129.85L374.9 131.75L374.65 133.7L374.5 135.65L374.35 137.65L374.35 161L353 161L353 139.65L353.05 137.5L353.1 135.3L353.5 131L353.75 128.9L354.1 126.8L354.5 124.7L354.95 122.65L355.45 120.65L356.05 118.6L356.65 116.6L357.3 114.65L358.05 112.7L358.8 110.8L359.65 108.9L361.45 105.2L362.45 103.4L363.45 101.65L364.55 99.9L365.65 98.2L366.8 96.5L368.05 94.85L369.3 93.25L370.6 91.65L371.9 90.15L374.7 87.15L376.15 85.75L377.65 84.35L379.2 83L380.75 81.7L382.35 80.45L385.65 78.05L387.35 76.9L390.85 74.8L392.65 73.8L394.5 72.85L388.65 70.3L384.75 68.7L382.75 67.9L378.75 66.4L374.75 65L372.7 64.3L370.65 63.65L368.65 63.05L366.55 62.4L364.5 61.85L362.45 61.25L358.25 60.15L356.15 59.65L354.05 59.2L351.95 58.7L349.8 58.3L347.7 57.85L345.55 57.45L339.1 56.4L336.9 56.1L334.75 55.85L332.55 55.55L325.95 54.95L323.75 54.8L321.5 54.65L319.3 54.55L317.05 54.45L314.8 54.4L312.6 54.35L250.7 54.35L250.5 54.65L250.3 54.9L249.5 56.1L249.35 56.35L249.15 56.65L249 56.95L248.8 57.2L248.5 57.8L248.35 58.05L248.2 58.35L248.05 58.6L247.95 58.9L247.8 59.15L247.7 59.45L247.55 59.7L247.45 60L247.25 60.5L247.15 60.8L246.95 61.3L246.9 61.55L246.8 61.8L246.75 62.1L246.65 62.35L246.45 63.35L246.45 63.55L246.35 64.05L246.35 76.5L246.4 77.35L246.5 78.2L246.65 79.05L246.8 79.85L247.05 80.65L247.25 81.45L247.85 83.05L248.2 83.8L249 85.3L249.9 86.7L250.9 88.1L251.45 88.75L252.05 89.4L252.65 90L253.3 90.6L254.6 91.7L255.3 92.25L256 92.75L256.75 93.25L258.25 94.15L259.05 94.55L260.65 95.25L261.5 95.6L262.35 95.85L263.2 96.15L264.05 96.35L264.95 96.55L266.75 96.85L267.65 96.95L268.55 97L273 97L274.95 97.05L276.95 97.15L278.85 97.35L280.75 97.65L282.65 98L284.5 98.4L286.35 98.9L288.15 99.45L289.9 100.1L291.65 100.8L293.35 101.55L295.05 102.35L296.65 103.25L298.25 104.2L299.8 105.2L301.35 106.25L302.8 107.4L304.2 108.55L305.6 109.8L306.9 111.05L308.2 112.4L309.45 113.8L310.6 115.2L311.7 116.65L312.8 118.2L313.8 119.75L314.75 121.35L315.65 122.95L316.45 124.65L317.2 126.35L317.9 128.05L318.55 129.85L319.1 131.65L319.6 133.5L320 135.35L320.35 137.2L320.65 139.15L320.85 141.05L320.95 143L321 145L320.95 147L320.85 148.95L320.65 150.85L320.35 152.8L320 154.65L319.6 156.5L319.1 158.35L318.55 160.15L317.9 161.95L317.2 163.65L316.45 165.35L315.65 167.05L314.75 168.65L313.8 170.25L312.8 171.8L311.7 173.35L310.6 174.8L309.45 176.2L308.2 177.6L306.9 178.95L305.6 180.2L304.2 181.45L302.8 182.6L301.35 183.75L299.8 184.8L298.25 185.8L296.65 186.75L295.05 187.65L293.35 188.45L291.65 189.2L289.9 189.9L288.15 190.55L286.35 191.1L284.5 191.6L282.65 192L280.75 192.35L278.85 192.65L276.95 192.85L274.95 192.95L273 193L214.35 193L214.35 171.65L274.1 171.65L275.2 171.6L277.3 171.3L279.4 170.9L281.4 170.3L282.4 169.95L284.3 169.15L285.25 168.7L286.15 168.2L287.05 167.65L287.9 167.1L288.75 166.5L289.55 165.9L290.35 165.25L291.85 163.85L293.25 162.35L293.9 161.55L294.5 160.75L295.1 159.9L295.65 159.05L296.2 158.15L296.7 157.25L297.15 156.3L297.95 154.4L298.3 153.4L298.9 151.4L299.3 149.3L299.45 148.25L299.55 147.2L299.65 146.1L299.65 143.9L299.55 142.8L299.45 141.75L299.3 140.7L298.9 138.6L298.3 136.6L297.95 135.6L297.15 133.7L296.7 132.75L296.2 131.85L295.65 130.95L295.1 130.1L294.5 129.25L293.9 128.45L293.25 127.65L291.85 126.15L290.35 124.75L289.55 124.1L288.75 123.5L287.9 122.9L287.05 122.35L286.15 121.8L285.25 121.3L284.3 120.85L282.4 120.05L281.4 119.7L279.4 119.1L277.3 118.7L275.2 118.4L274.1 118.35L269.45 118.35L267.65 118.3L265.9 118.2L264.1 118L262.35 117.75L260.65 117.45L258.95 117.05L257.25 116.6L255.6 116.1L253.95 115.55L252.35 114.9L250.8 114.25L249.25 113.5L247.7 112.7L246.25 111.85L244.8 110.95L243.4 110L240.7 107.9L239.45 106.8L238.2 105.65L237 104.5L235.85 103.25L234.75 102L233.7 100.7L232.7 99.35L231.75 97.95L230.9 96.55L230.05 95.1L229.25 93.6L228.55 92.1L227.9 90.55L227.3 89L226.3 85.8L225.9 84.15L225.6 82.5L225.35 80.8L225.15 79.1L225.05 77.4L225 75.65L225 63.95L225.05 63.65L225.05 63.15L225.1 62.85L225.1 62.6L225.15 62.35L225.15 62.05L225.25 61.55L225.25 61.25L225.35 60.75L225.4 60.45L225.5 59.95L225.55 59.65L225.65 59.15L225.7 58.85L225.75 58.6L225.85 58.35L225.9 58.05L225.95 57.8L226.05 57.55L226.1 57.25L226.15 57L226.25 56.75L226.3 56.45L226.4 56.2L226.45 55.95L226.55 55.65L226.65 55.4L226.7 55.15L226.8 54.85L227 54.35L210.5 54.35L208.6 54.4L206.7 54.5L204.8 54.55L202.9 54.7L201 54.8L197.2 55.1L195.35 55.3L193.45 55.5L189.75 55.9L187.9 56.15L182.35 57.05L180.55 57.35L178.7 57.7L175.1 58.4L173.25 58.8L171.45 59.2L169.7 59.65L166.1 60.55L164.35 61L162.55 61.5L160.8 62L159.05 62.55L157.3 63.05L155.55 63.65L153.8 64.2L150.4 65.4L148.65 66L143.55 67.95L141.9 68.65L142.3 69.4L142.75 70.15L144.25 72.4L145.35 73.8L145.9 74.45L146.5 75.15L148.4 77.05L149.1 77.65L149.75 78.25L151.15 79.35L151.9 79.9L154.15 81.4L155.75 82.3L156.55 82.7L157.4 83.1L158.2 83.5L159.05 83.85L159.9 84.15L160.75 84.5L161.65 84.75L162.5 85.05L163.4 85.25L164.3 85.5L165.2 85.7L166.1 85.85L167.05 86L168.85 86.2L169.8 86.3L170.75 86.3L171.65 86.35L182.35 86.35L182.3 107.7L171.65 107.65L170.1 107.65L168.55 107.6L165.45 107.3L163.9 107.1L162.4 106.85L160.85 106.6L159.35 106.25L157.9 105.9L156.4 105.5L154.95 105.05L153.5 104.55L152.1 104.05L150.7 103.5L149.3 102.9L147.95 102.25L146.55 101.6L145.25 100.9L143.95 100.15L142.65 99.35L141.4 98.55L138.9 96.85L137.7 95.95L135.4 94.05L133.2 92.05L132.15 91L131.1 89.9L130.1 88.8L128.2 86.5L127.3 85.3L125.6 82.9L124.8 81.6L124 80.35L123.3 79.05L122.6 77.7L118.15 80.2L113.8 82.85L109.5 85.55L105.3 88.4L101.15 91.35L97.1 94.4L93.15 97.55L89.25 100.8L86.85 102.95L91.55 97.55L96.85 91.8L102.2 86.35L107.55 81.15L112.9 76.2L118.3 71.55L123.75 67.15L129.2 63L134.65 59.15L140.2 55.55L145.75 52.2L151.3 49.15L156.9 46.35L162.5 43.8L168.15 41.55L173.85 39.55L179.55 37.8L185.25 36.35L191 35.15L196.8 34.2L202.6 33.55L208.45 33.15L214.35 33L313.5 33L316.6 33.1L319.75 33.2ZM235.65 555.65L235.65 503.1L235.8 497.75L236.25 492.5L236.95 487.3L237.95 482.15L239.2 477.15L240.75 472.2L242.5 467.4L244.55 462.7L246.8 458.1L249.25 453.65L251.95 449.35L254.9 445.15L258 441.15L261.35 437.3L264.85 433.65L268.6 430.2L272.45 426.9L276.5 423.8L280.75 420.9L285.1 418.25L289.65 415.85L294.3 413.65L299.1 411.65L304.05 409.95L309.05 408.5L314.25 407.35L319.5 406.45L323.05 405.9L326.45 405.35L329.65 404.7L332.7 404.05L335.55 403.35L338.2 402.6L340.7 401.8L343.05 400.9L345.25 399.95L347.3 398.9L349.2 397.8L350.95 396.6L352.55 395.3L354 393.9L355.35 392.35L356.6 390.75L357.7 389L358.7 387.1L359.6 385.1L360.4 383L361.05 380.7L361.65 378.25L362.15 375.7L362.6 372.95L362.95 370L363.2 366.95L363.4 363.65L354.75 363.65L346.25 363.35L337.75 362.75L333.5 362.35L329.3 361.85L325.05 361.3L320.85 360.7L316.65 360L312.5 359.25L308.3 358.4L304.15 357.5L300 356.5L295.9 355.45L291.75 354.35L287.7 353.15L283.6 351.9L279.55 350.55L275.55 349.15L271.55 347.7L267.6 346.2L263.65 344.6L259.75 342.9L255.85 341.15L252 339.35L248.2 337.5L246.6 336.7L241.8 334.45L240.2 333.75L238.6 333L236.95 332.3L235.35 331.65L233.7 330.95L232.1 330.3L230.45 329.65L228.8 329.05L227.15 328.4L223.85 327.2L222.2 326.65L220.5 326.05L218.85 325.5L217.15 325L215.5 324.45L213.8 323.95L212.15 323.45L208.75 322.45L203.65 321.1L203.65 555.65L235.65 555.65ZM141.6 313.9L135.3 314.1L129 314.5L125.9 314.8L122.75 315.1L119.6 315.45L116.5 315.85L113.35 316.3L110.25 316.8L107.1 317.3L104 317.9L100.9 318.55L60.9 326.95L59.35 327.25L57.8 327.5L56.25 327.7L54.7 327.85L53.15 327.95L51.6 328L48.5 328L46.95 327.9L45.45 327.75L43.9 327.55L40.9 327.05L39.4 326.7L36.4 325.9L34.95 325.45L32.05 324.35L30.65 323.75L29.25 323.1L27.85 322.4L25.15 320.9L23.8 320.05L22.5 319.2L22.5 319.6L22.55 320.05L22.55 321.35L22.6 321.75L22.6 322.2L22.65 322.6L22.65 323.05L22.7 323.5L22.7 323.9L22.75 324.35L22.8 324.75L22.8 325.2L22.85 325.6L22.9 326.05L23 326.85L23.05 327.3L23.1 327.7L23.2 328.15L23.3 328.95L23.4 329.4L23.45 329.8L23.55 330.2L25.95 342.35L104.7 342.35L104.7 363.65L31.1 363.65L32.25 366.55L33.5 369.35L34.85 372.05L36.35 374.7L38 377.25L39.7 379.75L41.55 382.15L43.5 384.45L45.55 386.65L47.65 388.75L49.9 390.75L52.2 392.65L54.65 394.45L57.1 396.15L59.7 397.7L62.3 399.15L65.05 400.45L67.8 401.65L70.65 402.75L73.55 403.7L76.45 404.5L79.45 405.15L82.5 405.65L85.6 406.05L88.7 406.3L91.85 406.35L93.4 406.35L94.95 406.3L97.95 406.1L99.45 405.9L100.95 405.75L102.4 405.5L103.9 405.25L106.8 404.65L111.15 403.45L112.55 403L114 402.5L115.4 401.95L116.75 401.4L118.15 400.8L119.5 400.2L120.85 399.55L122.2 398.85L126.1 396.6L127.4 395.75L128.65 394.9L182.35 357.9L182.35 353L139.65 353L139.65 331.65L182.35 331.65L182.35 316.65L179.25 316.2L176.1 315.75L173 315.4L169.85 315.05L166.75 314.75L160.45 314.25L157.3 314.1L154.2 313.95L147.9 313.85L144.75 313.85L141.6 313.9Z" id="feTuIj4CQ"></path><path d="M83.35 374.35C83.35 387.15 83.35 394.25 83.35 395.65C83.35 395.65 83.35 395.65 83.35 395.65C102.55 395.65 113.2 395.65 115.35 395.65C115.35 395.65 115.35 395.65 115.35 395.65C115.35 382.85 115.35 375.75 115.35 374.35C115.35 374.35 115.35 374.35 115.35 374.35C96.15 374.35 85.5 374.35 83.35 374.35C83.35 374.35 83.35 374.35 83.35 374.35Z" id="a1IRng9LHm"></path><path d="M83.35 374.35C83.35 387.15 83.35 394.25 83.35 395.65C83.35 395.65 83.35 395.65 83.35 395.65C102.55 395.65 113.2 395.65 115.35 395.65C115.35 395.65 115.35 395.65 115.35 395.65C115.35 382.85 115.35 375.75 115.35 374.35C115.35 374.35 115.35 374.35 115.35 374.35C96.15 374.35 85.5 374.35 83.35 374.35C83.35 374.35 83.35 374.35 83.35 374.35Z" id="c2qMu1ZkDz"></path><path d="M363.65 438.35C363.65 451.15 363.65 458.25 363.65 459.65C363.65 459.65 363.65 459.65 363.65 459.65C376.45 459.65 383.6 459.65 385 459.65C385 459.65 385 459.65 385 459.65C385 446.85 385 439.75 385 438.35C385 438.35 385 438.35 385 438.35C372.2 438.35 365.1 438.35 363.65 438.35C363.65 438.35 363.65 438.35 363.65 438.35Z" id="e5mmsAf24D"></path><path d="M363.65 438.35C363.65 451.15 363.65 458.25 363.65 459.65C363.65 459.65 363.65 459.65 363.65 459.65C376.45 459.65 383.6 459.65 385 459.65C385 459.65 385 459.65 385 459.65C385 446.85 385 439.75 385 438.35C385 438.35 385 438.35 385 438.35C372.2 438.35 365.1 438.35 363.65 438.35C363.65 438.35 363.65 438.35 363.65 438.35Z" id="b1vLi58Ik"></path><path d="M385 417C385 429.8 385 436.9 385 438.35C385 438.35 385 438.35 385 438.35C397.8 438.35 404.9 438.35 406.35 438.35C406.35 438.35 406.35 438.35 406.35 438.35C406.35 425.55 406.35 418.4 406.35 417C406.35 417 406.35 417 406.35 417C393.55 417 386.4 417 385 417C385 417 385 417 385 417Z" id="b5OJTUJpEt"></path><path d="M385 417C385 429.8 385 436.9 385 438.35C385 438.35 385 438.35 385 438.35C397.8 438.35 404.9 438.35 406.35 438.35C406.35 438.35 406.35 438.35 406.35 438.35C406.35 425.55 406.35 418.4 406.35 417C406.35 417 406.35 417 406.35 417C393.55 417 386.4 417 385 417C385 417 385 417 385 417Z" id="agUCnhDjq"></path><path d="M406.35 438.35C406.35 451.15 406.35 458.25 406.35 459.65C406.35 459.65 406.35 459.65 406.35 459.65C419.15 459.65 426.25 459.65 427.65 459.65C427.65 459.65 427.65 459.65 427.65 459.65C427.65 446.85 427.65 439.75 427.65 438.35C427.65 438.35 427.65 438.35 427.65 438.35C414.85 438.35 407.75 438.35 406.35 438.35C406.35 438.35 406.35 438.35 406.35 438.35Z" id="b2idwtB0qU"></path><path d="M406.35 438.35C406.35 451.15 406.35 458.25 406.35 459.65C406.35 459.65 406.35 459.65 406.35 459.65C419.15 459.65 426.25 459.65 427.65 459.65C427.65 459.65 427.65 459.65 427.65 459.65C427.65 446.85 427.65 439.75 427.65 438.35C427.65 438.35 427.65 438.35 427.65 438.35C414.85 438.35 407.75 438.35 406.35 438.35C406.35 438.35 406.35 438.35 406.35 438.35Z" id="acRPBJ6dC"></path><path d="M385 459.65C385 472.45 385 479.6 385 481C385 481 385 481 385 481C397.8 481 404.9 481 406.35 481C406.35 481 406.35 481 406.35 481C406.35 468.2 406.35 461.1 406.35 459.65C406.35 459.65 406.35 459.65 406.35 459.65C393.55 459.65 386.4 459.65 385 459.65C385 459.65 385 459.65 385 459.65Z" id="hgjGzxY9"></path><path d="M385 459.65C385 472.45 385 479.6 385 481C385 481 385 481 385 481C397.8 481 404.9 481 406.35 481C406.35 481 406.35 481 406.35 481C406.35 468.2 406.35 461.1 406.35 459.65C406.35 459.65 406.35 459.65 406.35 459.65C393.55 459.65 386.4 459.65 385 459.65C385 459.65 385 459.65 385 459.65Z" id="c3DgvI5eHf"></path><path d="M449 438.35C449 451.15 449 458.25 449 459.65C449 459.65 449 459.65 449 459.65C461.8 459.65 468.9 459.65 470.35 459.65C470.35 459.65 470.35 459.65 470.35 459.65C470.35 446.85 470.35 439.75 470.35 438.35C470.35 438.35 470.35 438.35 470.35 438.35C457.55 438.35 450.4 438.35 449 438.35C449 438.35 449 438.35 449 438.35Z" id="a17EW6V7W"></path><path d="M449 438.35C449 451.15 449 458.25 449 459.65C449 459.65 449 459.65 449 459.65C461.8 459.65 468.9 459.65 470.35 459.65C470.35 459.65 470.35 459.65 470.35 459.65C470.35 446.85 470.35 439.75 470.35 438.35C470.35 438.35 470.35 438.35 470.35 438.35C457.55 438.35 450.4 438.35 449 438.35C449 438.35 449 438.35 449 438.35Z" id="c1W1Cyhms"></path><path d="M438.35 353C438.35 365.8 438.35 372.9 438.35 374.35C438.35 374.35 438.35 374.35 438.35 374.35C451.15 374.35 458.25 374.35 459.65 374.35C459.65 374.35 459.65 374.35 459.65 374.35C459.65 361.55 459.65 354.4 459.65 353C459.65 353 459.65 353 459.65 353C446.85 353 439.75 353 438.35 353C438.35 353 438.35 353 438.35 353Z" id="aiHBiYwoh"></path><path d="M438.35 353C438.35 365.8 438.35 372.9 438.35 374.35C438.35 374.35 438.35 374.35 438.35 374.35C451.15 374.35 458.25 374.35 459.65 374.35C459.65 374.35 459.65 374.35 459.65 374.35C459.65 361.55 459.65 354.4 459.65 353C459.65 353 459.65 353 459.65 353C446.85 353 439.75 353 438.35 353C438.35 353 438.35 353 438.35 353Z" id="a75wGzEeSI"></path><path d="M321 22.35C321 20.2 321 3.15 321 1C473.9 1 598.35 125.4 598.35 278.35C598.35 281.1 598.35 294.8 598.35 319.5C623.7 408.25 637.75 457.55 640.6 467.4C641.5 470.6 640.85 474.1 638.85 476.75C636.85 479.45 633.65 481 630.35 481C627.5 481 613.25 481 587.65 481C587.65 538.6 587.65 570.6 587.65 577C587.65 600.55 568.55 619.65 545 619.65C534.35 619.65 481 619.65 385 619.65C385 621.07 385 628.19 385 641C372.19 641 365.08 641 363.65 641C363.65 628.2 363.65 621.1 363.65 619.65C363.65 607.9 373.25 598.35 385 598.35C401 598.35 529 598.35 545 598.35C556.75 598.35 566.35 588.75 566.35 577C566.35 567.4 566.35 490.6 566.35 481C566.35 469.25 575.9 459.65 587.65 459.65C589.55 459.65 599.05 459.65 616.2 459.65C592.9 378.25 580 333 577.4 323.95C577.15 323 577 322 577 321C577 312.45 577 282.6 577 278.35C577 137.2 462.15 22.35 321 22.35Z" id="b1m5SD31Hd"></path><path d="M321 22.35C321 20.2 321 3.15 321 1C473.9 1 598.35 125.4 598.35 278.35C598.35 281.1 598.35 294.8 598.35 319.5C623.7 408.25 637.75 457.55 640.6 467.4C641.5 470.6 640.85 474.1 638.85 476.75C636.85 479.45 633.65 481 630.35 481C627.5 481 613.25 481 587.65 481C587.65 538.6 587.65 570.6 587.65 577C587.65 600.55 568.55 619.65 545 619.65C534.35 619.65 481 619.65 385 619.65C385 621.07 385 628.19 385 641C372.19 641 365.08 641 363.65 641C363.65 628.2 363.65 621.1 363.65 619.65C363.65 607.9 373.25 598.35 385 598.35C401 598.35 529 598.35 545 598.35C556.75 598.35 566.35 588.75 566.35 577C566.35 567.4 566.35 490.6 566.35 481C566.35 469.25 575.9 459.65 587.65 459.65C589.55 459.65 599.05 459.65 616.2 459.65C592.9 378.25 580 333 577.4 323.95C577.15 323 577 322 577 321C577 312.45 577 282.6 577 278.35C577 137.2 462.15 22.35 321 22.35Z" id="a3QUDdEog"></path><path d="M54.35 470.35C54.35 483.15 54.35 490.25 54.35 491.65C54.35 491.65 54.35 491.65 54.35 491.65C67.15 491.65 74.25 491.65 75.65 491.65C75.65 491.65 75.65 491.65 75.65 491.65C75.65 478.85 75.65 471.75 75.65 470.35C75.65 470.35 75.65 470.35 75.65 470.35C62.85 470.35 55.75 470.35 54.35 470.35C54.35 470.35 54.35 470.35 54.35 470.35Z" id="dqsyEyaQd"></path><path d="M54.35 470.35C54.35 483.15 54.35 490.25 54.35 491.65C54.35 491.65 54.35 491.65 54.35 491.65C67.15 491.65 74.25 491.65 75.65 491.65C75.65 491.65 75.65 491.65 75.65 491.65C75.65 478.85 75.65 471.75 75.65 470.35C75.65 470.35 75.65 470.35 75.65 470.35C62.85 470.35 55.75 470.35 54.35 470.35C54.35 470.35 54.35 470.35 54.35 470.35Z" id="d33Ije0dDW"></path><path d="M75.65 449C75.65 461.8 75.65 468.9 75.65 470.35C75.65 470.35 75.65 470.35 75.65 470.35C88.45 470.35 95.6 470.35 97 470.35C97 470.35 97 470.35 97 470.35C97 457.55 97 450.4 97 449C97 449 97 449 97 449C84.2 449 77.1 449 75.65 449C75.65 449 75.65 449 75.65 449Z" id="bJ68U1VH5"></path><path d="M75.65 449C75.65 461.8 75.65 468.9 75.65 470.35C75.65 470.35 75.65 470.35 75.65 470.35C88.45 470.35 95.6 470.35 97 470.35C97 470.35 97 470.35 97 470.35C97 457.55 97 450.4 97 449C97 449 97 449 97 449C84.2 449 77.1 449 75.65 449C75.65 449 75.65 449 75.65 449Z" id="aG0QrJvtv"></path><path d="M97 470.35C97 483.15 97 490.25 97 491.65C97 491.65 97 491.65 97 491.65C109.8 491.65 116.9 491.65 118.35 491.65C118.35 491.65 118.35 491.65 118.35 491.65C118.35 478.85 118.35 471.75 118.35 470.35C118.35 470.35 118.35 470.35 118.35 470.35C105.55 470.35 98.4 470.35 97 470.35C97 470.35 97 470.35 97 470.35Z" id="d2OdUvvXk0"></path><path d="M97 470.35C97 483.15 97 490.25 97 491.65C97 491.65 97 491.65 97 491.65C109.8 491.65 116.9 491.65 118.35 491.65C118.35 491.65 118.35 491.65 118.35 491.65C118.35 478.85 118.35 471.75 118.35 470.35C118.35 470.35 118.35 470.35 118.35 470.35C105.55 470.35 98.4 470.35 97 470.35C97 470.35 97 470.35 97 470.35Z" id="a1rD5y2FD"></path><path d="M75.65 491.65C75.65 504.45 75.65 511.6 75.65 513C75.65 513 75.65 513 75.65 513C88.45 513 95.6 513 97 513C97 513 97 513 97 513C97 500.2 97 493.1 97 491.65C97 491.65 97 491.65 97 491.65C84.2 491.65 77.1 491.65 75.65 491.65C75.65 491.65 75.65 491.65 75.65 491.65Z" id="f3fXSJfICT"></path><path d="M75.65 491.65C75.65 504.45 75.65 511.6 75.65 513C75.65 513 75.65 513 75.65 513C88.45 513 95.6 513 97 513C97 513 97 513 97 513C97 500.2 97 493.1 97 491.65C97 491.65 97 491.65 97 491.65C84.2 491.65 77.1 491.65 75.65 491.65C75.65 491.65 75.65 491.65 75.65 491.65Z" id="lskG4yLe2"></path><path d="M139.65 470.35C139.65 483.15 139.65 490.25 139.65 491.65C139.65 491.65 139.65 491.65 139.65 491.65C152.45 491.65 159.6 491.65 161 491.65C161 491.65 161 491.65 161 491.65C161 478.85 161 471.75 161 470.35C161 470.35 161 470.35 161 470.35C148.2 470.35 141.1 470.35 139.65 470.35C139.65 470.35 139.65 470.35 139.65 470.35Z" id="coSIkqMZ3"></path><path d="M139.65 470.35C139.65 483.15 139.65 490.25 139.65 491.65C139.65 491.65 139.65 491.65 139.65 491.65C152.45 491.65 159.6 491.65 161 491.65C161 491.65 161 491.65 161 491.65C161 478.85 161 471.75 161 470.35C161 470.35 161 470.35 161 470.35C148.2 470.35 141.1 470.35 139.65 470.35C139.65 470.35 139.65 470.35 139.65 470.35Z" id="gbBzZ1Q1l"></path><path d="M52.8 517.85C59.65 522.6 114.45 560.55 121.3 565.25C146.15 582.45 161 610.8 161 641C158.85 641 141.8 641 139.65 641C139.65 617.8 128.25 596.05 109.2 582.8C102.35 578.05 47.55 540.15 40.7 535.4C15.85 518.2 1 489.9 1 459.65C1 456.1 1 438.35 1 406.35C3.14 406.35 20.22 406.35 22.35 406.35C22.35 438.35 22.35 456.1 22.35 459.65C22.35 482.9 33.75 504.65 52.8 517.85Z" id="b3KZ3hCueQ"></path><path d="M52.8 517.85C59.65 522.6 114.45 560.55 121.3 565.25C146.15 582.45 161 610.8 161 641C158.85 641 141.8 641 139.65 641C139.65 617.8 128.25 596.05 109.2 582.8C102.35 578.05 47.55 540.15 40.7 535.4C15.85 518.2 1 489.9 1 459.65C1 456.1 1 438.35 1 406.35C3.14 406.35 20.22 406.35 22.35 406.35C22.35 438.35 22.35 456.1 22.35 459.65C22.35 482.9 33.75 504.65 52.8 517.85Z" id="b3nTuLLOni"></path></defs><g><g><g><g><use xlink:href="#c3Osieq6o" opacity="1" fill="#ec4444" fill-opacity="1"></use><g><use xlink:href="#c3Osieq6o" opacity="1" fill-opacity="0" stroke="#000000" stroke-width="1" stroke-opacity="0"></use></g></g><g><use xlink:href="#feTuIj4CQ" opacity="1" fill="#000000" fill-opacity="0"></use><g><use xlink:href="#feTuIj4CQ" opacity="1" fill-opacity="0" stroke="#000000" stroke-width="1" stroke-opacity="0"></use></g></g><g><use xlink:href="#a1IRng9LHm" opacity="1" fill="#ec4444" fill-opacity="1"></use><g><use xlink:href="#a1IRng9LHm" opacity="1" fill-opacity="0" stroke="#000000" stroke-width="1" stroke-opacity="0"></use></g></g><g><use xlink:href="#c2qMu1ZkDz" opacity="1" fill="#000000" fill-opacity="0"></use><g><use xlink:href="#c2qMu1ZkDz" opacity="1" fill-opacity="0" stroke="#000000" stroke-width="1" stroke-opacity="0"></use></g></g><g><use xlink:href="#e5mmsAf24D" opacity="1" fill="#ec4444" fill-opacity="1"></use><g><use xlink:href="#e5mmsAf24D" opacity="1" fill-opacity="0" stroke="#000000" stroke-width="1" stroke-opacity="0"></use></g></g><g><use xlink:href="#b1vLi58Ik" opacity="1" fill="#000000" fill-opacity="0"></use><g><use xlink:href="#b1vLi58Ik" opacity="1" fill-opacity="0" stroke="#000000" stroke-width="1" stroke-opacity="0"></use></g></g><g><use xlink:href="#b5OJTUJpEt" opacity="1" fill="#ec4444" fill-opacity="1"></use><g><use xlink:href="#b5OJTUJpEt" opacity="1" fill-opacity="0" stroke="#000000" stroke-width="1" stroke-opacity="0"></use></g></g><g><use xlink:href="#agUCnhDjq" opacity="1" fill="#000000" fill-opacity="0"></use><g><use xlink:href="#agUCnhDjq" opacity="1" fill-opacity="0" stroke="#000000" stroke-width="1" stroke-opacity="0"></use></g></g><g><use xlink:href="#b2idwtB0qU" opacity="1" fill="#ec4444" fill-opacity="1"></use><g><use xlink:href="#b2idwtB0qU" opacity="1" fill-opacity="0" stroke="#000000" stroke-width="1" stroke-opacity="0"></use></g></g><g><use xlink:href="#acRPBJ6dC" opacity="1" fill="#000000" fill-opacity="0"></use><g><use xlink:href="#acRPBJ6dC" opacity="1" fill-opacity="0" stroke="#000000" stroke-width="1" stroke-opacity="0"></use></g></g><g><use xlink:href="#hgjGzxY9" opacity="1" fill="#ec4444" fill-opacity="1"></use><g><use xlink:href="#hgjGzxY9" opacity="1" fill-opacity="0" stroke="#000000" stroke-width="1" stroke-opacity="0"></use></g></g><g><use xlink:href="#c3DgvI5eHf" opacity="1" fill="#000000" fill-opacity="0"></use><g><use xlink:href="#c3DgvI5eHf" opacity="1" fill-opacity="0" stroke="#000000" stroke-width="1" stroke-opacity="0"></use></g></g><g><use xlink:href="#a17EW6V7W" opacity="1" fill="#ec4444" fill-opacity="1"></use><g><use xlink:href="#a17EW6V7W" opacity="1" fill-opacity="0" stroke="#000000" stroke-width="1" stroke-opacity="0"></use></g></g><g><use xlink:href="#c1W1Cyhms" opacity="1" fill="#000000" fill-opacity="0"></use><g><use xlink:href="#c1W1Cyhms" opacity="1" fill-opacity="0" stroke="#000000" stroke-width="1" stroke-opacity="0"></use></g></g><g><use xlink:href="#aiHBiYwoh" opacity="1" fill="#ec4444" fill-opacity="1"></use><g><use xlink:href="#aiHBiYwoh" opacity="1" fill-opacity="0" stroke="#000000" stroke-width="1" stroke-opacity="0"></use></g></g><g><use xlink:href="#a75wGzEeSI" opacity="1" fill="#000000" fill-opacity="0"></use><g><use xlink:href="#a75wGzEeSI" opacity="1" fill-opacity="0" stroke="#000000" stroke-width="1" stroke-opacity="0"></use></g></g><g><use xlink:href="#b1m5SD31Hd" opacity="1" fill="#ec4444" fill-opacity="1"></use><g><use xlink:href="#b1m5SD31Hd" opacity="1" fill-opacity="0" stroke="#000000" stroke-width="1" stroke-opacity="0"></use></g></g><g><use xlink:href="#a3QUDdEog" opacity="1" fill="#000000" fill-opacity="0"></use><g><use xlink:href="#a3QUDdEog" opacity="1" fill-opacity="0" stroke="#000000" stroke-width="1" stroke-opacity="0"></use></g></g><g><use xlink:href="#dqsyEyaQd" opacity="1" fill="#ec4444" fill-opacity="1"></use><g><use xlink:href="#dqsyEyaQd" opacity="1" fill-opacity="0" stroke="#000000" stroke-width="1" stroke-opacity="0"></use></g></g><g><use xlink:href="#d33Ije0dDW" opacity="1" fill="#000000" fill-opacity="0"></use><g><use xlink:href="#d33Ije0dDW" opacity="1" fill-opacity="0" stroke="#000000" stroke-width="1" stroke-opacity="0"></use></g></g><g><use xlink:href="#bJ68U1VH5" opacity="1" fill="#ec4444" fill-opacity="1"></use><g><use xlink:href="#bJ68U1VH5" opacity="1" fill-opacity="0" stroke="#000000" stroke-width="1" stroke-opacity="0"></use></g></g><g><use xlink:href="#aG0QrJvtv" opacity="1" fill="#000000" fill-opacity="0"></use><g><use xlink:href="#aG0QrJvtv" opacity="1" fill-opacity="0" stroke="#000000" stroke-width="1" stroke-opacity="0"></use></g></g><g><use xlink:href="#d2OdUvvXk0" opacity="1" fill="#ec4444" fill-opacity="1"></use><g><use xlink:href="#d2OdUvvXk0" opacity="1" fill-opacity="0" stroke="#000000" stroke-width="1" stroke-opacity="0"></use></g></g><g><use xlink:href="#a1rD5y2FD" opacity="1" fill="#000000" fill-opacity="0"></use><g><use xlink:href="#a1rD5y2FD" opacity="1" fill-opacity="0" stroke="#000000" stroke-width="1" stroke-opacity="0"></use></g></g><g><use xlink:href="#f3fXSJfICT" opacity="1" fill="#ec4444" fill-opacity="1"></use><g><use xlink:href="#f3fXSJfICT" opacity="1" fill-opacity="0" stroke="#000000" stroke-width="1" stroke-opacity="0"></use></g></g><g><use xlink:href="#lskG4yLe2" opacity="1" fill="#000000" fill-opacity="0"></use><g><use xlink:href="#lskG4yLe2" opacity="1" fill-opacity="0" stroke="#000000" stroke-width="1" stroke-opacity="0"></use></g></g><g><use xlink:href="#coSIkqMZ3" opacity="1" fill="#ec4444" fill-opacity="1"></use><g><use xlink:href="#coSIkqMZ3" opacity="1" fill-opacity="0" stroke="#000000" stroke-width="1" stroke-opacity="0"></use></g></g><g><use xlink:href="#gbBzZ1Q1l" opacity="1" fill="#000000" fill-opacity="0"></use><g><use xlink:href="#gbBzZ1Q1l" opacity="1" fill-opacity="0" stroke="#000000" stroke-width="1" stroke-opacity="0"></use></g></g><g><use xlink:href="#b3KZ3hCueQ" opacity="1" fill="#ec4444" fill-opacity="1"></use><g><use xlink:href="#b3KZ3hCueQ" opacity="1" fill-opacity="0" stroke="#000000" stroke-width="1" stroke-opacity="0"></use></g></g><g><use xlink:href="#b3nTuLLOni" opacity="1" fill="#000000" fill-opacity="0"></use><g><use xlink:href="#b3nTuLLOni" opacity="1" fill-opacity="0" stroke="#000000" stroke-width="1" stroke-opacity="0"></use></g></g></g></g></g></svg>