<?xml version="1.0" encoding="UTF-8" standalone="no"?>
<!DOCTYPE svg PUBLIC "-//W3C//DTD SVG 1.1//EN" "http://www.w3.org/Graphics/SVG/1.1/DTD/svg11.dtd">
<svg version="1.1" xmlns="http://www.w3.org/2000/svg" xmlns:xlink="http://www.w3.org/1999/xlink" preserveAspectRatio="xMidYMid meet" viewBox="0 0 640 640" width="640" height="640"><defs><path d="M641 31.95C641 14.9 627.1 1 610.05 1C552.25 1 89.75 1 31.95 1C14.9 1 1 14.9 1 31.95C1 89.75 1 552.25 1 610.05C1 627.1 14.9 641 31.95 641C89.75 641 552.25 641 610.05 641C627.1 641 641 627.1 641 610.05C641 598.95 641 510.2 641 499.15C641 493.8 636.7 489.45 631.35 489.45C626 489.45 621.7 493.8 621.7 499.15C621.7 510.2 621.7 598.95 621.7 610.05C621.7 616.45 616.45 621.7 610.05 621.7C552.25 621.7 89.75 621.7 31.95 621.7C25.55 621.7 20.3 616.45 20.3 610.05C20.3 552.25 20.3 89.75 20.3 31.95C20.3 25.55 25.55 20.3 31.95 20.3C89.75 20.3 552.25 20.3 610.05 20.3C616.45 20.3 621.7 25.55 621.7 31.95C621.7 74.2 621.7 412.15 621.7 454.4C621.7 459.75 626 464.05 631.35 464.05C636.7 464.05 641 459.75 641 454.4C641 412.15 641 74.2 641 31.95Z" id="abHCvBcSkP"></path><path d="M641 31.95C641 14.9 627.1 1 610.05 1C552.25 1 89.75 1 31.95 1C14.9 1 1 14.9 1 31.95C1 89.75 1 552.25 1 610.05C1 627.1 14.9 641 31.95 641C89.75 641 552.25 641 610.05 641C627.1 641 641 627.1 641 610.05C641 598.95 641 510.2 641 499.15C641 493.8 636.7 489.45 631.35 489.45C626 489.45 621.7 493.8 621.7 499.15C621.7 510.2 621.7 598.95 621.7 610.05C621.7 616.45 616.45 621.7 610.05 621.7C552.25 621.7 89.75 621.7 31.95 621.7C25.55 621.7 20.3 616.45 20.3 610.05C20.3 552.25 20.3 89.75 20.3 31.95C20.3 25.55 25.55 20.3 31.95 20.3C89.75 20.3 552.25 20.3 610.05 20.3C616.45 20.3 621.7 25.55 621.7 31.95C621.7 74.2 621.7 412.15 621.7 454.4C621.7 459.75 626 464.05 631.35 464.05C636.7 464.05 641 459.75 641 454.4C641 412.15 641 74.2 641 31.95Z" id="b1cbubukFl"></path><path d="M433.6 227.35C525.6 227.35 576.7 227.35 586.9 227.35C592.25 227.35 596.55 223 596.55 217.7C596.55 212.35 592.25 208.05 586.9 208.05C576.7 208.05 525.6 208.05 433.6 208.05C433.6 119.15 433.6 69.75 433.6 59.85C433.6 54.55 429.25 50.2 423.95 50.2C418.6 50.2 414.3 54.55 414.3 59.85C414.3 69.75 414.3 119.15 414.3 208.05C395.57 208.05 245.69 208.05 226.95 208.05C226.95 119.15 226.95 69.75 226.95 59.85C226.95 54.55 222.65 50.2 217.3 50.2C211.95 50.2 207.65 54.55 207.65 59.85C207.65 69.75 207.65 119.15 207.65 208.05C116.1 208.05 65.25 208.05 55.1 208.05C49.75 208.05 45.45 212.35 45.45 217.7C45.45 223 49.75 227.35 55.1 227.35C65.25 227.35 116.1 227.35 207.65 227.35C207.65 246.08 207.65 395.92 207.65 414.65C116.1 414.65 65.25 414.65 55.1 414.65C49.75 414.65 45.45 419 45.45 424.3C45.45 429.65 49.75 434 55.1 434C65.25 434 116.1 434 207.65 434C207.65 522.9 207.65 572.25 207.65 582.15C207.65 587.45 211.95 591.8 217.3 591.8C222.65 591.8 226.95 587.45 226.95 582.15C226.95 572.25 226.95 522.9 226.95 433.95C239.45 433.95 246.45 433.95 247.8 433.95C253.15 433.95 257.45 429.65 257.45 424.3C257.45 419 253.15 414.65 247.8 414.65C246.45 414.65 239.45 414.65 226.95 414.65C226.95 402.16 226.95 339.73 226.95 227.35L414.3 227.35C414.3 339.73 414.3 402.16 414.3 414.65C339.1 414.65 297.35 414.65 289 414.65C283.65 414.65 279.35 419 279.35 424.3C279.35 429.65 283.65 433.95 289 433.95C297.35 433.95 339.1 433.95 414.3 433.95C414.3 522.9 414.3 572.25 414.3 582.15C414.3 587.45 418.6 591.8 423.95 591.8C429.25 591.8 433.6 587.45 433.6 582.15C433.6 572.25 433.6 522.9 433.6 433.95C525.6 433.95 576.7 433.95 586.9 433.95C592.25 433.95 596.55 429.65 596.55 424.3C596.55 419 592.25 414.65 586.9 414.65C566.45 414.65 515.35 414.65 433.6 414.65C433.6 377.19 433.6 246.08 433.6 227.35Z" id="b1RioXSR7"></path><path d="M433.6 227.35C525.6 227.35 576.7 227.35 586.9 227.35C592.25 227.35 596.55 223 596.55 217.7C596.55 212.35 592.25 208.05 586.9 208.05C576.7 208.05 525.6 208.05 433.6 208.05C433.6 119.15 433.6 69.75 433.6 59.85C433.6 54.55 429.25 50.2 423.95 50.2C418.6 50.2 414.3 54.55 414.3 59.85C414.3 69.75 414.3 119.15 414.3 208.05C395.57 208.05 245.69 208.05 226.95 208.05C226.95 119.15 226.95 69.75 226.95 59.85C226.95 54.55 222.65 50.2 217.3 50.2C211.95 50.2 207.65 54.55 207.65 59.85C207.65 69.75 207.65 119.15 207.65 208.05C116.1 208.05 65.25 208.05 55.1 208.05C49.75 208.05 45.45 212.35 45.45 217.7C45.45 223 49.75 227.35 55.1 227.35C65.25 227.35 116.1 227.35 207.65 227.35C207.65 246.08 207.65 395.92 207.65 414.65C116.1 414.65 65.25 414.65 55.1 414.65C49.75 414.65 45.45 419 45.45 424.3C45.45 429.65 49.75 434 55.1 434C65.25 434 116.1 434 207.65 434C207.65 522.9 207.65 572.25 207.65 582.15C207.65 587.45 211.95 591.8 217.3 591.8C222.65 591.8 226.95 587.45 226.95 582.15C226.95 572.25 226.95 522.9 226.95 433.95C239.45 433.95 246.45 433.95 247.8 433.95C253.15 433.95 257.45 429.65 257.45 424.3C257.45 419 253.15 414.65 247.8 414.65C246.45 414.65 239.45 414.65 226.95 414.65C226.95 402.16 226.95 339.73 226.95 227.35L414.3 227.35C414.3 339.73 414.3 402.16 414.3 414.65C339.1 414.65 297.35 414.65 289 414.65C283.65 414.65 279.35 419 279.35 424.3C279.35 429.65 283.65 433.95 289 433.95C297.35 433.95 339.1 433.95 414.3 433.95C414.3 522.9 414.3 572.25 414.3 582.15C414.3 587.45 418.6 591.8 423.95 591.8C429.25 591.8 433.6 587.45 433.6 582.15C433.6 572.25 433.6 522.9 433.6 433.95C525.6 433.95 576.7 433.95 586.9 433.95C592.25 433.95 596.55 429.65 596.55 424.3C596.55 419 592.25 414.65 586.9 414.65C566.45 414.65 515.35 414.65 433.6 414.65C433.6 377.19 433.6 246.08 433.6 227.35Z" id="c57HvfmjUp"></path><path d="M154.75 110.3C157.5 115.35 157.75 117.7 157.75 123.5C157.75 143 141.9 158.8 122.45 158.8C103 158.8 87.15 143 87.15 123.5C87.15 104.05 103 88.25 122.45 88.25C126.1 88.25 125.9 88.5 128.1 88.9C133.75 90 138.6 87.75 140.25 82.65C141.85 77.6 139.1 71.8 133.95 70.55C128.5 69.2 128.1 68.95 122.45 68.95C92.35 68.95 67.85 93.45 67.85 123.5C67.85 153.6 92.35 178.1 122.45 178.1C152.55 178.1 177.05 153.6 177.05 123.5C177.05 114.55 176 109.05 171.8 101.15C169.25 96.45 163.4 94.7 158.7 97.2C154 99.75 152.25 105.6 154.75 110.3Z" id="bc2uGlWNj"></path><path d="M154.75 110.3C157.5 115.35 157.75 117.7 157.75 123.5C157.75 143 141.9 158.8 122.45 158.8C103 158.8 87.15 143 87.15 123.5C87.15 104.05 103 88.25 122.45 88.25C126.1 88.25 125.9 88.5 128.1 88.9C133.75 90 138.6 87.75 140.25 82.65C141.85 77.6 139.1 71.8 133.95 70.55C128.5 69.2 128.1 68.95 122.45 68.95C92.35 68.95 67.85 93.45 67.85 123.5C67.85 153.6 92.35 178.1 122.45 178.1C152.55 178.1 177.05 153.6 177.05 123.5C177.05 114.55 176 109.05 171.8 101.15C169.25 96.45 163.4 94.7 158.7 97.2C154 99.75 152.25 105.6 154.75 110.3Z" id="aVZpHC3Qh"></path><path d="M334.4 266.6L340.7 268.65L346.65 271.35L352.15 274.75L357.25 278.75L361.8 283.3L365.8 288.35L369.2 293.9L371.9 299.85L373.9 306.1L375.15 312.7L375.6 319.55L375.15 326.35L373.9 332.95L371.9 339.25L369.2 345.15L365.8 350.7L361.8 355.75L357.25 360.35L352.15 364.35L346.65 367.7L340.7 370.45L334.4 372.45L327.85 373.7L321 374.1L314.15 373.7L307.6 372.45L301.3 370.45L295.35 367.7L289.85 364.35L284.75 360.35L280.2 355.75L276.2 350.7L272.8 345.15L270.1 339.25L268.1 332.95L266.85 326.35L266.4 319.55L266.85 312.7L268.1 306.1L270.1 299.85L272.8 293.9L276.2 288.35L280.2 283.3L284.75 278.75L289.85 274.75L295.35 271.35L301.3 268.65L307.6 266.6L314.15 265.4L321 264.95L327.85 265.4L334.4 266.6ZM307.3 287.05L301.3 290.3L296.05 294.6L291.75 299.8L288.5 305.8L286.45 312.45L285.7 319.55L286.45 326.65L288.5 333.25L291.75 339.25L296.05 344.45L301.3 348.8L307.3 352.05L313.9 354.1L321 354.8L328.1 354.1L334.7 352.05L340.7 348.8L345.95 344.45L350.25 339.25L353.5 333.25L355.55 326.65L356.3 319.55L355.55 312.45L353.5 305.8L350.25 299.8L345.95 294.6L340.7 290.3L334.7 287.05L328.1 284.95L321 284.25L313.9 284.95L307.3 287.05Z" id="a4Op7VNdU"></path><path d="M334.4 266.6L340.7 268.65L346.65 271.35L352.15 274.75L357.25 278.75L361.8 283.3L365.8 288.35L369.2 293.9L371.9 299.85L373.9 306.1L375.15 312.7L375.6 319.55L375.15 326.35L373.9 332.95L371.9 339.25L369.2 345.15L365.8 350.7L361.8 355.75L357.25 360.35L352.15 364.35L346.65 367.7L340.7 370.45L334.4 372.45L327.85 373.7L321 374.1L314.15 373.7L307.6 372.45L301.3 370.45L295.35 367.7L289.85 364.35L284.75 360.35L280.2 355.75L276.2 350.7L272.8 345.15L270.1 339.25L268.1 332.95L266.85 326.35L266.4 319.55L266.85 312.7L268.1 306.1L270.1 299.85L272.8 293.9L276.2 288.35L280.2 283.3L284.75 278.75L289.85 274.75L295.35 271.35L301.3 268.65L307.6 266.6L314.15 265.4L321 264.95L327.85 265.4L334.4 266.6ZM307.3 287.05L301.3 290.3L296.05 294.6L291.75 299.8L288.5 305.8L286.45 312.45L285.7 319.55L286.45 326.65L288.5 333.25L291.75 339.25L296.05 344.45L301.3 348.8L307.3 352.05L313.9 354.1L321 354.8L328.1 354.1L334.7 352.05L340.7 348.8L345.95 344.45L350.25 339.25L353.5 333.25L355.55 326.65L356.3 319.55L355.55 312.45L353.5 305.8L350.25 299.8L345.95 294.6L340.7 290.3L334.7 287.05L328.1 284.95L321 284.25L313.9 284.95L307.3 287.05Z" id="a1woIbMI5N"></path><path d="M524.85 458.3L531.15 460.35L537.1 463.05L542.6 466.45L547.65 470.45L552.25 475L556.25 480.05L559.6 485.6L562.35 491.55L564.35 497.8L565.6 504.4L566 511.25L565.6 518.1L564.35 524.65L562.35 530.95L559.6 536.9L556.25 542.4L552.25 547.45L547.65 552.05L542.6 556.05L537.1 559.4L531.15 562.15L524.85 564.15L518.3 565.4L511.45 565.8L504.6 565.4L498 564.15L491.75 562.15L485.8 559.4L480.3 556.05L475.2 552.05L470.65 547.45L466.65 542.4L463.25 536.9L460.55 530.95L458.55 524.65L457.3 518.1L456.85 511.25L457.3 504.4L458.55 497.8L460.55 491.55L463.25 485.6L466.65 480.1L470.65 475L475.2 470.45L480.3 466.45L485.8 463.05L491.75 460.35L498 458.35L504.6 457.1L511.45 456.65L518.3 457.1L524.85 458.3ZM497.7 478.75L491.75 482L486.5 486.3L482.2 491.55L478.95 497.5L476.9 504.15L476.15 511.25L476.9 518.35L478.95 524.95L482.2 530.95L486.5 536.2L491.75 540.5L497.7 543.75L504.35 545.8L511.45 546.5L518.55 545.8L525.15 543.75L531.15 540.5L536.4 536.2L540.7 530.95L543.95 524.95L546 518.35L546.7 511.25L546 504.15L543.95 497.5L540.7 491.55L536.4 486.3L531.15 482L525.15 478.75L518.55 476.7L511.45 475.95L504.35 476.7L497.7 478.75Z" id="bpUe8t7kD"></path><path d="M524.85 458.3L531.15 460.35L537.1 463.05L542.6 466.45L547.65 470.45L552.25 475L556.25 480.05L559.6 485.6L562.35 491.55L564.35 497.8L565.6 504.4L566 511.25L565.6 518.1L564.35 524.65L562.35 530.95L559.6 536.9L556.25 542.4L552.25 547.45L547.65 552.05L542.6 556.05L537.1 559.4L531.15 562.15L524.85 564.15L518.3 565.4L511.45 565.8L504.6 565.4L498 564.15L491.75 562.15L485.8 559.4L480.3 556.05L475.2 552.05L470.65 547.45L466.65 542.4L463.25 536.9L460.55 530.95L458.55 524.65L457.3 518.1L456.85 511.25L457.3 504.4L458.55 497.8L460.55 491.55L463.25 485.6L466.65 480.1L470.65 475L475.2 470.45L480.3 466.45L485.8 463.05L491.75 460.35L498 458.35L504.6 457.1L511.45 456.65L518.3 457.1L524.85 458.3ZM497.7 478.75L491.75 482L486.5 486.3L482.2 491.55L478.95 497.5L476.9 504.15L476.15 511.25L476.9 518.35L478.95 524.95L482.2 530.95L486.5 536.2L491.75 540.5L497.7 543.75L504.35 545.8L511.45 546.5L518.55 545.8L525.15 543.75L531.15 540.5L536.4 536.2L540.7 530.95L543.95 524.95L546 518.35L546.7 511.25L546 504.15L543.95 497.5L540.7 491.55L536.4 486.3L531.15 482L525.15 478.75L518.55 476.7L511.45 475.95L504.35 476.7L497.7 478.75Z" id="c2QevtcjVY"></path><path d="M554.9 275.15C551.1 271.45 545 271.55 541.3 275.4C539.3 277.45 529.35 287.7 511.45 306.2C493.55 287.7 483.6 277.45 481.6 275.4C477.9 271.55 471.8 271.45 467.95 275.15C464.15 278.85 464.05 284.95 467.75 288.8C469.75 290.9 479.85 301.3 498 320.1C479.85 338.85 469.75 349.25 467.75 351.35C464.05 355.2 464.15 361.3 467.95 365C469.85 366.8 472.25 367.7 474.65 367.7C477.2 367.7 479.7 366.75 481.6 364.8C483.6 362.7 493.55 352.45 511.45 333.95C529.35 352.45 539.3 362.7 541.3 364.8C543.15 366.75 545.7 367.7 548.2 367.7C550.65 367.7 553.05 366.8 554.9 365C558.75 361.3 558.85 355.2 555.15 351.35C553.15 349.25 543.05 338.85 524.85 320.1C543.05 301.3 553.15 290.9 555.15 288.8C558.85 284.95 558.75 278.85 554.9 275.15Z" id="cfFmrCOVV"></path><path d="M554.9 275.15C551.1 271.45 545 271.55 541.3 275.4C539.3 277.45 529.35 287.7 511.45 306.2C493.55 287.7 483.6 277.45 481.6 275.4C477.9 271.55 471.8 271.45 467.95 275.15C464.15 278.85 464.05 284.95 467.75 288.8C469.75 290.9 479.85 301.3 498 320.1C479.85 338.85 469.75 349.25 467.75 351.35C464.05 355.2 464.15 361.3 467.95 365C469.85 366.8 472.25 367.7 474.65 367.7C477.2 367.7 479.7 366.75 481.6 364.8C483.6 362.7 493.55 352.45 511.45 333.95C529.35 352.45 539.3 362.7 541.3 364.8C543.15 366.75 545.7 367.7 548.2 367.7C550.65 367.7 553.05 366.8 554.9 365C558.75 361.3 558.85 355.2 555.15 351.35C553.15 349.25 543.05 338.85 524.85 320.1C543.05 301.3 553.15 290.9 555.15 288.8C558.85 284.95 558.75 278.85 554.9 275.15Z" id="a4SAUIIVQ"></path><path d="M174.3 479.95C178 476.15 177.9 470 174.1 466.3C170.25 462.6 164.15 462.7 160.45 466.55C158.45 468.6 148.5 478.85 130.6 497.35C112.7 478.85 102.75 468.6 100.75 466.55C97.05 462.7 90.95 462.6 87.15 466.3C83.3 470 83.2 476.15 86.9 479.95C88.9 482.05 99 492.45 117.2 511.25C99 530 88.9 540.45 86.9 542.5C83.2 546.35 83.3 552.45 87.15 556.15C89 558 91.4 558.9 93.85 558.9C96.35 558.9 98.9 557.9 100.75 555.95C102.75 553.9 112.7 543.6 130.6 525.1C148.5 543.6 158.45 553.9 160.45 555.95C162.35 557.9 164.85 558.9 167.4 558.9C169.8 558.9 172.2 558 174.1 556.15C177.9 552.45 178 546.35 174.3 542.5C170.3 538.35 160.2 527.9 144.05 511.25C162.2 492.45 172.3 482.05 174.3 479.95Z" id="b4lJNLQ9uP"></path><path d="M174.3 479.95C178 476.15 177.9 470 174.1 466.3C170.25 462.6 164.15 462.7 160.45 466.55C158.45 468.6 148.5 478.85 130.6 497.35C112.7 478.85 102.75 468.6 100.75 466.55C97.05 462.7 90.95 462.6 87.15 466.3C83.3 470 83.2 476.15 86.9 479.95C88.9 482.05 99 492.45 117.2 511.25C99 530 88.9 540.45 86.9 542.5C83.2 546.35 83.3 552.45 87.15 556.15C89 558 91.4 558.9 93.85 558.9C96.35 558.9 98.9 557.9 100.75 555.95C102.75 553.9 112.7 543.6 130.6 525.1C148.5 543.6 158.45 553.9 160.45 555.95C162.35 557.9 164.85 558.9 167.4 558.9C169.8 558.9 172.2 558 174.1 556.15C177.9 552.45 178 546.35 174.3 542.5C170.3 538.35 160.2 527.9 144.05 511.25C162.2 492.45 172.3 482.05 174.3 479.95Z" id="bOJEAib6o"></path></defs><g><g><g><g><use xlink:href="#abHCvBcSkP" opacity="1" fill="#1eaeb1" fill-opacity="1"></use><g><use xlink:href="#abHCvBcSkP" opacity="1" fill-opacity="0" stroke="#000000" stroke-width="1" stroke-opacity="0"></use></g></g><g><use xlink:href="#b1cbubukFl" opacity="1" fill="#000000" fill-opacity="0"></use><g><use xlink:href="#b1cbubukFl" opacity="1" fill-opacity="0" stroke="#000000" stroke-width="1" stroke-opacity="0"></use></g></g><g><use xlink:href="#b1RioXSR7" opacity="1" fill="#1eaeb1" fill-opacity="1"></use><g><use xlink:href="#b1RioXSR7" opacity="1" fill-opacity="0" stroke="#000000" stroke-width="1" stroke-opacity="0"></use></g></g><g><use xlink:href="#c57HvfmjUp" opacity="1" fill="#000000" fill-opacity="0"></use><g><use xlink:href="#c57HvfmjUp" opacity="1" fill-opacity="0" stroke="#000000" stroke-width="1" stroke-opacity="0"></use></g></g><g><use xlink:href="#bc2uGlWNj" opacity="1" fill="#1eaeb1" fill-opacity="1"></use><g><use xlink:href="#bc2uGlWNj" opacity="1" fill-opacity="0" stroke="#000000" stroke-width="1" stroke-opacity="0"></use></g></g><g><use xlink:href="#aVZpHC3Qh" opacity="1" fill="#000000" fill-opacity="0"></use><g><use xlink:href="#aVZpHC3Qh" opacity="1" fill-opacity="0" stroke="#000000" stroke-width="1" stroke-opacity="0"></use></g></g><g><use xlink:href="#a4Op7VNdU" opacity="1" fill="#1eaeb1" fill-opacity="1"></use><g><use xlink:href="#a4Op7VNdU" opacity="1" fill-opacity="0" stroke="#000000" stroke-width="1" stroke-opacity="0"></use></g></g><g><use xlink:href="#a1woIbMI5N" opacity="1" fill="#000000" fill-opacity="0"></use><g><use xlink:href="#a1woIbMI5N" opacity="1" fill-opacity="0" stroke="#000000" stroke-width="1" stroke-opacity="0"></use></g></g><g><use xlink:href="#bpUe8t7kD" opacity="1" fill="#1eaeb1" fill-opacity="1"></use><g><use xlink:href="#bpUe8t7kD" opacity="1" fill-opacity="0" stroke="#000000" stroke-width="1" stroke-opacity="0"></use></g></g><g><use xlink:href="#c2QevtcjVY" opacity="1" fill="#000000" fill-opacity="0"></use><g><use xlink:href="#c2QevtcjVY" opacity="1" fill-opacity="0" stroke="#000000" stroke-width="1" stroke-opacity="0"></use></g></g><g><use xlink:href="#cfFmrCOVV" opacity="1" fill="#1eaeb1" fill-opacity="1"></use><g><use xlink:href="#cfFmrCOVV" opacity="1" fill-opacity="0" stroke="#000000" stroke-width="1" stroke-opacity="0"></use></g></g><g><use xlink:href="#a4SAUIIVQ" opacity="1" fill="#000000" fill-opacity="0"></use><g><use xlink:href="#a4SAUIIVQ" opacity="1" fill-opacity="0" stroke="#000000" stroke-width="1" stroke-opacity="0"></use></g></g><g><use xlink:href="#b4lJNLQ9uP" opacity="1" fill="#1eaeb1" fill-opacity="1"></use><g><use xlink:href="#b4lJNLQ9uP" opacity="1" fill-opacity="0" stroke="#000000" stroke-width="1" stroke-opacity="0"></use></g></g><g><use xlink:href="#bOJEAib6o" opacity="1" fill="#000000" fill-opacity="0"></use><g><use xlink:href="#bOJEAib6o" opacity="1" fill-opacity="0" stroke="#000000" stroke-width="1" stroke-opacity="0"></use></g></g></g></g></g></svg>