<?xml version="1.0" encoding="UTF-8" standalone="no"?>
<!DOCTYPE svg PUBLIC "-//W3C//DTD SVG 1.1//EN" "http://www.w3.org/Graphics/SVG/1.1/DTD/svg11.dtd">
<svg version="1.1" xmlns="http://www.w3.org/2000/svg" xmlns:xlink="http://www.w3.org/1999/xlink" preserveAspectRatio="xMidYMid meet" viewBox="0 0 130 130" width="130" height="130"><defs><path d="M88.22 15.34L89.13 15.99L90.03 16.66L90.92 17.36L91.78 18.07L92.63 18.81L93.46 19.56L94.27 20.34L95.06 21.13L95.83 21.95L96.57 22.78L97.3 23.63L98.01 24.5L98.7 25.39L99.36 26.3L100 27.22L100.62 28.16L101.22 29.11L101.79 30.08L102.34 31.07L102.86 32.07L103.36 33.09L103.84 34.12L104.28 35.16L104.71 36.22L105.1 37.29L105.47 38.37L105.81 39.46L106.13 40.57L106.42 41.69L106.67 42.82L106.9 43.96L107.1 45.11L107.27 46.27L107.41 47.44L107.52 48.62L107.6 49.8L107.65 51L107.67 52.2L107.67 54.33L107.66 54.71L107.64 55.09L107.61 55.45L107.56 55.81L107.51 56.17L107.44 56.51L107.36 56.85L107.27 57.18L107.17 57.5L107.05 57.82L106.92 58.13L106.79 58.43L106.64 58.72L106.48 59L106.31 59.28L106.13 59.54L105.94 59.8L105.74 60.05L105.53 60.28L105.31 60.51L105.09 60.73L104.85 60.94L104.6 61.14L104.34 61.33L104.08 61.51L103.8 61.68L103.52 61.84L103.23 61.99L102.93 62.13L102.62 62.25L102.31 62.37L101.99 62.47L101.66 62.56L101.32 62.64L100.97 62.71L100.62 62.77L100.26 62.81L99.89 62.84L99.52 62.86L99.14 62.87L88.28 62.92L88.21 63.32L88.12 63.71L88.02 64.1L87.91 64.48L87.79 64.86L87.65 65.24L87.51 65.61L87.35 65.97L87.18 66.33L87 66.68L86.82 67.02L86.62 67.36L86.41 67.69L86.19 68.02L85.96 68.33L85.72 68.64L85.48 68.95L85.22 69.24L84.96 69.53L84.68 69.81L84.4 70.08L84.11 70.34L83.81 70.59L83.51 70.84L83.2 71.07L82.88 71.29L82.55 71.51L82.22 71.72L81.88 71.91L81.53 72.1L81.18 72.27L80.82 72.44L80.45 72.59L80.08 72.73L79.71 72.86L79.32 72.98L78.94 73.09L78.55 73.19L78.15 73.27L77.75 73.35L77.72 73.97L77.67 74.58L77.61 75.16L77.54 75.73L77.46 76.28L77.37 76.82L77.27 77.33L77.15 77.83L77.02 78.31L76.88 78.77L76.72 79.21L76.55 79.64L76.37 80.06L76.17 80.46L75.96 80.84L75.73 81.21L75.49 81.56L75.24 81.9L74.97 82.22L74.68 82.53L74.38 82.83L74.06 83.11L73.73 83.38L73.38 83.64L73.01 83.89L72.62 84.12L72.22 84.35L71.8 84.56L71.36 84.76L70.91 84.95L70.43 85.12L69.94 85.29L69.43 85.45L68.9 85.6L68.35 85.74L67.78 85.87L67.19 85.99L66.58 86.11L65.95 86.21L65.3 86.31L64.75 86.4L64.2 86.51L63.65 86.64L63.12 86.79L62.59 86.96L62.08 87.14L61.57 87.35L61.07 87.57L60.58 87.81L60.1 88.06L59.64 88.33L59.18 88.62L58.73 88.92L58.3 89.24L57.87 89.57L57.46 89.92L57.07 90.28L56.68 90.65L56.31 91.04L55.95 91.44L55.61 91.85L55.28 92.27L54.96 92.7L54.66 93.15L54.38 93.6L54.11 94.07L53.85 94.54L53.62 95.03L53.4 95.52L53.2 96.02L53.01 96.53L52.85 97.05L52.7 97.58L52.57 98.11L52.46 98.65L52.36 99.19L52.29 99.74L52.24 100.3L52.21 100.85L52.2 101.42L52.2 114.07L52.2 114.15L52.19 114.24L52.18 114.33L52.17 114.41L52.16 114.5L52.14 114.58L52.12 114.66L52.09 114.74L52.06 114.82L52.03 114.9L52 114.97L51.96 115.05L51.92 115.12L51.88 115.19L51.84 115.26L51.79 115.33L51.74 115.39L51.69 115.45L51.63 115.52L51.58 115.57L51.52 115.63L51.46 115.69L51.39 115.74L51.33 115.79L51.26 115.84L51.19 115.88L51.12 115.92L51.05 115.96L50.97 116L50.9 116.03L50.82 116.06L50.74 116.09L50.66 116.12L50.58 116.14L50.5 116.16L50.41 116.17L50.33 116.18L50.24 116.19L50.15 116.2L50.07 116.2L39.4 116.2L39.31 116.2L39.22 116.19L39.14 116.18L39.05 116.17L38.97 116.16L38.89 116.14L38.81 116.12L38.73 116.09L38.65 116.06L38.57 116.03L38.49 116L38.42 115.96L38.35 115.92L38.28 115.88L38.21 115.84L38.14 115.79L38.07 115.74L38.01 115.69L37.95 115.63L37.89 115.57L37.83 115.52L37.78 115.45L37.73 115.39L37.68 115.33L37.63 115.26L37.59 115.19L37.54 115.12L37.5 115.05L37.47 114.97L37.43 114.9L37.4 114.82L37.38 114.74L37.35 114.66L37.33 114.58L37.31 114.5L37.29 114.41L37.28 114.33L37.27 114.24L37.27 114.15L37.27 114.07L37.27 77.56L28.95 83.3L28.73 83.44L28.51 83.59L28.29 83.73L28.07 83.86L27.85 84L27.62 84.13L27.39 84.25L27.16 84.38L26.93 84.5L26.7 84.61L26.46 84.72L26.23 84.83L25.99 84.94L25.75 85.04L25.51 85.13L25.27 85.23L25.03 85.32L24.79 85.4L24.54 85.49L24.3 85.56L24.05 85.64L23.8 85.71L23.55 85.78L23.3 85.84L23.05 85.9L22.8 85.96L22.54 86.01L22.29 86.06L22.03 86.1L21.77 86.14L21.52 86.18L21.26 86.21L21 86.24L20.74 86.27L20.48 86.29L20.22 86.31L19.96 86.32L19.69 86.33L19.43 86.34L19.16 86.34L18.55 86.33L17.95 86.29L17.34 86.24L16.75 86.17L16.16 86.07L15.57 85.96L15 85.82L14.42 85.67L13.86 85.49L13.3 85.3L12.76 85.09L12.22 84.86L11.69 84.62L11.17 84.35L10.66 84.07L10.15 83.77L9.66 83.46L9.19 83.13L8.72 82.78L8.26 82.42L7.82 82.05L7.39 81.66L6.97 81.25L6.57 80.83L6.18 80.4L5.8 79.95L5.44 79.49L5.1 79.02L4.77 78.54L4.45 78.04L4.16 77.53L3.88 77.02L3.61 76.49L3.37 75.95L3.14 75.39L2.93 74.83L2.74 74.26L2.57 73.68L2.42 73.1L2.29 72.5L1.32 67.68L1.29 67.49L1.25 67.3L1.22 67.12L1.19 66.93L1.17 66.74L1.14 66.55L1.12 66.35L1.1 66.16L1.08 65.97L1.07 65.78L1.05 65.59L1.04 65.39L1.03 65.2L1.03 65.01L1.02 64.81L1.02 64.62L1.02 64.43L1.03 64.23L1.03 64.04L1.04 63.84L1.05 63.65L1.06 63.45L1.07 63.26L1.09 63.06L1.11 62.87L1.13 62.68L1.15 62.48L1.17 62.29L1.2 62.09L1.23 61.9L1.26 61.7L1.3 61.51L1.33 61.31L1.37 61.12L1.41 60.92L1.45 60.73L1.49 60.54L1.54 60.34L1.59 60.15L1.64 59.96L1.61 59.87L1.58 59.79L1.55 59.71L1.52 59.62L1.49 59.54L1.47 59.45L1.44 59.37L1.41 59.29L1.39 59.2L1.37 59.12L1.34 59.03L1.32 58.95L1.3 58.86L1.28 58.77L1.26 58.69L1.24 58.6L1.22 58.51L1.2 58.43L1.18 58.34L1.16 58.25L1.15 58.16L1.13 58.08L1.12 57.99L1.11 57.9L1.09 57.81L1.08 57.72L1.07 57.64L1.06 57.55L1.05 57.46L1.04 57.37L1.03 57.28L1.03 57.19L1.02 57.1L1.02 57.01L1.01 56.92L1.01 56.83L1 56.74L1 56.65L1 56.56L1 56.47L1 50.07L1.96 47.96L2.92 45.91L3.9 43.91L4.87 41.96L5.85 40.07L6.84 38.23L7.63 36.81L7.34 37.61L7.02 38.59L6.72 39.58L6.45 40.59L6.21 41.6L5.99 42.63L5.8 43.67L5.64 44.71L5.51 45.77L5.4 46.83L5.33 47.9L5.28 48.98L5.27 50.07L5.27 51.9L5.58 51.68L5.89 51.47L6.19 51.26L6.48 51.05L6.77 50.84L7.04 50.62L7.31 50.41L7.57 50.2L7.82 49.99L8.07 49.78L8.3 49.57L8.53 49.36L8.75 49.16L8.96 48.95L9.17 48.74L9.36 48.53L9.55 48.33L9.73 48.12L9.9 47.91L10.07 47.71L10.22 47.5L10.37 47.3L10.51 47.09L10.64 46.89L10.77 46.68L10.88 46.48L10.99 46.28L11.09 46.07L11.18 45.87L11.27 45.67L11.34 45.47L11.41 45.26L11.47 45.06L11.52 44.86L11.57 44.66L11.6 44.46L11.63 44.26L11.65 44.06L11.66 43.86L11.67 43.67L15.93 43.67L15.92 44.14L15.9 44.61L15.86 45.07L15.8 45.53L15.72 45.98L15.63 46.43L15.53 46.87L15.4 47.31L15.27 47.74L15.12 48.16L14.95 48.58L14.77 48.99L14.58 49.39L14.37 49.78L14.15 50.17L13.92 50.55L13.67 50.91L13.42 51.27L13.15 51.62L12.87 51.96L12.57 52.29L12.27 52.61L11.96 52.92L11.63 53.22L11.3 53.51L10.95 53.78L10.6 54.05L10.24 54.3L9.86 54.54L9.48 54.76L9.09 54.98L8.7 55.18L8.29 55.37L7.88 55.54L7.46 55.7L7.03 55.84L6.6 55.97L6.16 56.09L5.72 56.19L5.27 56.27L5.27 56.47L5.27 56.6L5.27 56.72L5.28 56.85L5.29 56.98L5.3 57.1L5.32 57.23L5.34 57.36L5.36 57.48L5.38 57.6L5.41 57.73L5.44 57.85L5.47 57.97L5.5 58.09L5.54 58.21L5.58 58.33L5.62 58.45L5.67 58.56L5.71 58.68L5.76 58.79L5.82 58.91L5.87 59.02L5.93 59.13L5.99 59.24L6.05 59.35L6.11 59.45L6.18 59.56L6.25 59.66L6.32 59.77L6.4 59.87L6.47 59.97L6.55 60.06L6.63 60.16L6.72 60.26L6.8 60.35L6.89 60.44L6.98 60.53L7.07 60.62L7.17 60.7L7.27 60.79L7.36 60.87L7.47 60.95L7.57 61.03L7.67 61.1L7.78 61.17L7.88 61.24L7.99 61.31L8.1 61.38L8.21 61.44L8.32 61.5L8.43 61.56L8.55 61.61L8.66 61.66L8.78 61.71L8.89 61.76L9.01 61.8L9.13 61.84L9.25 61.88L9.36 61.92L9.49 61.95L9.61 61.98L9.73 62.01L9.85 62.03L9.97 62.06L10.1 62.08L10.22 62.09L10.34 62.11L10.47 62.12L10.59 62.13L10.72 62.13L10.84 62.14L10.97 62.14L11.1 62.14L11.22 62.13L11.35 62.12L11.47 62.11L11.6 62.1L11.73 62.08L11.85 62.06L11.98 62.04L12.1 62.02L20.1 60.33L20.34 60.28L20.58 60.23L20.82 60.19L21.05 60.14L21.29 60.1L21.53 60.06L21.77 60.01L22.01 59.97L22.25 59.93L22.49 59.9L22.73 59.86L22.97 59.82L23.21 59.79L23.45 59.76L23.69 59.73L23.94 59.7L24.18 59.67L24.42 59.64L24.66 59.61L24.9 59.59L25.14 59.56L25.38 59.54L25.62 59.52L25.87 59.5L26.11 59.48L26.35 59.46L26.59 59.44L26.83 59.43L27.07 59.41L27.32 59.4L27.56 59.39L27.8 59.38L28.04 59.37L28.28 59.36L28.53 59.35L28.77 59.34L29.01 59.33L29.25 59.33L29.49 59.33L29.74 59.32L29.79 59.26L29.84 59.2L29.89 59.14L29.94 59.08L29.99 59.02L30.04 58.96L30.08 58.89L30.13 58.83L30.17 58.76L30.21 58.7L30.25 58.63L30.29 58.56L30.33 58.49L30.37 58.43L30.41 58.36L30.44 58.29L30.47 58.22L30.51 58.15L30.54 58.07L30.57 58L30.6 57.93L30.62 57.86L30.65 57.78L30.67 57.71L30.7 57.63L30.72 57.56L30.74 57.48L30.76 57.41L30.77 57.33L30.79 57.25L30.8 57.18L30.82 57.1L30.83 57.02L30.84 56.94L30.85 56.86L30.85 56.78L30.86 56.71L30.86 56.63L30.87 56.55L30.87 56.47L30.87 54.33L30.86 54.16L30.85 53.98L30.83 53.81L30.81 53.64L30.78 53.47L30.74 53.31L30.7 53.15L30.65 52.99L30.59 52.83L30.53 52.67L30.46 52.52L30.39 52.37L30.31 52.23L30.23 52.09L30.14 51.95L30.04 51.81L29.94 51.68L29.84 51.56L29.73 51.44L29.61 51.32L29.5 51.2L29.37 51.09L29.25 50.99L29.12 50.89L28.98 50.8L28.85 50.71L28.7 50.62L28.56 50.54L28.41 50.47L28.26 50.4L28.1 50.34L27.95 50.28L27.79 50.23L27.62 50.19L27.46 50.15L27.29 50.12L27.12 50.1L26.95 50.08L26.78 50.07L26.6 50.07L26.25 50.06L25.9 50.04L25.56 50L25.22 49.95L24.88 49.89L24.55 49.82L24.23 49.73L23.9 49.63L23.59 49.52L23.28 49.39L22.98 49.26L22.68 49.11L22.39 48.95L22.11 48.79L21.83 48.61L21.56 48.42L21.3 48.22L21.05 48.01L20.8 47.79L20.57 47.56L20.34 47.33L20.12 47.08L19.91 46.83L19.71 46.57L19.53 46.3L19.35 46.02L19.18 45.74L19.02 45.45L18.87 45.15L18.74 44.85L18.61 44.54L18.5 44.23L18.4 43.91L18.31 43.58L18.24 43.25L18.18 42.92L18.13 42.58L18.09 42.23L18.07 41.88L18.07 41.53L18.07 39.4L18.07 39.05L18.09 38.7L18.13 38.36L18.18 38.02L18.24 37.68L18.31 37.35L18.4 37.03L18.5 36.71L18.61 36.39L18.74 36.08L18.87 35.78L19.02 35.48L19.18 35.19L19.35 34.91L19.53 34.63L19.71 34.36L19.91 34.1L20.12 33.85L20.34 33.6L20.57 33.37L20.8 33.14L21.05 32.92L21.3 32.71L21.56 32.52L21.83 32.33L22.11 32.15L22.39 31.98L22.68 31.82L22.98 31.67L23.28 31.54L23.59 31.41L23.9 31.3L24.23 31.2L24.55 31.12L24.88 31.04L25.22 30.98L25.56 30.93L25.9 30.89L26.25 30.87L26.6 30.87L37.27 30.87L37.27 35.13L26.6 35.13L26.42 35.14L26.25 35.15L26.08 35.16L25.91 35.19L25.74 35.22L25.58 35.26L25.41 35.3L25.25 35.35L25.1 35.41L24.94 35.47L24.79 35.54L24.64 35.61L24.5 35.69L24.35 35.77L24.22 35.86L24.08 35.96L23.95 36.06L23.82 36.16L23.7 36.27L23.58 36.38L23.47 36.5L23.36 36.62L23.26 36.75L23.16 36.88L23.06 37.02L22.97 37.15L22.89 37.3L22.81 37.44L22.74 37.59L22.67 37.74L22.61 37.9L22.55 38.05L22.5 38.21L22.46 38.38L22.42 38.54L22.39 38.71L22.36 38.88L22.35 39.05L22.34 39.22L22.33 39.4L22.33 41.53L22.34 41.71L22.35 41.88L22.36 42.05L22.39 42.22L22.42 42.39L22.46 42.56L22.5 42.72L22.55 42.88L22.61 43.04L22.67 43.19L22.74 43.34L22.81 43.49L22.89 43.64L22.97 43.78L23.06 43.92L23.16 44.05L23.26 44.18L23.36 44.31L23.47 44.43L23.58 44.55L23.7 44.66L23.82 44.77L23.95 44.88L24.08 44.98L24.22 45.07L24.35 45.16L24.5 45.24L24.64 45.32L24.79 45.4L24.94 45.46L25.1 45.53L25.25 45.58L25.41 45.63L25.58 45.68L25.74 45.71L25.91 45.74L26.08 45.77L26.25 45.79L26.42 45.8L26.6 45.8L26.95 45.81L27.3 45.83L27.64 45.86L27.98 45.91L28.32 45.97L28.65 46.05L28.97 46.14L29.29 46.24L29.61 46.35L29.92 46.47L30.22 46.61L30.52 46.75L30.81 46.91L31.09 47.08L31.37 47.26L31.64 47.45L31.9 47.65L32.15 47.86L32.39 48.07L32.63 48.3L32.86 48.54L33.08 48.78L33.29 49.04L33.48 49.3L33.67 49.57L33.85 49.84L34.02 50.12L34.18 50.41L34.33 50.71L34.46 51.01L34.59 51.32L34.7 51.64L34.8 51.96L34.88 52.29L34.96 52.62L35.02 52.95L35.07 53.29L35.1 53.63L35.13 53.98L35.13 54.33L35.13 56.47L35.13 56.55L35.13 56.62L35.13 56.7L35.13 56.78L35.12 56.86L35.12 56.94L35.11 57.02L35.11 57.1L35.1 57.17L35.09 57.25L35.08 57.33L35.07 57.41L35.06 57.48L35.05 57.56L35.04 57.64L35.03 57.72L35.01 57.79L35 57.87L34.99 57.95L34.97 58.02L34.96 58.1L34.94 58.18L34.92 58.25L34.9 58.33L34.88 58.4L34.87 58.48L34.85 58.55L34.82 58.63L34.8 58.7L34.78 58.78L34.76 58.85L34.74 58.93L34.71 59L34.69 59.07L34.66 59.15L34.64 59.22L34.61 59.29L34.59 59.37L34.56 59.44L34.53 59.51L34.87 59.54L35.22 59.58L35.56 59.61L35.9 59.65L36.24 59.69L36.58 59.73L36.92 59.78L37.26 59.82L37.6 59.87L37.94 59.93L38.28 59.98L38.62 60.04L38.96 60.09L39.3 60.16L39.64 60.22L39.97 60.28L40.31 60.35L40.65 60.42L40.98 60.5L41.32 60.57L41.65 60.65L41.99 60.73L42.32 60.81L42.65 60.89L42.99 60.98L43.32 61.07L43.65 61.16L43.98 61.25L44.31 61.35L44.64 61.45L44.97 61.55L45.3 61.65L45.63 61.76L45.95 61.86L46.28 61.97L46.61 62.09L46.93 62.2L47.26 62.32L47.58 62.44L47.9 62.56L47.88 62.22L47.85 61.88L47.81 61.55L47.75 61.22L47.68 60.9L47.6 60.58L47.5 60.26L47.4 59.95L47.28 59.65L47.15 59.35L47.01 59.06L46.86 58.77L46.7 58.49L46.53 58.22L46.35 57.95L46.16 57.69L45.96 57.44L45.76 57.2L45.54 56.96L45.31 56.74L45.08 56.52L44.84 56.31L44.59 56.11L44.33 55.92L44.07 55.73L43.8 55.56L43.52 55.4L43.23 55.25L42.94 55.11L42.65 54.98L42.34 54.86L42.03 54.75L41.72 54.65L41.4 54.57L41.08 54.5L40.75 54.44L40.42 54.39L40.08 54.36L39.74 54.34L39.4 54.33L37.27 54.33L37.27 50.07L39.4 50.07L39.93 50.08L40.45 50.11L40.96 50.16L41.47 50.23L41.98 50.33L42.47 50.44L42.96 50.57L43.44 50.72L43.91 50.89L44.38 51.07L44.83 51.28L45.28 51.5L45.71 51.73L46.14 51.99L46.55 52.26L46.95 52.54L47.35 52.84L47.73 53.15L48.09 53.48L48.45 53.82L48.79 54.17L49.11 54.54L49.43 54.92L49.73 55.31L50.01 55.71L50.28 56.13L50.53 56.55L50.77 56.99L50.99 57.43L51.19 57.89L51.38 58.35L51.55 58.82L51.7 59.31L51.83 59.79L51.94 60.29L52.03 60.79L52.1 61.3L52.16 61.82L52.19 62.34L52.2 62.87L52.2 64.42L52.21 64.42L52.23 64.43L52.24 64.44L52.26 64.45L52.28 64.46L52.3 64.47L52.32 64.47L52.33 64.48L52.33 64.48L52.34 64.48L52.81 64.72L53.29 64.94L53.76 65.16L54.24 65.38L54.72 65.59L55.21 65.79L55.69 65.99L56.18 66.18L56.67 66.37L57.16 66.55L57.66 66.73L58.16 66.9L58.65 67.06L59.15 67.22L59.66 67.37L60.16 67.52L60.67 67.66L61.17 67.8L61.68 67.92L62.19 68.05L62.71 68.17L63.22 68.28L63.73 68.38L64.25 68.48L64.77 68.58L65.28 68.67L65.8 68.75L66.32 68.82L66.84 68.89L67.36 68.96L67.88 69.02L68.41 69.07L68.93 69.12L69.45 69.16L69.98 69.19L70.5 69.22L71.03 69.24L71.55 69.25L72.07 69.26L72.6 69.27L73.53 69.27L73.53 69.18L73.53 69.09L73.52 69.01L73.5 68.92L73.49 68.84L73.47 68.75L73.45 68.67L73.42 68.59L73.4 68.51L73.36 68.44L73.33 68.36L73.29 68.29L73.25 68.21L73.21 68.14L73.17 68.07L73.12 68.01L73.07 67.94L73.02 67.88L72.96 67.82L72.91 67.76L72.85 67.7L72.79 67.65L72.72 67.59L72.66 67.55L72.59 67.5L72.52 67.45L72.45 67.41L72.38 67.37L72.31 67.33L72.23 67.3L72.15 67.27L72.07 67.24L71.99 67.22L71.91 67.2L71.83 67.18L71.75 67.16L71.66 67.15L71.57 67.14L71.49 67.13L71.4 67.13L65 67.13L64.74 67.13L64.48 67.11L64.22 67.09L63.96 67.05L63.71 67L63.46 66.95L63.22 66.88L62.98 66.81L62.74 66.72L62.51 66.63L62.28 66.53L62.06 66.42L61.84 66.3L61.63 66.17L61.42 66.04L61.22 65.9L61.03 65.75L60.84 65.59L60.65 65.43L60.48 65.26L60.31 65.08L60.14 64.9L59.99 64.71L59.84 64.51L59.69 64.31L59.56 64.1L59.43 63.89L59.31 63.67L59.2 63.45L59.1 63.22L59.01 62.99L58.93 62.75L58.85 62.51L58.79 62.27L58.73 62.02L58.68 61.77L58.65 61.51L58.62 61.26L58.6 61L58.6 60.73L58.6 52.2L62.87 52.2L62.87 60.73L62.87 60.82L62.87 60.91L62.88 60.99L62.89 61.08L62.91 61.16L62.93 61.24L62.95 61.33L62.97 61.41L63 61.49L63.03 61.56L63.07 61.64L63.1 61.71L63.14 61.78L63.19 61.86L63.23 61.92L63.28 61.99L63.33 62.06L63.38 62.12L63.43 62.18L63.49 62.24L63.55 62.3L63.61 62.35L63.67 62.4L63.74 62.45L63.81 62.5L63.88 62.55L63.95 62.59L64.02 62.63L64.09 62.66L64.17 62.7L64.25 62.73L64.33 62.76L64.41 62.78L64.49 62.8L64.57 62.82L64.65 62.84L64.74 62.85L64.82 62.86L64.91 62.86L65 62.87L71.4 62.87L71.66 62.87L71.91 62.89L72.16 62.91L72.41 62.95L72.65 62.99L72.89 63.04L73.13 63.11L73.36 63.18L73.59 63.26L73.82 63.34L74.04 63.44L74.26 63.54L74.47 63.66L74.68 63.78L74.88 63.91L75.08 64.04L75.27 64.18L75.46 64.33L75.64 64.49L75.81 64.65L75.98 64.82L76.14 64.99L76.3 65.17L76.45 65.36L76.59 65.55L76.73 65.75L76.85 65.95L76.97 66.16L77.09 66.37L77.19 66.59L77.29 66.81L77.38 67.04L77.46 67.27L77.53 67.5L77.59 67.74L77.65 67.98L77.69 68.23L77.73 68.47L77.75 68.72L77.77 68.98L78.04 68.9L78.32 68.82L78.58 68.73L78.85 68.63L79.1 68.52L79.36 68.4L79.61 68.28L79.85 68.14L80.09 68L80.33 67.85L80.56 67.7L80.78 67.54L81 67.37L81.22 67.19L81.42 67.01L81.62 66.82L81.82 66.62L82.01 66.42L82.19 66.22L82.37 66L82.53 65.78L82.7 65.56L82.85 65.33L83 65.09L83.14 64.85L83.27 64.61L83.39 64.36L83.51 64.1L83.61 63.84L83.71 63.58L83.8 63.31L83.88 63.04L83.96 62.77L84.02 62.49L84.07 62.21L84.12 61.92L84.15 61.63L84.18 61.34L84.19 61.05L84.2 60.75L84.19 60.4L84.17 60.06L84.14 59.72L84.09 59.38L84.03 59.05L83.95 58.72L83.87 58.4L83.77 58.08L83.66 57.77L83.53 57.46L83.4 57.16L83.26 56.86L83.1 56.58L82.93 56.29L82.75 56.02L82.57 55.75L82.37 55.49L82.16 55.24L81.95 55L81.72 54.76L81.49 54.53L81.25 54.32L81 54.11L80.74 53.91L80.47 53.72L80.2 53.54L79.92 53.37L79.63 53.21L79.34 53.06L79.04 52.93L78.73 52.8L78.42 52.69L78.1 52.59L77.78 52.5L77.45 52.42L77.12 52.36L76.79 52.31L76.45 52.27L76.1 52.25L75.75 52.24L71.38 52.2L71.42 47.93L75.79 47.97L76.26 47.98L76.72 48.01L77.18 48.06L77.64 48.12L78.09 48.2L78.53 48.29L78.97 48.4L79.4 48.52L79.83 48.66L80.25 48.81L80.66 48.98L81.07 49.16L81.46 49.36L81.86 49.57L82.24 49.79L82.61 50.02L82.98 50.27L83.33 50.53L83.68 50.8L84.02 51.08L84.34 51.37L84.66 51.67L84.97 51.99L85.26 52.31L85.55 52.65L85.82 52.99L86.09 53.34L86.34 53.71L86.57 54.08L86.8 54.46L87.01 54.84L87.21 55.24L87.39 55.64L87.57 56.05L87.72 56.47L87.87 56.89L88 57.32L88.11 57.76L88.21 58.2L88.29 58.65L99.13 58.6L99.33 58.6L99.53 58.59L99.72 58.57L99.91 58.55L100.09 58.53L100.27 58.5L100.45 58.46L100.62 58.42L100.78 58.37L100.94 58.31L101.1 58.26L101.25 58.19L101.4 58.12L101.54 58.05L101.67 57.96L101.81 57.88L101.93 57.79L102.05 57.69L102.17 57.59L102.28 57.48L102.39 57.37L102.49 57.25L102.59 57.13L102.68 57.01L102.76 56.87L102.84 56.74L102.92 56.6L102.99 56.45L103.05 56.3L103.11 56.14L103.17 55.98L103.22 55.82L103.26 55.65L103.3 55.47L103.33 55.3L103.35 55.11L103.37 54.92L103.39 54.73L103.4 54.53L103.4 54.33L103.39 53.98L103.37 53.63L103.34 53.29L103.29 52.95L103.23 52.62L103.15 52.29L103.06 51.96L102.96 51.64L102.85 51.32L102.73 51.01L102.59 50.71L102.45 50.41L102.29 50.12L102.12 49.84L101.94 49.57L101.75 49.3L101.55 49.04L101.34 48.78L101.12 48.54L100.9 48.3L100.66 48.07L100.42 47.86L100.16 47.65L99.9 47.45L99.63 47.26L99.36 47.08L99.07 46.91L98.78 46.75L98.49 46.61L98.18 46.47L97.88 46.35L97.56 46.24L97.24 46.14L96.91 46.05L96.58 45.97L96.25 45.91L95.91 45.86L95.56 45.83L95.22 45.81L94.34 45.79L93.82 45.76L93.3 45.7L92.79 45.63L92.29 45.54L91.79 45.43L91.3 45.3L90.82 45.15L90.35 44.98L89.89 44.79L89.43 44.59L88.99 44.37L88.55 44.13L88.13 43.88L87.71 43.61L87.31 43.33L86.92 43.03L86.54 42.72L86.17 42.39L85.82 42.05L85.48 41.69L85.15 41.33L84.84 40.95L84.54 40.55L84.25 40.15L83.99 39.74L83.73 39.31L83.5 38.88L83.28 38.43L83.07 37.98L82.89 37.51L82.72 37.04L82.57 36.56L82.44 36.07L82.33 35.58L82.23 35.07L82.16 34.56L82.11 34.05L82.08 33.53L82.07 33L82.07 24.47L86.33 24.47L86.33 33L86.34 33.35L86.36 33.7L86.4 34.04L86.44 34.38L86.51 34.72L86.58 35.05L86.67 35.37L86.77 35.69L86.88 36.01L87 36.32L87.14 36.62L87.29 36.92L87.44 37.21L87.61 37.49L87.79 37.77L87.98 38.04L88.18 38.3L88.39 38.55L88.61 38.79L88.83 39.03L89.07 39.26L89.31 39.48L89.57 39.69L89.83 39.88L90.1 40.07L90.37 40.25L90.66 40.42L90.95 40.58L91.24 40.73L91.55 40.86L91.86 40.99L92.17 41.1L92.49 41.2L92.82 41.28L93.15 41.36L93.48 41.42L93.82 41.47L94.17 41.5L94.51 41.53L94.87 41.53L95.08 41.54L95.3 41.54L95.51 41.55L95.73 41.56L95.94 41.58L96.16 41.6L96.37 41.62L96.58 41.65L96.79 41.68L97 41.71L97.2 41.75L97.41 41.79L97.61 41.83L97.82 41.88L98.02 41.93L98.22 41.98L98.42 42.04L98.62 42.1L98.82 42.16L99.01 42.23L99.2 42.3L99.4 42.37L99.59 42.45L99.78 42.52L99.97 42.6L100.15 42.69L100.34 42.78L100.52 42.86L100.7 42.96L100.88 43.05L101.06 43.15L101.24 43.25L101.42 43.35L101.59 43.46L101.76 43.57L101.93 43.68L102.1 43.79L102.26 43.91L102.43 44.03L102.59 44.15L102.42 43.34L102.23 42.54L102.02 41.74L101.8 40.95L101.57 40.16L101.32 39.39L101.05 38.61L100.77 37.85L100.47 37.09L100.16 36.35L99.83 35.6L99.49 34.87L99.14 34.14L98.77 33.43L98.39 32.72L97.99 32.02L97.58 31.33L97.16 30.64L96.73 29.97L96.28 29.3L95.82 28.65L95.34 28L94.86 27.37L94.36 26.74L93.85 26.13L93.33 25.52L92.79 24.92L92.25 24.34L91.69 23.77L91.12 23.2L90.55 22.65L89.96 22.11L89.36 21.58L88.75 21.06L88.13 20.56L87.5 20.06L86.86 19.58L86.21 19.11L85.55 18.66L84.88 18.21L84.49 18.27L84.11 18.35L83.73 18.44L83.36 18.54L82.99 18.65L82.63 18.78L82.28 18.92L81.93 19.07L81.59 19.23L81.25 19.4L80.92 19.59L80.6 19.78L80.29 19.99L79.98 20.21L79.68 20.44L79.39 20.68L79.11 20.92L78.84 21.18L78.58 21.45L78.33 21.72L78.08 22.01L77.85 22.3L77.63 22.6L77.41 22.91L77.21 23.23L77.02 23.55L76.84 23.88L76.68 24.22L76.52 24.57L76.38 24.92L76.24 25.28L76.13 25.64L76.02 26.01L75.93 26.39L75.85 26.77L75.78 27.15L75.73 27.54L75.7 27.93L75.67 28.33L75.67 28.73L75.67 33L71.4 33L71.4 28.73L71.41 28.3L71.42 27.86L71.46 27.43L71.5 27L71.55 26.58L71.62 26.16L71.7 25.74L71.79 25.33L71.89 24.93L72.01 24.52L72.13 24.12L72.26 23.73L72.41 23.34L72.56 22.96L72.73 22.58L72.91 22.21L73.09 21.84L73.29 21.48L73.49 21.13L73.71 20.78L73.93 20.44L74.16 20.1L74.41 19.77L74.66 19.45L74.92 19.13L75.18 18.83L75.46 18.53L75.74 18.23L76.03 17.95L76.33 17.67L76.64 17.4L76.95 17.14L77.27 16.89L77.6 16.65L77.93 16.41L78.27 16.18L78.62 15.97L78.97 15.76L79.33 15.56L79.7 15.37L79.31 15.2L78.92 15.03L78.53 14.86L78.14 14.7L77.75 14.54L77.35 14.38L76.95 14.23L76.55 14.08L76.15 13.94L75.75 13.8L75.34 13.66L74.93 13.53L74.53 13.41L74.11 13.28L73.7 13.17L73.29 13.05L72.87 12.94L72.45 12.83L72.03 12.73L71.61 12.64L71.19 12.54L70.76 12.46L70.34 12.37L69.91 12.29L69.48 12.22L69.05 12.15L68.62 12.08L68.18 12.02L67.75 11.97L67.31 11.91L66.87 11.87L66.43 11.83L65.99 11.79L65.55 11.76L65.1 11.73L64.66 11.71L64.21 11.69L63.76 11.68L63.32 11.67L62.87 11.67L50.94 11.67L50.9 11.73L50.86 11.78L50.82 11.84L50.78 11.9L50.74 11.96L50.7 12.02L50.67 12.07L50.63 12.13L50.6 12.19L50.56 12.24L50.53 12.3L50.5 12.36L50.47 12.41L50.44 12.47L50.41 12.52L50.39 12.58L50.36 12.63L50.34 12.69L50.31 12.74L50.29 12.8L50.27 12.85L50.25 12.9L50.23 12.96L50.21 13.01L50.19 13.06L50.18 13.11L50.16 13.16L50.15 13.22L50.13 13.27L50.12 13.32L50.11 13.37L50.1 13.42L50.09 13.47L50.09 13.51L50.08 13.56L50.07 13.61L50.07 13.66L50.07 13.71L50.07 13.75L50.07 13.8L50.07 15.93L50.07 16.1L50.08 16.27L50.1 16.44L50.13 16.61L50.16 16.77L50.21 16.93L50.25 17.09L50.31 17.25L50.37 17.41L50.44 17.56L50.52 17.71L50.6 17.86L50.69 18L50.78 18.14L50.88 18.28L50.98 18.42L51.09 18.55L51.21 18.68L51.33 18.8L51.46 18.92L51.59 19.03L51.72 19.14L51.86 19.25L52 19.35L52.15 19.45L52.3 19.54L52.45 19.63L52.61 19.71L52.77 19.78L52.93 19.85L53.1 19.92L53.27 19.97L53.44 20.03L53.61 20.07L53.79 20.11L53.97 20.14L54.15 20.17L54.33 20.19L54.51 20.2L54.69 20.2L55.4 20.2L55.79 20.21L56.19 20.23L56.57 20.27L56.95 20.33L57.33 20.4L57.7 20.48L58.07 20.58L58.43 20.69L58.78 20.82L59.13 20.96L59.47 21.11L59.81 21.27L60.13 21.45L60.45 21.64L60.76 21.84L61.07 22.05L61.36 22.28L61.64 22.51L61.92 22.76L62.18 23.01L62.44 23.28L62.69 23.56L62.92 23.84L63.14 24.13L63.36 24.44L63.56 24.75L63.75 25.07L63.93 25.39L64.09 25.73L64.24 26.07L64.38 26.41L64.51 26.77L64.62 27.13L64.72 27.5L64.8 27.87L64.87 28.24L64.93 28.63L64.97 29.01L64.99 29.4L65 29.8L64.99 30.2L64.97 30.59L64.93 30.97L64.87 31.36L64.8 31.73L64.72 32.1L64.62 32.47L64.51 32.83L64.38 33.19L64.24 33.53L64.09 33.87L63.93 34.21L63.75 34.53L63.56 34.85L63.36 35.16L63.14 35.47L62.92 35.76L62.69 36.04L62.44 36.32L62.18 36.59L61.92 36.84L61.64 37.09L61.36 37.32L61.07 37.55L60.76 37.76L60.45 37.96L60.13 38.15L59.81 38.33L59.47 38.49L59.13 38.64L58.78 38.78L58.43 38.91L58.07 39.02L57.7 39.12L57.33 39.2L56.95 39.27L56.57 39.33L56.19 39.37L55.79 39.39L55.4 39.4L43.67 39.4L43.67 35.13L55.4 35.13L55.62 35.13L55.84 35.12L56.05 35.09L56.26 35.06L56.47 35.02L56.68 34.98L56.88 34.92L57.08 34.86L57.28 34.79L57.47 34.71L57.66 34.63L57.85 34.54L58.03 34.44L58.21 34.33L58.38 34.22L58.55 34.1L58.71 33.98L58.87 33.85L59.02 33.71L59.17 33.57L59.31 33.42L59.45 33.27L59.58 33.11L59.7 32.95L59.82 32.78L59.93 32.61L60.04 32.43L60.14 32.25L60.23 32.06L60.31 31.87L60.39 31.68L60.46 31.48L60.52 31.28L60.58 31.08L60.62 30.87L60.66 30.66L60.69 30.45L60.71 30.24L60.73 30.02L60.73 29.8L60.73 29.58L60.71 29.36L60.69 29.15L60.66 28.94L60.62 28.73L60.58 28.52L60.52 28.32L60.46 28.12L60.39 27.92L60.31 27.73L60.23 27.54L60.14 27.35L60.04 27.17L59.93 26.99L59.82 26.82L59.7 26.65L59.58 26.49L59.45 26.33L59.31 26.18L59.17 26.03L59.02 25.89L58.87 25.75L58.71 25.62L58.55 25.5L58.38 25.38L58.21 25.27L58.03 25.16L57.85 25.06L57.66 24.97L57.47 24.89L57.28 24.81L57.08 24.74L56.88 24.68L56.68 24.62L56.47 24.58L56.26 24.54L56.05 24.51L55.84 24.48L55.62 24.47L55.4 24.47L54.69 24.47L54.33 24.46L53.98 24.44L53.62 24.4L53.27 24.35L52.93 24.29L52.59 24.21L52.25 24.12L51.92 24.02L51.59 23.91L51.27 23.78L50.96 23.65L50.65 23.5L50.34 23.34L50.05 23.17L49.76 22.99L49.48 22.8L49.21 22.59L48.94 22.38L48.69 22.16L48.44 21.93L48.2 21.7L47.97 21.45L47.75 21.2L47.54 20.94L47.34 20.67L47.15 20.39L46.98 20.11L46.81 19.82L46.65 19.52L46.51 19.22L46.38 18.91L46.26 18.6L46.16 18.28L46.06 17.96L45.98 17.63L45.92 17.3L45.87 16.96L45.83 16.62L45.81 16.28L45.8 15.93L45.8 13.8L45.8 13.75L45.8 13.69L45.8 13.64L45.8 13.59L45.81 13.53L45.81 13.48L45.81 13.43L45.82 13.37L45.82 13.32L45.83 13.27L45.83 13.21L45.84 13.16L45.85 13.11L45.85 13.05L45.86 13L45.87 12.95L45.88 12.89L45.89 12.84L45.9 12.79L45.91 12.73L45.92 12.68L45.93 12.63L45.94 12.57L45.95 12.52L45.97 12.47L45.98 12.41L45.99 12.36L46.01 12.31L46.02 12.25L46.03 12.2L46.05 12.15L46.06 12.09L46.08 12.04L46.09 11.99L46.11 11.93L46.13 11.88L46.14 11.83L46.16 11.77L46.18 11.72L46.2 11.67L43.67 11.67L43.28 11.67L42.9 11.67L42.52 11.68L42.14 11.7L41.76 11.71L41.38 11.74L41 11.76L40.62 11.79L40.24 11.82L39.87 11.86L39.49 11.9L39.12 11.94L38.75 11.98L38.38 12.03L38.01 12.09L37.64 12.15L37.27 12.21L36.91 12.27L36.54 12.34L36.18 12.41L35.82 12.48L35.45 12.56L35.09 12.64L34.74 12.73L34.38 12.82L34.02 12.91L33.67 13L33.31 13.1L32.96 13.2L32.61 13.31L32.26 13.41L31.91 13.53L31.56 13.64L31.22 13.76L30.88 13.88L30.53 14L30.19 14.13L29.85 14.26L29.51 14.39L29.18 14.53L29.26 14.68L29.35 14.83L29.45 14.98L29.55 15.13L29.65 15.28L29.76 15.42L29.87 15.56L29.98 15.69L30.1 15.83L30.23 15.96L30.35 16.08L30.48 16.21L30.62 16.33L30.75 16.45L30.89 16.56L31.03 16.67L31.18 16.78L31.33 16.88L31.48 16.98L31.63 17.08L31.79 17.17L31.95 17.26L32.11 17.34L32.28 17.42L32.44 17.5L32.61 17.57L32.78 17.63L32.95 17.7L33.13 17.75L33.3 17.81L33.48 17.85L33.66 17.9L33.84 17.94L34.02 17.97L34.21 18L34.39 18.02L34.57 18.04L34.76 18.06L34.95 18.06L35.13 18.07L37.27 18.07L37.26 22.34L35.13 22.33L34.82 22.33L34.51 22.32L34.2 22.29L33.89 22.26L33.58 22.22L33.28 22.17L32.97 22.12L32.67 22.05L32.38 21.98L32.08 21.9L31.79 21.81L31.5 21.71L31.22 21.61L30.94 21.5L30.66 21.38L30.39 21.25L30.11 21.12L29.85 20.98L29.59 20.83L29.33 20.67L29.08 20.51L28.83 20.34L28.58 20.17L28.34 19.99L28.11 19.8L27.88 19.61L27.66 19.41L27.44 19.21L27.23 19L27.02 18.78L26.82 18.56L26.63 18.33L26.44 18.1L26.26 17.86L26.09 17.62L25.92 17.38L25.76 17.12L25.6 16.87L25.46 16.61L25.32 16.34L24.43 16.84L23.56 17.37L22.7 17.91L21.86 18.48L21.03 19.07L20.22 19.68L19.43 20.31L18.65 20.96L18.17 21.39L19.11 20.31L20.17 19.16L21.24 18.07L22.31 17.03L23.38 16.04L24.46 15.11L25.55 14.23L26.64 13.4L27.73 12.63L28.84 11.91L29.95 11.24L31.06 10.63L32.18 10.07L33.3 9.56L34.43 9.11L35.57 8.71L36.71 8.36L37.85 8.07L39 7.83L40.16 7.64L41.32 7.51L42.49 7.43L43.67 7.4L62.87 7.4L63.5 7.4L64.12 7.42L64.75 7.44L65.37 7.47L65.99 7.51L66.61 7.56L67.23 7.61L67.84 7.68L68.45 7.75L69.06 7.83L69.67 7.92L70.27 8.02L70.87 8.13L71.47 8.24L72.06 8.36L72.66 8.49L73.24 8.63L73.83 8.78L74.41 8.93L74.99 9.09L75.57 9.26L76.14 9.44L76.71 9.62L77.28 9.81L77.84 10.01L78.41 10.22L78.96 10.43L79.52 10.65L80.06 10.88L80.61 11.11L81.15 11.35L81.69 11.6L82.23 11.86L82.76 12.12L83.29 12.38L83.81 12.66L84.33 12.94L84.84 13.23L85.35 13.52L85.86 13.82L85.87 13.82L85.9 13.82L85.92 13.82L85.94 13.82L85.96 13.82L85.98 13.82L85.99 13.82L86.03 13.81L86.05 13.81L86.07 13.81L86.11 13.81L86.12 13.81L86.14 13.81L86.17 13.81L86.19 13.8L86.2 13.8L86.23 13.8L86.25 13.8L86.27 13.8L86.29 13.8L86.3 13.8L86.32 13.8L86.33 13.8L86.33 14.11L87.28 14.72L88.22 15.34ZM47.93 111.93L47.93 101.42L47.96 100.35L48.05 99.3L48.19 98.26L48.39 97.23L48.64 96.23L48.95 95.24L49.3 94.28L49.71 93.34L50.16 92.42L50.65 91.53L51.19 90.67L51.78 89.83L52.4 89.03L53.07 88.26L53.77 87.53L54.52 86.84L55.29 86.18L56.1 85.56L56.95 84.98L57.82 84.45L58.73 83.97L59.66 83.53L60.62 83.13L61.61 82.79L62.61 82.5L63.65 82.27L64.7 82.09L65.41 81.98L66.09 81.87L66.73 81.74L67.34 81.61L67.91 81.47L68.44 81.32L68.94 81.16L69.41 80.98L69.85 80.79L70.26 80.58L70.64 80.36L70.99 80.12L71.31 79.86L71.6 79.58L71.87 79.27L72.12 78.95L72.34 78.6L72.54 78.22L72.72 77.82L72.88 77.4L73.01 76.94L73.13 76.45L73.23 75.94L73.32 75.39L73.39 74.8L73.44 74.19L73.48 73.53L72.6 73.53L71.75 73.53L70.9 73.5L70.05 73.47L69.2 73.41L68.35 73.35L67.5 73.27L66.66 73.17L65.81 73.06L64.97 72.94L64.13 72.8L63.3 72.65L62.46 72.48L61.63 72.3L60.8 72.1L59.98 71.89L59.15 71.67L58.34 71.43L57.52 71.18L56.71 70.91L55.91 70.63L55.11 70.34L54.32 70.04L53.53 69.72L52.75 69.38L51.97 69.03L51.2 68.67L50.44 68.3L50.12 68.14L49.8 67.99L49.48 67.84L49.16 67.69L48.84 67.55L48.52 67.4L48.19 67.26L47.87 67.13L47.54 66.99L47.22 66.86L46.89 66.73L46.56 66.61L46.23 66.48L45.9 66.36L45.57 66.24L45.24 66.13L44.9 66.01L44.57 65.9L44.23 65.8L43.9 65.69L43.56 65.59L43.23 65.49L42.89 65.39L42.55 65.29L42.21 65.2L41.87 65.11L41.53 65.02L41.53 111.93L47.93 111.93ZM29.12 63.58L28.49 63.6L27.86 63.62L27.23 63.66L26.6 63.7L25.98 63.76L25.35 63.82L24.72 63.89L24.1 63.97L23.47 64.06L22.85 64.16L22.22 64.26L21.6 64.38L20.98 64.51L12.98 66.19L12.67 66.25L12.36 66.3L12.05 66.34L11.74 66.37L11.43 66.39L11.12 66.4L10.81 66.4L10.5 66.4L10.19 66.38L9.89 66.35L9.58 66.31L9.28 66.26L8.98 66.21L8.68 66.14L8.38 66.06L8.08 65.98L7.79 65.89L7.5 65.78L7.21 65.67L6.93 65.55L6.65 65.42L6.37 65.28L6.1 65.13L5.83 64.98L5.56 64.81L5.3 64.64L5.3 64.72L5.31 64.81L5.31 64.9L5.31 64.98L5.31 65.07L5.32 65.15L5.32 65.24L5.33 65.32L5.33 65.41L5.34 65.5L5.34 65.58L5.35 65.67L5.36 65.75L5.36 65.84L5.37 65.92L5.38 66.01L5.39 66.09L5.4 66.17L5.41 66.26L5.42 66.34L5.44 66.43L5.45 66.51L5.46 66.59L5.48 66.68L5.49 66.76L5.51 66.84L5.99 69.27L21.74 69.27L21.74 73.53L7.02 73.53L7.25 74.11L7.5 74.67L7.77 75.21L8.07 75.74L8.4 76.25L8.74 76.75L9.11 77.23L9.5 77.69L9.91 78.13L10.33 78.55L10.78 78.95L11.24 79.33L11.73 79.69L12.22 80.03L12.74 80.34L13.26 80.63L13.81 80.89L14.36 81.13L14.93 81.35L15.51 81.54L16.09 81.7L16.69 81.83L17.3 81.93L17.92 82.01L18.54 82.06L19.17 82.07L19.18 82.07L19.48 82.07L19.79 82.06L20.09 82.04L20.39 82.02L20.69 81.98L20.99 81.95L21.28 81.9L21.58 81.85L21.87 81.79L22.16 81.73L22.45 81.65L22.74 81.57L23.03 81.49L23.31 81.4L23.6 81.3L23.88 81.19L24.15 81.08L24.43 80.96L24.7 80.84L24.97 80.71L25.24 80.57L25.5 80.42L25.76 80.27L26.02 80.12L26.28 79.95L26.53 79.78L37.27 72.38L37.27 71.4L28.73 71.4L28.73 67.13L37.27 67.13L37.27 64.13L36.65 64.04L36.02 63.95L35.4 63.88L34.77 63.81L34.15 63.75L33.52 63.7L32.89 63.65L32.26 63.62L31.64 63.59L31.01 63.58L30.38 63.57L29.75 63.57L29.12 63.58Z" id="amCwh5ifQ"></path><path d="M17.47 75.67C17.47 75.67 17.47 75.67 17.47 75.67C17.47 78.23 17.47 79.65 17.47 79.93C17.47 79.93 17.47 79.93 17.47 79.93C21.31 79.93 23.44 79.93 23.87 79.93C23.87 79.93 23.87 79.93 23.87 79.93C23.87 77.37 23.87 75.95 23.87 75.67C23.87 75.67 23.87 75.67 23.87 75.67C20.03 75.67 17.9 75.67 17.47 75.67Z" id="bceqQQNbq"></path><path d="M73.53 88.47C73.53 88.47 73.53 88.47 73.53 88.47C73.53 91.03 73.53 92.45 73.53 92.73C73.53 92.73 73.53 92.73 73.53 92.73C76.09 92.73 77.52 92.73 77.8 92.73C77.8 92.73 77.8 92.73 77.8 92.73C77.8 90.17 77.8 88.75 77.8 88.47C77.8 88.47 77.8 88.47 77.8 88.47C75.24 88.47 73.82 88.47 73.53 88.47Z" id="cMXspaBj9"></path><path d="M77.8 84.2C77.8 84.2 77.8 84.2 77.8 84.2C77.8 86.76 77.8 88.18 77.8 88.47C77.8 88.47 77.8 88.47 77.8 88.47C80.36 88.47 81.78 88.47 82.07 88.47C82.07 88.47 82.07 88.47 82.07 88.47C82.07 85.91 82.07 84.48 82.07 84.2C82.07 84.2 82.07 84.2 82.07 84.2C79.51 84.2 78.08 84.2 77.8 84.2Z" id="bmJiVQkaz"></path><path d="M82.07 88.47C82.07 88.47 82.07 88.47 82.07 88.47C82.07 91.03 82.07 92.45 82.07 92.73C82.07 92.73 82.07 92.73 82.07 92.73C84.63 92.73 86.05 92.73 86.33 92.73C86.33 92.73 86.33 92.73 86.33 92.73C86.33 90.17 86.33 88.75 86.33 88.47C86.33 88.47 86.33 88.47 86.33 88.47C83.77 88.47 82.35 88.47 82.07 88.47Z" id="bNTDriKqo"></path><path d="M77.8 92.73C77.8 92.73 77.8 92.73 77.8 92.73C77.8 95.29 77.8 96.72 77.8 97C77.8 97 77.8 97 77.8 97C80.36 97 81.78 97 82.07 97C82.07 97 82.07 97 82.07 97C82.07 94.44 82.07 93.02 82.07 92.73C82.07 92.73 82.07 92.73 82.07 92.73C79.51 92.73 78.08 92.73 77.8 92.73Z" id="a224SSGUhF"></path><path d="M90.6 88.47C90.6 88.47 90.6 88.47 90.6 88.47C90.6 91.03 90.6 92.45 90.6 92.73C90.6 92.73 90.6 92.73 90.6 92.73C93.16 92.73 94.58 92.73 94.87 92.73C94.87 92.73 94.87 92.73 94.87 92.73C94.87 90.17 94.87 88.75 94.87 88.47C94.87 88.47 94.87 88.47 94.87 88.47C92.31 88.47 90.88 88.47 90.6 88.47Z" id="b5qW5zQPGw"></path><path d="M88.47 71.4C88.47 71.4 88.47 71.4 88.47 71.4C88.47 73.96 88.47 75.38 88.47 75.67C88.47 75.67 88.47 75.67 88.47 75.67C91.03 75.67 92.45 75.67 92.73 75.67C92.73 75.67 92.73 75.67 92.73 75.67C92.73 73.11 92.73 71.68 92.73 71.4C92.73 71.4 92.73 71.4 92.73 71.4C90.17 71.4 88.75 71.4 88.47 71.4Z" id="ayC1zjaNj"></path><path d="M116.2 56.47C116.2 28.24 93.23 5.27 65 5.27C65 4.84 65 1.43 65 1C95.58 1 120.47 25.88 120.47 56.47C120.47 57.02 120.47 59.76 120.47 64.7C125.54 82.45 128.35 92.31 128.92 94.28C129.1 94.92 128.97 95.62 128.57 96.15C128.17 96.69 127.53 97 126.87 97C126.3 97 123.45 97 118.33 97C118.33 108.52 118.33 114.92 118.33 116.2C118.33 120.91 114.51 124.73 109.8 124.73C107.67 124.73 97 124.73 77.8 124.73L77.8 129L73.53 129C73.53 126.44 73.53 125.02 73.53 124.73C73.53 122.38 75.45 120.47 77.8 120.47C81 120.47 106.6 120.47 109.8 120.47C112.15 120.47 114.07 118.55 114.07 116.2C114.07 114.28 114.07 98.92 114.07 97C114.07 94.65 115.98 92.73 118.33 92.73C118.71 92.73 120.61 92.73 124.04 92.73C119.38 76.45 116.8 67.4 116.28 65.59C116.23 65.4 116.2 65.2 116.2 65C116.2 63.29 116.2 57.32 116.2 56.47Z" id="b1Pmd5MzQW"></path><path d="M11.67 94.87C11.67 94.87 11.67 94.87 11.67 94.87C11.67 97.43 11.67 98.85 11.67 99.13C11.67 99.13 11.67 99.13 11.67 99.13C14.23 99.13 15.65 99.13 15.93 99.13C15.93 99.13 15.93 99.13 15.93 99.13C15.93 96.57 15.93 95.15 15.93 94.87C15.93 94.87 15.93 94.87 15.93 94.87C13.37 94.87 11.95 94.87 11.67 94.87Z" id="cDFfMxVCX"></path><path d="M15.93 90.6C15.93 90.6 15.93 90.6 15.93 90.6C15.93 93.16 15.93 94.58 15.93 94.87C15.93 94.87 15.93 94.87 15.93 94.87C18.49 94.87 19.92 94.87 20.2 94.87C20.2 94.87 20.2 94.87 20.2 94.87C20.2 92.31 20.2 90.88 20.2 90.6C20.2 90.6 20.2 90.6 20.2 90.6C17.64 90.6 16.22 90.6 15.93 90.6Z" id="c4TK92tQz0"></path><path d="M20.2 94.87C20.2 94.87 20.2 94.87 20.2 94.87C20.2 97.43 20.2 98.85 20.2 99.13C20.2 99.13 20.2 99.13 20.2 99.13C22.76 99.13 24.18 99.13 24.47 99.13C24.47 99.13 24.47 99.13 24.47 99.13C24.47 96.57 24.47 95.15 24.47 94.87C24.47 94.87 24.47 94.87 24.47 94.87C21.91 94.87 20.48 94.87 20.2 94.87Z" id="as3DedzC"></path><path d="M15.93 99.13C15.93 99.13 15.93 99.13 15.93 99.13C15.93 101.69 15.93 103.12 15.93 103.4C15.93 103.4 15.93 103.4 15.93 103.4C18.49 103.4 19.92 103.4 20.2 103.4C20.2 103.4 20.2 103.4 20.2 103.4C20.2 100.84 20.2 99.42 20.2 99.13C20.2 99.13 20.2 99.13 20.2 99.13C17.64 99.13 16.22 99.13 15.93 99.13Z" id="aKkZJFAGy"></path><path d="M28.73 94.87C28.73 94.87 28.73 94.87 28.73 94.87C28.73 97.43 28.73 98.85 28.73 99.13C28.73 99.13 28.73 99.13 28.73 99.13C31.29 99.13 32.72 99.13 33 99.13C33 99.13 33 99.13 33 99.13C33 96.57 33 95.15 33 94.87C33 94.87 33 94.87 33 94.87C30.44 94.87 29.02 94.87 28.73 94.87Z" id="djhlUMjxD"></path><path d="M5.27 92.73C5.27 97.38 7.55 101.73 11.36 104.37C12.73 105.32 23.69 112.91 25.06 113.85C30.03 117.29 33 122.96 33 129C32.57 129 29.16 129 28.73 129C28.73 124.36 26.45 120.01 22.64 117.36C21.27 116.41 10.31 108.83 8.94 107.88C3.97 104.44 1 98.78 1 92.73C1 92.02 1 88.47 1 82.07L5.27 82.07C5.27 88.47 5.27 92.02 5.27 92.73Z" id="g39lIf34VR"></path></defs><g><g><g><g><use xlink:href="#amCwh5ifQ" opacity="1" fill="#ec4444" fill-opacity="1"></use><g><use xlink:href="#amCwh5ifQ" opacity="1" fill-opacity="0" stroke="#000000" stroke-width="1" stroke-opacity="0"></use></g></g><g><use xlink:href="#bceqQQNbq" opacity="1" fill="#ec4444" fill-opacity="1"></use><g><use xlink:href="#bceqQQNbq" opacity="1" fill-opacity="0" stroke="#000000" stroke-width="1" stroke-opacity="0"></use></g></g><g><use xlink:href="#cMXspaBj9" opacity="1" fill="#ec4444" fill-opacity="1"></use><g><use xlink:href="#cMXspaBj9" opacity="1" fill-opacity="0" stroke="#000000" stroke-width="1" stroke-opacity="0"></use></g></g><g><use xlink:href="#bmJiVQkaz" opacity="1" fill="#ec4444" fill-opacity="1"></use><g><use xlink:href="#bmJiVQkaz" opacity="1" fill-opacity="0" stroke="#000000" stroke-width="1" stroke-opacity="0"></use></g></g><g><use xlink:href="#bNTDriKqo" opacity="1" fill="#ec4444" fill-opacity="1"></use><g><use xlink:href="#bNTDriKqo" opacity="1" fill-opacity="0" stroke="#000000" stroke-width="1" stroke-opacity="0"></use></g></g><g><use xlink:href="#a224SSGUhF" opacity="1" fill="#ec4444" fill-opacity="1"></use><g><use xlink:href="#a224SSGUhF" opacity="1" fill-opacity="0" stroke="#000000" stroke-width="1" stroke-opacity="0"></use></g></g><g><use xlink:href="#b5qW5zQPGw" opacity="1" fill="#ec4444" fill-opacity="1"></use><g><use xlink:href="#b5qW5zQPGw" opacity="1" fill-opacity="0" stroke="#000000" stroke-width="1" stroke-opacity="0"></use></g></g><g><use xlink:href="#ayC1zjaNj" opacity="1" fill="#ec4444" fill-opacity="1"></use><g><use xlink:href="#ayC1zjaNj" opacity="1" fill-opacity="0" stroke="#000000" stroke-width="1" stroke-opacity="0"></use></g></g><g><use xlink:href="#b1Pmd5MzQW" opacity="1" fill="#ec4444" fill-opacity="1"></use><g><use xlink:href="#b1Pmd5MzQW" opacity="1" fill-opacity="0" stroke="#000000" stroke-width="1" stroke-opacity="0"></use></g></g><g><use xlink:href="#cDFfMxVCX" opacity="1" fill="#ec4444" fill-opacity="1"></use><g><use xlink:href="#cDFfMxVCX" opacity="1" fill-opacity="0" stroke="#000000" stroke-width="1" stroke-opacity="0"></use></g></g><g><use xlink:href="#c4TK92tQz0" opacity="1" fill="#ec4444" fill-opacity="1"></use><g><use xlink:href="#c4TK92tQz0" opacity="1" fill-opacity="0" stroke="#000000" stroke-width="1" stroke-opacity="0"></use></g></g><g><use xlink:href="#as3DedzC" opacity="1" fill="#ec4444" fill-opacity="1"></use><g><use xlink:href="#as3DedzC" opacity="1" fill-opacity="0" stroke="#000000" stroke-width="1" stroke-opacity="0"></use></g></g><g><use xlink:href="#aKkZJFAGy" opacity="1" fill="#ec4444" fill-opacity="1"></use><g><use xlink:href="#aKkZJFAGy" opacity="1" fill-opacity="0" stroke="#000000" stroke-width="1" stroke-opacity="0"></use></g></g><g><use xlink:href="#djhlUMjxD" opacity="1" fill="#ec4444" fill-opacity="1"></use><g><use xlink:href="#djhlUMjxD" opacity="1" fill-opacity="0" stroke="#000000" stroke-width="1" stroke-opacity="0"></use></g></g><g><use xlink:href="#g39lIf34VR" opacity="1" fill="#ec4444" fill-opacity="1"></use><g><use xlink:href="#g39lIf34VR" opacity="1" fill-opacity="0" stroke="#000000" stroke-width="1" stroke-opacity="0"></use></g></g></g></g></g></svg>