<?xml version="1.0" encoding="UTF-8" standalone="no"?>
<!DOCTYPE svg PUBLIC "-//W3C//DTD SVG 1.1//EN" "http://www.w3.org/Graphics/SVG/1.1/DTD/svg11.dtd">
<svg version="1.1" xmlns="http://www.w3.org/2000/svg" xmlns:xlink="http://www.w3.org/1999/xlink" preserveAspectRatio="xMidYMid meet" viewBox="0 0 128 128" width="128" height="128"><defs><path d="M14.34 41C14.34 41.3 14.34 42.8 14.34 45.48C6.53 59.62 2.2 67.48 1.33 69.05C1.12 69.44 1 69.88 1 70.33C1 70.49 1 70.64 1 70.79C1.13 75.08 4.71 78.46 9 78.33C10.94 78.44 12.8 79.14 14.34 80.33C14.34 81.2 14.34 88.13 14.34 89C14.33 89.2 14.33 89.41 14.34 89.61C14.51 95.33 19.28 99.84 25 99.67C26.6 99.67 39.4 99.67 41 99.67C41.15 99.67 41.31 99.67 41.46 99.67C45.75 99.54 49.13 95.96 49 91.67C49 90.6 49 85.27 49 75.67C48.47 75.67 44.2 75.67 43.67 75.67C43.67 85.27 43.67 90.6 43.67 91.67C43.68 91.83 43.68 91.99 43.67 92.14C43.54 93.49 42.34 94.47 41 94.33C39.4 94.33 26.6 94.33 25 94.33C24.79 94.35 24.58 94.35 24.36 94.33C21.59 94.16 19.49 91.77 19.67 89C19.67 88.01 19.67 80.05 19.67 79.06C19.67 78.3 19.34 77.57 18.77 77.06C16.1 74.6 12.64 73.16 9 73C8.99 73 8.98 73 8.97 73.01C7.68 73.14 6.53 72.21 6.39 70.92C7.69 68.58 18.04 49.8 19.34 47.46C19.56 47.06 19.67 46.62 19.67 46.17C19.67 45.65 19.67 41.52 19.67 41C19.69 21.87 35.2 6.36 54.34 6.34C55.4 6.34 63.91 6.34 64.97 6.34C65.13 6.32 65.3 6.32 65.46 6.33C66.81 6.46 67.8 7.66 67.67 9C67.67 9.89 67.67 14.34 67.67 22.34C68.2 22.34 72.47 22.34 73 22.34C73 14.34 73 9.89 73 9C73.01 8.85 73.01 8.7 73 8.55C72.88 4.26 69.29 0.88 65 1C62.87 1 55.4 1 54.34 1C32.25 1.03 14.36 18.92 14.34 41Z" id="bvaIK52dq"></path><path d="M49 105C49 108.2 49 109.98 49 110.33C49 110.33 49 110.33 49 110.33C45.8 110.33 44.02 110.33 43.67 110.33C43.67 110.33 43.67 110.33 43.67 110.33C43.67 107.13 43.67 105.36 43.67 105C43.67 105 43.67 105 43.67 105C46.87 105 48.65 105 49 105C49 105 49 105 49 105Z" id="d2xHK8ARcB"></path><path d="M81 86.33C98.6 86.33 108.38 86.33 110.33 86.33C110.49 86.32 110.65 86.32 110.81 86.33C112.15 86.47 113.13 87.66 113 89C113 89.5 113 93.54 113 94.04C112.62 95.63 110.05 105 102.33 105C100.86 105 99.67 106.19 99.67 107.67C99.67 108.73 99.67 114.07 99.67 123.67C96.29 123.67 79.4 123.67 49 123.67L49 115.67C45.8 115.67 44.03 115.67 43.67 115.67C43.67 122.07 43.67 125.62 43.67 126.33C43.67 127.81 44.86 129 46.34 129C50.07 129 68.73 129 102.33 129C102.33 129 102.33 129 102.33 129C103.81 129 105 127.81 105 126.33C105 124.71 105 111.72 105 110.1C113.34 108.52 117.31 99.73 118.28 94.87C118.32 94.69 118.33 94.51 118.33 94.33C118.33 93.8 118.33 89.53 118.33 89C118.34 88.85 118.34 88.7 118.33 88.55C118.21 84.25 114.63 80.88 110.33 81C106.42 81 96.65 81 81 81C81 82.07 81 85.8 81 86.33Z" id="bl5X6tPeo"></path><path d="M62.33 54.34C62.33 57.53 62.33 59.31 62.33 59.67C62.33 59.67 62.33 59.67 62.33 59.67C59.14 59.67 57.36 59.67 57 59.67C57 59.67 57 59.67 57 59.67C57 56.47 57 54.69 57 54.34C57 54.34 57 54.34 57 54.34C60.2 54.34 61.98 54.34 62.33 54.34C62.33 54.34 62.33 54.34 62.33 54.34Z" id="a18PKeqsZD"></path><path d="M118.64 30.67C119.12 30.2 122.92 26.39 123.4 25.92C124.44 24.88 124.44 23.19 123.4 22.15C122.65 21.39 116.61 15.36 115.86 14.6C114.81 13.56 113.13 13.56 112.09 14.6C111.61 15.08 107.8 18.88 107.33 19.36C106.57 19 105.79 18.68 105 18.39C105 17.72 105 12.34 105 11.67C105 10.2 103.81 9 102.33 9C101.27 9 92.73 9 91.67 9C90.19 9 89 10.2 89 11.67C89 12.34 89 17.72 89 18.39C87.55 18.91 86.15 19.56 84.83 20.34C85.1 20.8 87.26 24.48 87.53 24.94C89.03 24.05 90.65 23.38 92.33 22.95C93.51 22.65 94.33 21.58 94.33 20.37C94.33 19.97 94.33 17.96 94.33 14.34C94.86 14.34 99.14 14.34 99.67 14.34C99.67 17.96 99.67 19.97 99.67 20.37C99.67 21.58 100.49 22.65 101.66 22.95C103.35 23.39 104.96 24.06 106.46 24.94C107.51 25.56 108.84 25.39 109.7 24.53C109.99 24.24 111.41 22.82 113.97 20.26C114.35 20.64 117.36 23.65 117.74 24.03C115.18 26.59 113.76 28.01 113.48 28.29C112.62 29.15 112.45 30.49 113.06 31.54C113.95 33.03 114.62 34.65 115.06 36.34C115.36 37.51 116.42 38.33 117.63 38.34C118.04 38.34 120.05 38.34 123.67 38.34C123.67 38.87 123.67 43.14 123.67 43.67C120.05 43.67 118.04 43.67 117.64 43.67C116.43 43.67 115.37 44.49 115.06 45.67C114.62 47.35 113.95 48.97 113.07 50.47C112.45 51.51 112.62 52.85 113.48 53.71C113.77 53.99 115.19 55.42 117.75 57.98C117.37 58.36 114.36 61.37 113.98 61.75C111.42 59.19 110 57.76 109.71 57.48C108.85 56.62 107.52 56.45 106.47 57.07C104.97 57.95 103.35 58.62 101.67 59.06C100.49 59.36 99.67 60.42 99.67 61.64C99.67 62.04 99.67 64.05 99.67 67.67C99.14 67.67 94.87 67.67 94.34 67.67C94.34 64.05 94.34 62.04 94.34 61.64C94.34 60.42 93.51 59.36 92.34 59.06C90.65 58.62 89.04 57.95 87.54 57.07C86.49 56.45 85.15 56.62 84.29 57.48C84.01 57.77 82.59 59.19 80.03 61.75C79.65 61.37 76.64 58.36 76.26 57.98C78.82 55.42 80.24 54 80.52 53.71C81.39 52.85 81.56 51.52 80.94 50.47C80.05 48.97 79.38 47.35 78.95 45.67C78.64 44.49 77.58 43.67 76.37 43.67C75.79 43.67 72.89 43.67 67.67 43.67C67.67 44.2 67.67 48.47 67.67 49C71.7 49 73.94 49 74.39 49C74.67 49.79 75 50.57 75.36 51.33C74.88 51.81 71.08 55.61 70.6 56.09C69.56 57.13 69.56 58.82 70.6 59.86C71.36 60.61 77.39 66.65 78.15 67.4C79.19 68.44 80.87 68.44 81.92 67.4C82.39 66.93 86.2 63.12 86.67 62.64C87.43 63.01 88.21 63.33 89 63.61C89 64.28 89 69.66 89 70.33C89 71.81 90.19 73 91.67 73C92.38 73 95.93 73 102.33 73C102.33 73 102.33 73 102.33 73C103.81 73 105 71.81 105 70.33C105 69.66 105 64.28 105 63.61C105.79 63.33 106.57 63.01 107.33 62.65C107.8 63.12 111.61 66.93 112.09 67.4C113.13 68.44 114.81 68.44 115.86 67.4C116.61 66.65 122.65 60.61 123.4 59.86C124.44 58.82 124.44 57.13 123.4 56.09C122.92 55.61 119.12 51.81 118.64 51.33C119 50.57 119.33 49.79 119.61 49C120.28 49 125.66 49 126.33 49C127.81 49 129 47.81 129 46.33C129 45.27 129 36.74 129 35.67C129 34.2 127.81 33 126.33 33C124.99 33 120.28 33 119.61 33C119.33 32.21 119.01 31.43 118.64 30.67Z" id="cBH29bb1g"></path><path d="M62.33 43.67C62.33 46.87 62.33 48.65 62.33 49C62.33 49 62.33 49 62.33 49C59.14 49 57.36 49 57 49C57 49 57 49 57 49C57 45.8 57 44.02 57 43.67C57 43.67 57 43.67 57 43.67C60.2 43.67 61.98 43.67 62.33 43.67C62.33 43.67 62.33 43.67 62.33 43.67Z" id="hsJ3WYznv"></path><path d="M99.63 30.66L100.86 31.05L102.02 31.59L103.09 32.25L104.08 33.03L104.98 33.92L105.76 34.91L106.42 35.99L106.95 37.15L107.34 38.38L107.58 39.66L107.67 41L107.58 42.34L107.34 43.63L106.95 44.86L106.42 46.02L105.76 47.1L104.98 48.09L104.08 48.98L103.09 49.76L102.01 50.42L100.86 50.95L99.63 51.34L98.34 51.59L97 51.67L95.66 51.59L94.37 51.34L93.15 50.95L91.99 50.42L90.91 49.76L89.92 48.98L89.03 48.09L88.25 47.1L87.58 46.02L87.05 44.86L86.66 43.63L86.42 42.34L86.33 41L86.42 39.66L86.66 38.38L87.05 37.15L87.58 35.99L88.25 34.91L89.03 33.92L89.92 33.03L90.91 32.25L91.99 31.59L93.15 31.05L94.37 30.66L95.66 30.42L97 30.34L98.34 30.42L99.63 30.66ZM94.31 36.4L93.23 37.23L92.4 38.31L91.86 39.58L91.67 41L91.86 42.42L92.4 43.69L93.23 44.77L94.31 45.61L95.58 46.14L97 46.34L98.42 46.14L99.69 45.61L100.77 44.77L101.61 43.69L102.14 42.42L102.33 41L102.14 39.58L101.61 38.31L100.77 37.23L99.69 36.4L98.42 35.86L97 35.67L95.58 35.86L94.31 36.4Z" id="eq0D0ZM2v"></path><path d="M72.86 20.08L74.01 20.56L75.06 21.21L75.99 22.01L76.79 22.94L77.44 23.99L77.93 25.14L78.23 26.37L78.33 27.67L78.23 28.97L77.93 30.2L77.44 31.35L76.79 32.39L75.99 33.33L75.06 34.13L74.01 34.78L72.86 35.26L71.63 35.56L70.33 35.67L69.04 35.56L67.81 35.26L66.66 34.78L65.61 34.13L64.68 33.33L63.88 32.39L63.23 31.35L62.74 30.2L62.44 28.97L62.34 27.67L62.44 26.37L62.74 25.14L63.23 23.99L63.88 22.94L64.68 22.01L65.61 21.21L66.66 20.56L67.81 20.08L69.04 19.77L70.33 19.67L71.63 19.77L72.86 20.08ZM68.45 25.78L67.88 26.63L67.67 27.67L67.88 28.71L68.45 29.55L69.3 30.13L70.33 30.34L71.37 30.13L72.22 29.55L72.79 28.71L73 27.67L72.79 26.63L72.22 25.78L71.37 25.21L70.33 25L69.3 25.21L68.45 25.78Z" id="b2YVSgmF2D"></path><path d="M33 46.34L33 43.67C29.8 43.67 28.03 43.67 27.67 43.67C27.67 45.27 27.67 46.16 27.67 46.34C27.67 46.41 27.67 46.48 27.67 46.56C27.73 49.44 30.12 51.73 33 51.67C33.8 51.67 40.2 51.67 41 51.67C41.08 51.67 41.15 51.67 41.22 51.67C44.11 51.61 46.4 49.22 46.34 46.34C46.34 46.16 46.34 45.27 46.34 43.67C45.98 43.67 44.2 43.67 41 43.67L41 46.34L33 46.34Z" id="e14Wa4P2kM"></path><path d="M48.86 62.74L50.01 63.23L51.06 63.88L51.99 64.68L52.79 65.61L53.44 66.66L53.93 67.81L54.23 69.04L54.34 70.33L54.23 71.63L53.93 72.86L53.44 74.01L52.79 75.06L51.99 75.99L51.06 76.79L50.01 77.44L48.86 77.93L47.63 78.23L46.34 78.33L45.04 78.23L43.81 77.93L42.66 77.44L41.61 76.79L40.68 75.99L39.88 75.06L39.23 74.01L38.74 72.86L38.44 71.63L38.34 70.33L38.44 69.04L38.74 67.81L39.23 66.66L39.88 65.61L40.68 64.68L41.61 63.88L42.66 63.23L43.81 62.74L45.04 62.44L46.34 62.33L47.63 62.44L48.86 62.74ZM44.45 68.45L43.88 69.3L43.67 70.33L43.88 71.37L44.45 72.22L45.3 72.79L46.34 73L47.37 72.79L48.22 72.22L48.79 71.37L49 70.33L48.79 69.3L48.22 68.45L47.37 67.88L46.34 67.67L45.3 67.88L44.45 68.45Z" id="a9NAUNkrj"></path><path d="M78.2 76.08L79.34 76.56L80.39 77.21L81.32 78.01L82.12 78.94L82.77 79.99L83.26 81.14L83.56 82.37L83.67 83.67L83.56 84.97L83.26 86.2L82.77 87.34L82.12 88.39L81.32 89.32L80.39 90.12L79.34 90.77L78.2 91.26L76.97 91.56L75.67 91.67L74.37 91.56L73.14 91.26L71.99 90.77L70.94 90.12L70.01 89.32L69.21 88.39L68.56 87.34L68.08 86.2L67.77 84.97L67.67 83.67L67.77 82.37L68.08 81.14L68.56 79.99L69.21 78.94L70.01 78.01L70.94 77.21L71.99 76.56L73.14 76.08L74.37 75.77L75.67 75.67L76.97 75.77L78.2 76.08ZM73.78 81.78L73.21 82.63L73 83.67L73.21 84.71L73.78 85.55L74.63 86.12L75.67 86.33L76.71 86.12L77.55 85.55L78.13 84.71L78.33 83.67L78.13 82.63L77.55 81.78L76.71 81.21L75.67 81L74.63 81.21L73.78 81.78Z" id="b3PIu39NlW"></path></defs><g><g><g><g><g><filter id="shadow5839239" x="-44" y="-44" width="162.01" height="189.68" filterUnits="userSpaceOnUse" primitiveUnits="userSpaceOnUse"><feFlood></feFlood><feComposite in2="SourceAlpha" operator="in"></feComposite><feGaussianBlur stdDeviation="4.36"></feGaussianBlur><feOffset dx="0" dy="1" result="afterOffset"></feOffset><feFlood flood-color="#0b71f3" flood-opacity="1"></feFlood><feComposite in2="afterOffset" operator="in"></feComposite><feMorphology operator="dilate" radius="1"></feMorphology><feComposite in2="SourceAlpha" operator="out"></feComposite></filter><path d="M14.34 41C14.34 41.3 14.34 42.8 14.34 45.48C6.53 59.62 2.2 67.48 1.33 69.05C1.12 69.44 1 69.88 1 70.33C1 70.49 1 70.64 1 70.79C1.13 75.08 4.71 78.46 9 78.33C10.94 78.44 12.8 79.14 14.34 80.33C14.34 81.2 14.34 88.13 14.34 89C14.33 89.2 14.33 89.41 14.34 89.61C14.51 95.33 19.28 99.84 25 99.67C26.6 99.67 39.4 99.67 41 99.67C41.15 99.67 41.31 99.67 41.46 99.67C45.75 99.54 49.13 95.96 49 91.67C49 90.6 49 85.27 49 75.67C48.47 75.67 44.2 75.67 43.67 75.67C43.67 85.27 43.67 90.6 43.67 91.67C43.68 91.83 43.68 91.99 43.67 92.14C43.54 93.49 42.34 94.47 41 94.33C39.4 94.33 26.6 94.33 25 94.33C24.79 94.35 24.58 94.35 24.36 94.33C21.59 94.16 19.49 91.77 19.67 89C19.67 88.01 19.67 80.05 19.67 79.06C19.67 78.3 19.34 77.57 18.77 77.06C16.1 74.6 12.64 73.16 9 73C8.99 73 8.98 73 8.97 73.01C7.68 73.14 6.53 72.21 6.39 70.92C7.69 68.58 18.04 49.8 19.34 47.46C19.56 47.06 19.67 46.62 19.67 46.17C19.67 45.65 19.67 41.52 19.67 41C19.69 21.87 35.2 6.36 54.34 6.34C55.4 6.34 63.91 6.34 64.97 6.34C65.13 6.32 65.3 6.32 65.46 6.33C66.81 6.46 67.8 7.66 67.67 9C67.67 9.89 67.67 14.34 67.67 22.34C68.2 22.34 72.47 22.34 73 22.34C73 14.34 73 9.89 73 9C73.01 8.85 73.01 8.7 73 8.55C72.88 4.26 69.29 0.88 65 1C62.87 1 55.4 1 54.34 1C32.25 1.03 14.36 18.92 14.34 41Z" id="aKWXk7pHY" fill="white" fill-opacity="1" filter="url(#shadow5839239)"></path></g></g><g><g><filter id="shadow15912046" x="-1.33" y="60" width="95.33" height="96.33" filterUnits="userSpaceOnUse" primitiveUnits="userSpaceOnUse"><feFlood></feFlood><feComposite in2="SourceAlpha" operator="in"></feComposite><feGaussianBlur stdDeviation="4.36"></feGaussianBlur><feOffset dx="0" dy="1" result="afterOffset"></feOffset><feFlood flood-color="#0b71f3" flood-opacity="1"></feFlood><feComposite in2="afterOffset" operator="in"></feComposite><feMorphology operator="dilate" radius="1"></feMorphology><feComposite in2="SourceAlpha" operator="out"></feComposite></filter><path d="M49 105C49 108.2 49 109.98 49 110.33C49 110.33 49 110.33 49 110.33C45.8 110.33 44.02 110.33 43.67 110.33C43.67 110.33 43.67 110.33 43.67 110.33C43.67 107.13 43.67 105.36 43.67 105C43.67 105 43.67 105 43.67 105C46.87 105 48.65 105 49 105C49 105 49 105 49 105Z" id="i20F0z5Gzw" fill="white" fill-opacity="1" filter="url(#shadow15912046)"></path></g></g><g><g><filter id="shadow14468917" x="-1.33" y="36" width="164.67" height="139" filterUnits="userSpaceOnUse" primitiveUnits="userSpaceOnUse"><feFlood></feFlood><feComposite in2="SourceAlpha" operator="in"></feComposite><feGaussianBlur stdDeviation="4.36"></feGaussianBlur><feOffset dx="0" dy="1" result="afterOffset"></feOffset><feFlood flood-color="#0b71f3" flood-opacity="1"></feFlood><feComposite in2="afterOffset" operator="in"></feComposite><feMorphology operator="dilate" radius="1"></feMorphology><feComposite in2="SourceAlpha" operator="out"></feComposite></filter><path d="M81 86.33C98.6 86.33 108.38 86.33 110.33 86.33C110.49 86.32 110.65 86.32 110.81 86.33C112.15 86.47 113.13 87.66 113 89C113 89.5 113 93.54 113 94.04C112.62 95.63 110.05 105 102.33 105C100.86 105 99.67 106.19 99.67 107.67C99.67 108.73 99.67 114.07 99.67 123.67C96.29 123.67 79.4 123.67 49 123.67L49 115.67C45.8 115.67 44.03 115.67 43.67 115.67C43.67 122.07 43.67 125.62 43.67 126.33C43.67 127.81 44.86 129 46.34 129C50.07 129 68.73 129 102.33 129C102.33 129 102.33 129 102.33 129C103.81 129 105 127.81 105 126.33C105 124.71 105 111.72 105 110.1C113.34 108.52 117.31 99.73 118.28 94.87C118.32 94.69 118.33 94.51 118.33 94.33C118.33 93.8 118.33 89.53 118.33 89C118.34 88.85 118.34 88.7 118.33 88.55C118.21 84.25 114.63 80.88 110.33 81C106.42 81 96.65 81 81 81C81 82.07 81 85.8 81 86.33Z" id="h4sFIRMTR" fill="white" fill-opacity="1" filter="url(#shadow14468917)"></path></g></g><g><g><filter id="shadow6036212" x="12" y="9.34" width="95.33" height="96.33" filterUnits="userSpaceOnUse" primitiveUnits="userSpaceOnUse"><feFlood></feFlood><feComposite in2="SourceAlpha" operator="in"></feComposite><feGaussianBlur stdDeviation="4.36"></feGaussianBlur><feOffset dx="0" dy="1" result="afterOffset"></feOffset><feFlood flood-color="#0b71f3" flood-opacity="1"></feFlood><feComposite in2="afterOffset" operator="in"></feComposite><feMorphology operator="dilate" radius="1"></feMorphology><feComposite in2="SourceAlpha" operator="out"></feComposite></filter><path d="M62.33 54.34C62.33 57.53 62.33 59.31 62.33 59.67C62.33 59.67 62.33 59.67 62.33 59.67C59.14 59.67 57.36 59.67 57 59.67C57 59.67 57 59.67 57 59.67C57 56.47 57 54.69 57 54.34C57 54.34 57 54.34 57 54.34C60.2 54.34 61.98 54.34 62.33 54.34C62.33 54.34 62.33 54.34 62.33 54.34Z" id="aN5mUQOQu" fill="white" fill-opacity="1" filter="url(#shadow6036212)"></path></g></g><g><g><filter id="shadow15341102" x="22.67" y="-36" width="151.33" height="155" filterUnits="userSpaceOnUse" primitiveUnits="userSpaceOnUse"><feFlood></feFlood><feComposite in2="SourceAlpha" operator="in"></feComposite><feGaussianBlur stdDeviation="4.36"></feGaussianBlur><feOffset dx="0" dy="1" result="afterOffset"></feOffset><feFlood flood-color="#0b71f3" flood-opacity="1"></feFlood><feComposite in2="afterOffset" operator="in"></feComposite><feMorphology operator="dilate" radius="1"></feMorphology><feComposite in2="SourceAlpha" operator="out"></feComposite></filter><path d="M118.64 30.67C119.12 30.2 122.92 26.39 123.4 25.92C124.44 24.88 124.44 23.19 123.4 22.15C122.65 21.39 116.61 15.36 115.86 14.6C114.81 13.56 113.13 13.56 112.09 14.6C111.61 15.08 107.8 18.88 107.33 19.36C106.57 19 105.79 18.68 105 18.39C105 17.72 105 12.34 105 11.67C105 10.2 103.81 9 102.33 9C101.27 9 92.73 9 91.67 9C90.19 9 89 10.2 89 11.67C89 12.34 89 17.72 89 18.39C87.55 18.91 86.15 19.56 84.83 20.34C85.1 20.8 87.26 24.48 87.53 24.94C89.03 24.05 90.65 23.38 92.33 22.95C93.51 22.65 94.33 21.58 94.33 20.37C94.33 19.97 94.33 17.96 94.33 14.34C94.86 14.34 99.14 14.34 99.67 14.34C99.67 17.96 99.67 19.97 99.67 20.37C99.67 21.58 100.49 22.65 101.66 22.95C103.35 23.39 104.96 24.06 106.46 24.94C107.51 25.56 108.84 25.39 109.7 24.53C109.99 24.24 111.41 22.82 113.97 20.26C114.35 20.64 117.36 23.65 117.74 24.03C115.18 26.59 113.76 28.01 113.48 28.29C112.62 29.15 112.45 30.49 113.06 31.54C113.95 33.03 114.62 34.65 115.06 36.34C115.36 37.51 116.42 38.33 117.63 38.34C118.04 38.34 120.05 38.34 123.67 38.34C123.67 38.87 123.67 43.14 123.67 43.67C120.05 43.67 118.04 43.67 117.64 43.67C116.43 43.67 115.37 44.49 115.06 45.67C114.62 47.35 113.95 48.97 113.07 50.47C112.45 51.51 112.62 52.85 113.48 53.71C113.77 53.99 115.19 55.42 117.75 57.98C117.37 58.36 114.36 61.37 113.98 61.75C111.42 59.19 110 57.76 109.71 57.48C108.85 56.62 107.52 56.45 106.47 57.07C104.97 57.95 103.35 58.62 101.67 59.06C100.49 59.36 99.67 60.42 99.67 61.64C99.67 62.04 99.67 64.05 99.67 67.67C99.14 67.67 94.87 67.67 94.34 67.67C94.34 64.05 94.34 62.04 94.34 61.64C94.34 60.42 93.51 59.36 92.34 59.06C90.65 58.62 89.04 57.95 87.54 57.07C86.49 56.45 85.15 56.62 84.29 57.48C84.01 57.77 82.59 59.19 80.03 61.75C79.65 61.37 76.64 58.36 76.26 57.98C78.82 55.42 80.24 54 80.52 53.71C81.39 52.85 81.56 51.52 80.94 50.47C80.05 48.97 79.38 47.35 78.95 45.67C78.64 44.49 77.58 43.67 76.37 43.67C75.79 43.67 72.89 43.67 67.67 43.67C67.67 44.2 67.67 48.47 67.67 49C71.7 49 73.94 49 74.39 49C74.67 49.79 75 50.57 75.36 51.33C74.88 51.81 71.08 55.61 70.6 56.09C69.56 57.13 69.56 58.82 70.6 59.86C71.36 60.61 77.39 66.65 78.15 67.4C79.19 68.44 80.87 68.44 81.92 67.4C82.39 66.93 86.2 63.12 86.67 62.64C87.43 63.01 88.21 63.33 89 63.61C89 64.28 89 69.66 89 70.33C89 71.81 90.19 73 91.67 73C92.38 73 95.93 73 102.33 73C102.33 73 102.33 73 102.33 73C103.81 73 105 71.81 105 70.33C105 69.66 105 64.28 105 63.61C105.79 63.33 106.57 63.01 107.33 62.65C107.8 63.12 111.61 66.93 112.09 67.4C113.13 68.44 114.81 68.44 115.86 67.4C116.61 66.65 122.65 60.61 123.4 59.86C124.44 58.82 124.44 57.13 123.4 56.09C122.92 55.61 119.12 51.81 118.64 51.33C119 50.57 119.33 49.79 119.61 49C120.28 49 125.66 49 126.33 49C127.81 49 129 47.81 129 46.33C129 45.27 129 36.74 129 35.67C129 34.2 127.81 33 126.33 33C124.99 33 120.28 33 119.61 33C119.33 32.21 119.01 31.43 118.64 30.67Z" id="b7Y1g4pUi" fill="white" fill-opacity="1" filter="url(#shadow15341102)"></path></g></g><g><g><filter id="shadow11929587" x="12" y="-1.33" width="95.33" height="96.33" filterUnits="userSpaceOnUse" primitiveUnits="userSpaceOnUse"><feFlood></feFlood><feComposite in2="SourceAlpha" operator="in"></feComposite><feGaussianBlur stdDeviation="4.36"></feGaussianBlur><feOffset dx="0" dy="1" result="afterOffset"></feOffset><feFlood flood-color="#0b71f3" flood-opacity="1"></feFlood><feComposite in2="afterOffset" operator="in"></feComposite><feMorphology operator="dilate" radius="1"></feMorphology><feComposite in2="SourceAlpha" operator="out"></feComposite></filter><path d="M62.33 43.67C62.33 46.87 62.33 48.65 62.33 49C62.33 49 62.33 49 62.33 49C59.14 49 57.36 49 57 49C57 49 57 49 57 49C57 45.8 57 44.02 57 43.67C57 43.67 57 43.67 57 43.67C60.2 43.67 61.98 43.67 62.33 43.67C62.33 43.67 62.33 43.67 62.33 43.67Z" id="a2nnA57L3" fill="white" fill-opacity="1" filter="url(#shadow11929587)"></path></g></g><g><g><filter id="shadow16242850" x="42.33" y="-13.66" width="109.34" height="109.33" filterUnits="userSpaceOnUse" primitiveUnits="userSpaceOnUse"><feFlood></feFlood><feComposite in2="SourceAlpha" operator="in"></feComposite><feGaussianBlur stdDeviation="4.36"></feGaussianBlur><feOffset dx="0" dy="0" result="afterOffset"></feOffset><feFlood flood-color="#0b71f3" flood-opacity="1"></feFlood><feComposite in2="afterOffset" operator="in"></feComposite><feMorphology operator="dilate" radius="1"></feMorphology><feComposite in2="SourceAlpha" operator="out"></feComposite></filter><path d="M99.63 30.66L100.86 31.05L102.02 31.59L103.09 32.25L104.08 33.03L104.98 33.92L105.76 34.91L106.42 35.99L106.95 37.15L107.34 38.38L107.58 39.66L107.67 41L107.58 42.34L107.34 43.63L106.95 44.86L106.42 46.02L105.76 47.1L104.98 48.09L104.08 48.98L103.09 49.76L102.01 50.42L100.86 50.95L99.63 51.34L98.34 51.59L97 51.67L95.66 51.59L94.37 51.34L93.15 50.95L91.99 50.42L90.91 49.76L89.92 48.98L89.03 48.09L88.25 47.1L87.58 46.02L87.05 44.86L86.66 43.63L86.42 42.34L86.33 41L86.42 39.66L86.66 38.38L87.05 37.15L87.58 35.99L88.25 34.91L89.03 33.92L89.92 33.03L90.91 32.25L91.99 31.59L93.15 31.05L94.37 30.66L95.66 30.42L97 30.34L98.34 30.42L99.63 30.66ZM94.31 36.4L93.23 37.23L92.4 38.31L91.86 39.58L91.67 41L91.86 42.42L92.4 43.69L93.23 44.77L94.31 45.61L95.58 46.14L97 46.34L98.42 46.14L99.69 45.61L100.77 44.77L101.61 43.69L102.14 42.42L102.33 41L102.14 39.58L101.61 38.31L100.77 37.23L99.69 36.4L98.42 35.86L97 35.67L95.58 35.86L94.31 36.4Z" id="j1xgLl84CF" fill="white" fill-opacity="1" filter="url(#shadow16242850)"></path></g></g><g><g><filter id="shadow12468951" x="17.34" y="-25.33" width="105.99" height="107" filterUnits="userSpaceOnUse" primitiveUnits="userSpaceOnUse"><feFlood></feFlood><feComposite in2="SourceAlpha" operator="in"></feComposite><feGaussianBlur stdDeviation="4.36"></feGaussianBlur><feOffset dx="0" dy="1" result="afterOffset"></feOffset><feFlood flood-color="#0b71f3" flood-opacity="1"></feFlood><feComposite in2="afterOffset" operator="in"></feComposite><feMorphology operator="dilate" radius="1"></feMorphology><feComposite in2="SourceAlpha" operator="out"></feComposite></filter><path d="M72.86 20.08L74.01 20.56L75.06 21.21L75.99 22.01L76.79 22.94L77.44 23.99L77.93 25.14L78.23 26.37L78.33 27.67L78.23 28.97L77.93 30.2L77.44 31.35L76.79 32.39L75.99 33.33L75.06 34.13L74.01 34.78L72.86 35.26L71.63 35.56L70.33 35.67L69.04 35.56L67.81 35.26L66.66 34.78L65.61 34.13L64.68 33.33L63.88 32.39L63.23 31.35L62.74 30.2L62.44 28.97L62.34 27.67L62.44 26.37L62.74 25.14L63.23 23.99L63.88 22.94L64.68 22.01L65.61 21.21L66.66 20.56L67.81 20.08L69.04 19.77L70.33 19.67L71.63 19.77L72.86 20.08ZM68.45 25.78L67.88 26.63L67.67 27.67L67.88 28.71L68.45 29.55L69.3 30.13L70.33 30.34L71.37 30.13L72.22 29.55L72.79 28.71L73 27.67L72.79 26.63L72.22 25.78L71.37 25.21L70.33 25L69.3 25.21L68.45 25.78Z" id="dfJWvyxjb" fill="white" fill-opacity="1" filter="url(#shadow12468951)"></path></g></g><g><g><filter id="shadow4091690" x="-17.33" y="-1.33" width="108.67" height="99" filterUnits="userSpaceOnUse" primitiveUnits="userSpaceOnUse"><feFlood></feFlood><feComposite in2="SourceAlpha" operator="in"></feComposite><feGaussianBlur stdDeviation="4.36"></feGaussianBlur><feOffset dx="0" dy="1" result="afterOffset"></feOffset><feFlood flood-color="#0b71f3" flood-opacity="1"></feFlood><feComposite in2="afterOffset" operator="in"></feComposite><feMorphology operator="dilate" radius="1"></feMorphology><feComposite in2="SourceAlpha" operator="out"></feComposite></filter><path d="M33 46.34L33 43.67C29.8 43.67 28.03 43.67 27.67 43.67C27.67 45.27 27.67 46.16 27.67 46.34C27.67 46.41 27.67 46.48 27.67 46.56C27.73 49.44 30.12 51.73 33 51.67C33.8 51.67 40.2 51.67 41 51.67C41.08 51.67 41.15 51.67 41.22 51.67C44.11 51.61 46.4 49.22 46.34 46.34C46.34 46.16 46.34 45.27 46.34 43.67C45.98 43.67 44.2 43.67 41 43.67L41 46.34L33 46.34Z" id="d3zv78PR" fill="white" fill-opacity="1" filter="url(#shadow4091690)"></path></g></g><g><g><filter id="shadow9083145" x="-6.66" y="17.33" width="106" height="107" filterUnits="userSpaceOnUse" primitiveUnits="userSpaceOnUse"><feFlood></feFlood><feComposite in2="SourceAlpha" operator="in"></feComposite><feGaussianBlur stdDeviation="4.36"></feGaussianBlur><feOffset dx="0" dy="1" result="afterOffset"></feOffset><feFlood flood-color="#0b71f3" flood-opacity="1"></feFlood><feComposite in2="afterOffset" operator="in"></feComposite><feMorphology operator="dilate" radius="1"></feMorphology><feComposite in2="SourceAlpha" operator="out"></feComposite></filter><path d="M48.86 62.74L50.01 63.23L51.06 63.88L51.99 64.68L52.79 65.61L53.44 66.66L53.93 67.81L54.23 69.04L54.34 70.33L54.23 71.63L53.93 72.86L53.44 74.01L52.79 75.06L51.99 75.99L51.06 76.79L50.01 77.44L48.86 77.93L47.63 78.23L46.34 78.33L45.04 78.23L43.81 77.93L42.66 77.44L41.61 76.79L40.68 75.99L39.88 75.06L39.23 74.01L38.74 72.86L38.44 71.63L38.34 70.33L38.44 69.04L38.74 67.81L39.23 66.66L39.88 65.61L40.68 64.68L41.61 63.88L42.66 63.23L43.81 62.74L45.04 62.44L46.34 62.33L47.63 62.44L48.86 62.74ZM44.45 68.45L43.88 69.3L43.67 70.33L43.88 71.37L44.45 72.22L45.3 72.79L46.34 73L47.37 72.79L48.22 72.22L48.79 71.37L49 70.33L48.79 69.3L48.22 68.45L47.37 67.88L46.34 67.67L45.3 67.88L44.45 68.45Z" id="hjKtRYAVJ" fill="white" fill-opacity="1" filter="url(#shadow9083145)"></path></g></g><g><g><filter id="shadow10275439" x="22.67" y="30.67" width="106" height="107" filterUnits="userSpaceOnUse" primitiveUnits="userSpaceOnUse"><feFlood></feFlood><feComposite in2="SourceAlpha" operator="in"></feComposite><feGaussianBlur stdDeviation="4.36"></feGaussianBlur><feOffset dx="0" dy="1" result="afterOffset"></feOffset><feFlood flood-color="#0b71f3" flood-opacity="1"></feFlood><feComposite in2="afterOffset" operator="in"></feComposite><feMorphology operator="dilate" radius="1"></feMorphology><feComposite in2="SourceAlpha" operator="out"></feComposite></filter><path d="M78.2 76.08L79.34 76.56L80.39 77.21L81.32 78.01L82.12 78.94L82.77 79.99L83.26 81.14L83.56 82.37L83.67 83.67L83.56 84.97L83.26 86.2L82.77 87.34L82.12 88.39L81.32 89.32L80.39 90.12L79.34 90.77L78.2 91.26L76.97 91.56L75.67 91.67L74.37 91.56L73.14 91.26L71.99 90.77L70.94 90.12L70.01 89.32L69.21 88.39L68.56 87.34L68.08 86.2L67.77 84.97L67.67 83.67L67.77 82.37L68.08 81.14L68.56 79.99L69.21 78.94L70.01 78.01L70.94 77.21L71.99 76.56L73.14 76.08L74.37 75.77L75.67 75.67L76.97 75.77L78.2 76.08ZM73.78 81.78L73.21 82.63L73 83.67L73.21 84.71L73.78 85.55L74.63 86.12L75.67 86.33L76.71 86.12L77.55 85.55L78.13 84.71L78.33 83.67L78.13 82.63L77.55 81.78L76.71 81.21L75.67 81L74.63 81.21L73.78 81.78Z" id="f2ubLMKuWA" fill="white" fill-opacity="1" filter="url(#shadow10275439)"></path></g></g></g></g></g></svg>