<?xml version="1.0" encoding="UTF-8" standalone="no"?>
<!DOCTYPE svg PUBLIC "-//W3C//DTD SVG 1.1//EN" "http://www.w3.org/Graphics/SVG/1.1/DTD/svg11.dtd">
<svg version="1.1" xmlns="http://www.w3.org/2000/svg" xmlns:xlink="http://www.w3.org/1999/xlink" preserveAspectRatio="xMidYMid meet" viewBox="0 0 130 130" width="130" height="130"><defs><path d="M129 91.68C129 83.23 129 15.64 129 7.19C129 3.78 126.22 1 122.81 1C111.25 1 18.75 1 7.19 1C3.78 1 1 3.78 1 7.19C1 18.75 1 111.25 1 122.81C1 126.22 3.78 129 7.19 129C18.75 129 111.25 129 122.81 129C126.22 129 129 126.22 129 122.81C129 120.59 129 102.84 129 100.63C129 99.56 128.14 98.69 127.07 98.69C126 98.69 125.14 99.56 125.14 100.63C125.14 102.84 125.14 120.59 125.14 122.81C125.14 124.09 124.09 125.14 122.81 125.14C111.25 125.14 18.75 125.14 7.19 125.14C5.91 125.14 4.86 124.09 4.86 122.81C4.86 111.25 4.86 18.75 4.86 7.19C4.86 5.91 5.91 4.86 7.19 4.86C18.75 4.86 111.25 4.86 122.81 4.86C124.09 4.86 125.14 5.91 125.14 7.19C125.14 15.64 125.14 83.23 125.14 91.68C125.14 92.75 126 93.61 127.07 93.61C128.14 93.61 129 92.75 129 91.68Z" id="d1KeSdkehL"></path><path d="M87.52 83.73L87.52 46.27C105.92 46.27 116.14 46.27 118.18 46.27C119.25 46.27 120.11 45.4 120.11 44.34C120.11 43.27 119.25 42.41 118.18 42.41C116.14 42.41 105.92 42.41 87.52 42.41C87.52 24.63 87.52 14.75 87.52 12.77C87.52 11.71 86.65 10.84 85.59 10.84C84.52 10.84 83.66 11.71 83.66 12.77C83.66 14.75 83.66 24.63 83.66 42.41L46.19 42.41C46.19 24.63 46.19 14.75 46.19 12.77C46.19 11.71 45.33 10.84 44.26 10.84C43.19 10.84 42.33 11.71 42.33 12.77C42.33 14.75 42.33 24.63 42.33 42.41C24.02 42.41 13.85 42.41 11.82 42.41C10.75 42.41 9.89 43.27 9.89 44.34C9.89 45.4 10.75 46.27 11.82 46.27C13.85 46.27 24.02 46.27 42.33 46.27L42.33 83.73C24.02 83.73 13.85 83.73 11.82 83.73C10.75 83.73 9.89 84.6 9.89 85.66C9.89 86.73 10.75 87.6 11.82 87.6C13.85 87.6 24.02 87.6 42.33 87.6C42.33 105.38 42.33 115.25 42.33 117.23C42.33 118.29 43.19 119.16 44.26 119.16C45.33 119.16 46.19 118.29 46.19 117.23C46.19 115.25 46.19 105.38 46.19 87.59C48.69 87.59 50.09 87.59 50.36 87.59C51.43 87.59 52.29 86.73 52.29 85.66C52.29 84.6 51.43 83.73 50.36 83.73C50.09 83.73 48.69 83.73 46.19 83.73L46.19 46.27L83.66 46.27L83.66 83.73C68.62 83.73 60.27 83.73 58.6 83.73C57.53 83.73 56.67 84.6 56.67 85.66C56.67 86.73 57.53 87.59 58.6 87.59C60.27 87.59 68.62 87.59 83.66 87.59C83.66 105.38 83.66 115.25 83.66 117.23C83.66 118.29 84.52 119.16 85.59 119.16C86.65 119.16 87.52 118.29 87.52 117.23C87.52 115.25 87.52 105.38 87.52 87.59C105.92 87.59 116.14 87.59 118.18 87.59C119.25 87.59 120.11 86.73 120.11 85.66C120.11 84.6 119.25 83.73 118.18 83.73C114.09 83.73 103.87 83.73 87.52 83.73Z" id="b5qyei16y"></path><path d="M32.54 20.24C31.6 20.75 31.25 21.92 31.75 22.86C32.3 23.87 32.35 24.34 32.35 25.5C32.35 29.4 29.18 32.56 25.29 32.56C21.4 32.56 18.23 29.4 18.23 25.5C18.23 21.61 21.4 18.45 25.29 18.45C26.02 18.45 25.98 18.5 26.42 18.58C27.55 18.8 28.52 18.35 28.85 17.33C29.17 16.32 28.62 15.16 27.59 14.91C26.5 14.64 26.42 14.59 25.29 14.59C19.27 14.59 14.37 19.49 14.37 25.5C14.37 31.52 19.27 36.42 25.29 36.42C31.31 36.42 36.21 31.52 36.21 25.5C36.21 23.71 36 22.61 35.16 21.03C34.65 20.09 33.48 19.74 32.54 20.24Z" id="cgIHo88uD"></path><path d="M67.68 54.12L68.94 54.53L70.13 55.07L71.23 55.75L72.25 56.55L73.16 57.46L73.96 58.47L74.64 59.58L75.18 60.77L75.58 62.02L75.83 63.34L75.92 64.71L75.83 66.07L75.58 67.39L75.18 68.65L74.64 69.83L73.96 70.94L73.16 71.95L72.25 72.87L71.23 73.67L70.13 74.34L68.94 74.89L67.68 75.29L66.37 75.54L65 75.62L63.63 75.54L62.32 75.29L61.06 74.89L59.87 74.34L58.77 73.67L57.75 72.87L56.84 71.95L56.04 70.94L55.36 69.83L54.82 68.65L54.42 67.39L54.17 66.07L54.08 64.71L54.17 63.34L54.42 62.02L54.82 60.77L55.36 59.58L56.04 58.47L56.84 57.46L57.75 56.55L58.77 55.75L59.87 55.07L61.06 54.53L62.32 54.12L63.63 53.88L65 53.79L66.37 53.88L67.68 54.12ZM62.26 58.21L61.06 58.86L60.01 59.72L59.15 60.76L58.5 61.96L58.09 63.29L57.94 64.71L58.09 66.13L58.5 67.45L59.15 68.65L60.01 69.69L61.06 70.56L62.26 71.21L63.58 71.62L65 71.76L66.42 71.62L67.74 71.21L68.94 70.56L69.99 69.69L70.85 68.65L71.5 67.45L71.91 66.13L72.06 64.71L71.91 63.29L71.5 61.96L70.85 60.76L69.99 59.72L68.94 58.86L67.74 58.21L66.42 57.79L65 57.65L63.58 57.79L62.26 58.21Z" id="bMCPmMZL"></path><path d="M105.77 92.46L107.03 92.87L108.22 93.41L109.32 94.09L110.33 94.89L111.25 95.8L112.05 96.81L112.72 97.92L113.27 99.11L113.67 100.36L113.92 101.68L114 103.05L113.92 104.42L113.67 105.73L113.27 106.99L112.72 108.18L112.05 109.28L111.25 110.29L110.33 111.21L109.32 112.01L108.22 112.68L107.03 113.23L105.77 113.63L104.46 113.88L103.09 113.96L101.72 113.88L100.4 113.63L99.15 113.23L97.96 112.68L96.86 112.01L95.84 111.21L94.93 110.29L94.13 109.28L93.45 108.18L92.91 106.99L92.51 105.73L92.26 104.42L92.17 103.05L92.26 101.68L92.51 100.36L92.91 99.11L93.45 97.92L94.13 96.82L94.93 95.8L95.84 94.89L96.86 94.09L97.96 93.41L99.15 92.87L100.4 92.47L101.72 92.22L103.09 92.13L104.46 92.22L105.77 92.46ZM100.34 96.55L99.15 97.2L98.1 98.06L97.24 99.11L96.59 100.3L96.18 101.63L96.03 103.05L96.18 104.47L96.59 105.79L97.24 106.99L98.1 108.04L99.15 108.9L100.34 109.55L101.67 109.96L103.09 110.1L104.51 109.96L105.83 109.55L107.03 108.9L108.08 108.04L108.94 106.99L109.59 105.79L110 104.47L110.14 103.05L110 101.63L109.59 100.3L108.94 99.11L108.08 98.06L107.03 97.2L105.83 96.55L104.51 96.14L103.09 95.99L101.67 96.14L100.34 96.55Z" id="h8nCMsBX7"></path><path d="M111.83 58.56C112.57 57.79 112.55 56.57 111.78 55.83C111.02 55.09 109.8 55.11 109.06 55.88C108.66 56.29 106.67 58.34 103.09 62.04C99.51 58.34 97.52 56.29 97.12 55.88C96.38 55.11 95.16 55.09 94.39 55.83C93.63 56.57 93.61 57.79 94.35 58.56C94.75 58.98 96.77 61.06 100.4 64.82C96.77 68.57 94.75 70.65 94.35 71.07C93.61 71.84 93.63 73.06 94.39 73.8C94.77 74.16 95.25 74.34 95.73 74.34C96.24 74.34 96.74 74.15 97.12 73.76C97.52 73.34 99.51 71.29 103.09 67.59C106.67 71.29 108.66 73.34 109.06 73.76C109.43 74.15 109.94 74.34 110.44 74.34C110.93 74.34 111.41 74.16 111.78 73.8C112.55 73.06 112.57 71.84 111.83 71.07C111.43 70.65 109.41 68.57 105.77 64.82C109.41 61.06 111.43 58.98 111.83 58.56Z" id="g2Uibk36pv"></path><path d="M29.61 103.05C33.24 99.29 35.26 97.21 35.66 96.79C36.4 96.03 36.38 94.8 35.62 94.06C34.85 93.32 33.63 93.34 32.89 94.11C32.49 94.52 30.5 96.57 26.92 100.27C23.34 96.57 21.35 94.52 20.95 94.11C20.21 93.34 18.99 93.32 18.23 94.06C17.46 94.8 17.44 96.03 18.18 96.79C18.58 97.21 20.6 99.29 24.24 103.05C20.6 106.8 18.58 108.89 18.18 109.3C17.44 110.07 17.46 111.29 18.23 112.03C18.6 112.4 19.08 112.58 19.57 112.58C20.07 112.58 20.58 112.38 20.95 111.99C21.35 111.58 23.34 109.52 26.92 105.82C30.5 109.52 32.49 111.58 32.89 111.99C33.27 112.38 33.77 112.58 34.28 112.58C34.76 112.58 35.24 112.4 35.62 112.03C36.38 111.29 36.4 110.07 35.66 109.3C34.86 108.47 32.84 106.38 29.61 103.05Z" id="a1ksFP7h3s"></path></defs><g><g><g><g><use xlink:href="#d1KeSdkehL" opacity="1" fill="#1eaeb1" fill-opacity="1"></use><g><use xlink:href="#d1KeSdkehL" opacity="1" fill-opacity="0" stroke="#000000" stroke-width="1" stroke-opacity="0"></use></g></g><g><use xlink:href="#b5qyei16y" opacity="1" fill="#1eaeb1" fill-opacity="1"></use><g><use xlink:href="#b5qyei16y" opacity="1" fill-opacity="0" stroke="#000000" stroke-width="1" stroke-opacity="0"></use></g></g><g><use xlink:href="#cgIHo88uD" opacity="1" fill="#1eaeb1" fill-opacity="1"></use><g><use xlink:href="#cgIHo88uD" opacity="1" fill-opacity="0" stroke="#000000" stroke-width="1" stroke-opacity="0"></use></g></g><g><use xlink:href="#bMCPmMZL" opacity="1" fill="#1eaeb1" fill-opacity="1"></use><g><use xlink:href="#bMCPmMZL" opacity="1" fill-opacity="0" stroke="#000000" stroke-width="1" stroke-opacity="0"></use></g></g><g><use xlink:href="#h8nCMsBX7" opacity="1" fill="#1eaeb1" fill-opacity="1"></use><g><use xlink:href="#h8nCMsBX7" opacity="1" fill-opacity="0" stroke="#000000" stroke-width="1" stroke-opacity="0"></use></g></g><g><use xlink:href="#g2Uibk36pv" opacity="1" fill="#1eaeb1" fill-opacity="1"></use><g><use xlink:href="#g2Uibk36pv" opacity="1" fill-opacity="0" stroke="#000000" stroke-width="1" stroke-opacity="0"></use></g></g><g><use xlink:href="#a1ksFP7h3s" opacity="1" fill="#1eaeb1" fill-opacity="1"></use><g><use xlink:href="#a1ksFP7h3s" opacity="1" fill-opacity="0" stroke="#000000" stroke-width="1" stroke-opacity="0"></use></g></g></g></g></g></svg>